<svg width="24" height="24" viewBox="0 0 24 24" fill="none" xmlns="http://www.w3.org/2000/svg">
<g clip-path="url(#clip0_2680_14644)">
<path d="M4.20008 2H0.600074C0.268726 2 0 2.26873 0 2.60007V6.20008C0 6.53142 0.268726 6.80015 0.600074 6.80015C0.931421 6.80015 1.19993 6.53142 1.19993 6.20008V3.20015H4.20008C4.53142 3.20015 4.79993 2.93142 4.79993 2.60007C4.79993 2.26873 4.53142 2 4.20008 2Z" fill="#3772FF"/>
<path d="M4.20008 19.9984H1.19993V16.9985C1.19993 16.6672 0.931421 16.3984 0.600074 16.3984C0.268726 16.3984 0 16.6672 0 16.9985V20.5985C0 20.9299 0.268726 21.1986 0.600074 21.1986H4.20008C4.53142 21.1986 4.79993 20.9299 4.79993 20.5985C4.79993 20.2672 4.53142 19.9984 4.20008 19.9984Z" fill="#3772FF"/>
<path d="M23.3993 2H19.7993C19.4679 2 19.1992 2.26873 19.1992 2.60007C19.1992 2.93142 19.4679 3.20015 19.7993 3.20015H22.7992V6.20008C22.7992 6.53142 23.0679 6.80015 23.3993 6.80015C23.7306 6.80015 23.9994 6.53142 23.9994 6.20008V2.60007C23.9994 2.26873 23.7306 2 23.3993 2Z" fill="#3772FF"/>
<path d="M23.3993 16.3984C23.0679 16.3984 22.7992 16.6672 22.7992 16.9985V19.9984H19.7993C19.4679 19.9984 19.1992 20.2672 19.1992 20.5985C19.1992 20.9299 19.4679 21.1986 19.7993 21.1986H23.3993C23.7306 21.1986 23.9994 20.9299 23.9994 20.5985V16.9985C23.9994 16.6672 23.7306 16.3984 23.3993 16.3984Z" fill="#3772FF"/>
<path d="M3.64988 5.60156H4.95012C5.3091 5.60156 5.6 5.87029 5.6 6.20164V17.0016C5.6 17.333 5.3091 17.6017 4.95012 17.6017H3.64988C3.2909 17.6017 3 17.333 3 17.0016V6.20164C3 5.87029 3.2909 5.60156 3.64988 5.60156Z" fill="#3772FF"/>
<path d="M7.89909 5.60156C7.51249 5.60156 7.19922 5.87029 7.19922 6.20164V17.0016C7.19922 17.333 7.51249 17.6017 7.89909 17.6017C8.28569 17.6017 8.59922 17.333 8.59922 17.0016V6.20164C8.59922 5.87029 8.28569 5.60156 7.89909 5.60156Z" fill="#3772FF"/>
<path d="M11.1501 5.60156H12.4499C12.8089 5.60156 13.1 5.87029 13.1 6.20164V17.0016C13.1 17.333 12.8089 17.6017 12.4499 17.6017H11.1501C10.7911 17.6017 10.5 17.333 10.5 17.0016V6.20164C10.5 5.87029 10.7911 5.60156 11.1501 5.60156Z" fill="#3772FF"/>
<path d="M15.5008 5.60156C15.1143 5.60156 14.8008 5.87029 14.8008 6.20164V17.0016C14.8008 17.333 15.1143 17.6017 15.5008 17.6017C15.8873 17.6017 16.2008 17.333 16.2008 17.0016V6.20164C16.2008 5.87029 15.8873 5.60156 15.5008 5.60156Z" fill="#3772FF"/>
<path d="M18.6501 5.60156H19.9499C20.3089 5.60156 20.6 5.87029 20.6 6.20164V17.0016C20.6 17.333 20.3089 17.6017 19.9499 17.6017H18.6501C18.2911 17.6017 18 17.333 18 17.0016V6.20164C18 5.87029 18.2911 5.60156 18.6501 5.60156Z" fill="#3772FF"/>
</g>
<defs>
<clipPath id="clip0_2680_14644">
<rect width="24" height="24" fill="white"/>
</clipPath>
</defs>
</svg>
