<svg width="24" height="24" viewBox="0 0 24 24" fill="none" xmlns="http://www.w3.org/2000/svg">
<path d="M22.7031 12C22.7031 11.0752 22.5852 10.1602 22.3522 9.27366L23.7069 8.27705L21.0776 3.72291L19.5348 4.39884C18.2158 3.08925 16.6007 2.15602 14.815 1.67166L14.6293 0H9.37059L9.18487 1.67166C7.39912 2.15602 5.78404 3.08925 4.46508 4.39884L2.92233 3.72291L0.292969 8.27705L1.64766 9.27366C1.41469 10.1602 1.29684 11.0752 1.29684 12C1.29684 12.9248 1.41473 13.8397 1.64766 14.7263L0.292969 15.7229L2.92233 20.277L4.46508 19.6011C5.78409 20.9108 7.39917 21.844 9.18487 22.3283L9.37059 24H14.6293L14.815 22.3283C16.6008 21.844 18.2159 20.9107 19.5348 19.6011L21.0776 20.277L23.7069 15.7229L22.3522 14.7263C22.5852 13.8397 22.7031 12.9248 22.7031 12ZM14.0184 21.0765L13.5271 21.1853L13.3706 22.5938H10.6293L10.4728 21.1853L9.98146 21.0765C8.1187 20.6643 6.44794 19.6989 5.14987 18.2849L4.81003 17.9147L3.51084 18.4839L2.14017 16.1098L3.28041 15.271L3.12966 14.7916C2.84662 13.8913 2.70309 12.952 2.70309 12C2.70309 11.0479 2.84662 10.1087 3.12966 9.20841L3.28041 8.72897L2.14017 7.89019L3.51084 5.51611L4.81003 6.08531L5.14987 5.71509C6.44794 4.30106 8.1187 3.33572 9.98146 2.92345L10.4728 2.8147L10.6293 1.40625H13.3706L13.5271 2.8147L14.0184 2.92345C15.8812 3.33577 17.552 4.30111 18.85 5.71509L19.1899 6.08531L20.4891 5.51611L21.8597 7.89019L20.7195 8.72897L20.8702 9.20841C21.1533 10.1087 21.2968 11.048 21.2968 12C21.2968 12.952 21.1533 13.8913 20.8702 14.7916L20.7195 15.271L21.8597 16.1098L20.4891 18.4839L19.1899 17.9147L18.85 18.2849C17.552 19.6989 15.8812 20.6643 14.0184 21.0765Z" fill="white" stroke="white" stroke-width="0.5"/>
<path d="M9.20919 10.3902L8.20452 9.40625L5.63281 12.0321L8.25875 14.6038L9.24266 13.5991L7.62144 12.0114L9.20919 10.3902Z" fill="white" stroke="white" stroke-width="0.5"/>
<path d="M14.7913 10.3902L16.379 12.0114L14.7578 13.5991L15.7417 14.6038L18.3677 12.0321L15.796 9.40625L14.7913 10.3902Z" fill="white" stroke="white" stroke-width="0.5"/>
<path d="M10.3164 16.6016L12.3163 7.09721L13.6931 7.3869L11.6932 16.8913L10.3164 16.6016Z" fill="white" stroke="white" stroke-width="0.5"/>
</svg>
