<svg width="8" height="10" viewBox="0 0 8 10" fill="none" xmlns="http://www.w3.org/2000/svg">
<path d="M6.7593 3.20154C6.6927 3.13681 6.59924 3.10739 6.50779 3.12243C6.41617 3.13741 6.33705 3.19493 6.29455 3.27747C6.14838 3.56144 5.96271 3.82239 5.74428 4.05308C5.76605 3.88644 5.77701 3.7188 5.77701 3.55072C5.77701 3.2282 5.73379 2.8963 5.6485 2.56413C5.36807 1.4731 4.63271 0.550422 3.63105 0.0327073C3.54385 -0.0123512 3.43994 -0.0107692 3.35414 0.0369261C3.26834 0.0846409 3.21215 0.172121 3.20445 0.269973C3.12637 1.26146 2.61566 2.16349 1.80252 2.74536C1.79176 2.75312 1.78107 2.76097 1.77039 2.76878C1.74826 2.78497 1.7274 2.80029 1.70791 2.81314C1.70486 2.81517 1.70184 2.81724 1.69887 2.81937C1.18746 3.18552 0.765488 3.67361 0.478516 4.23101C0.186914 4.79798 0.0390625 5.4064 0.0390625 6.03931C0.0390625 6.36173 0.0822851 6.69362 0.167539 7.02585C0.617441 8.77697 2.1933 9.99997 3.99975 9.99997C6.18356 9.99997 7.9602 8.22322 7.9602 6.03931C7.9602 4.96236 7.53371 3.95454 6.7593 3.20154Z" fill="#3772FF"/>
</svg>
