<svg width="24" height="24" viewBox="0 0 24 24" fill="none" xmlns="http://www.w3.org/2000/svg">
<path d="M16.2071 2.7929C15.8166 2.40237 15.1834 2.40237 14.7929 2.79289C14.4024 3.18341 14.4024 3.81658 14.7929 4.2071L15.5819 4.99615H10C6.13401 4.99615 3 8.13016 3 11.9962V12.9962C3 13.5484 3.44772 13.9962 4 13.9962C4.55228 13.9962 5 13.5484 5 12.9962V11.9962C5 9.23473 7.23858 6.99615 10 6.99615H15.5866L14.7929 7.78992C14.4024 8.18045 14.4024 8.81362 14.7929 9.20414C15.1834 9.59466 15.8166 9.59465 16.2071 9.20412L18.352 7.05916C18.9378 6.47337 18.9378 5.52363 18.352 4.93785L16.2071 2.7929Z" fill="#3772FF"/>
<path d="M13.9984 19C17.8644 19 20.9984 15.866 20.9984 12V11C20.9984 10.4477 20.5507 10 19.9984 10C19.4461 10 18.9984 10.4477 18.9984 11V12C18.9984 14.7614 16.7598 17 13.9984 17H8.4117L9.20552 16.2062C9.59604 15.8156 9.59603 15.1825 9.2055 14.792C8.81498 14.4014 8.18181 14.4014 7.79129 14.792L5.64636 16.9369C5.06059 17.5227 5.06059 18.4725 5.64636 19.0582L7.79129 21.2032C8.18181 21.5937 8.81498 21.5937 9.20551 21.2032C9.59603 20.8127 9.59604 20.1795 9.20551 19.789L8.41653 19H13.9984Z" fill="#3772FF"/>
</svg>
