<svg width="24" height="24" viewBox="0 0 24 24" fill="none" xmlns="http://www.w3.org/2000/svg">
<path fill-rule="evenodd" clip-rule="evenodd" d="M12.0015 18C16.127 18 19.0607 15.4076 20.7788 13.2486C21.3747 12.4998 21.3747 11.5002 20.7788 10.7514C19.0607 8.59239 16.127 6 12.0015 6C7.87603 6 4.94232 8.59238 3.22427 10.7514C2.62837 11.5002 2.62837 12.4998 3.22427 13.2486C4.94232 15.4076 7.87603 18 12.0015 18ZM22.3438 14.494C23.5197 13.0163 23.5197 10.9837 22.3438 9.506C20.4755 7.15826 17.0281 4 12.0015 4C6.975 4 3.52759 7.15826 1.65931 9.506C0.483355 10.9837 0.483355 13.0163 1.65931 14.494C3.52759 16.8417 6.97499 20 12.0015 20C17.0281 20 20.4755 16.8417 22.3438 14.494Z" fill="#B1B5C3"/>
<path fill-rule="evenodd" clip-rule="evenodd" d="M14 12C14 13.1046 13.1046 14 12 14C10.8954 14 10 13.1046 10 12C10 11.9716 10.0006 11.9434 10.0018 11.9153C10.1577 11.9701 10.3253 12 10.5 12C11.3284 12 12 11.3284 12 10.5C12 10.3253 11.9701 10.1577 11.9153 10.0018C11.9434 10.0006 11.9716 10 12 10C13.1046 10 14 10.8954 14 12ZM16 12C16 14.2091 14.2091 16 12 16C9.79086 16 8 14.2091 8 12C8 9.79086 9.79086 8 12 8C14.2091 8 16 9.79086 16 12Z" fill="#B1B5C3"/>
</svg>
