<svg width="17" height="20" viewBox="0 0 17 20" fill="none" xmlns="http://www.w3.org/2000/svg">
<path d="M8.50004 11.7578C8.17672 11.7578 7.91406 12.0205 7.91406 12.3438C7.91406 12.6671 8.17672 12.9298 8.50004 12.9298C8.82336 12.9298 9.08602 12.6671 9.08602 12.3438C9.08602 12.0205 8.82336 11.7578 8.50004 11.7578Z" fill="white"/>
<path d="M12.0164 8.24219H4.71894C2.60035 8.24219 0.882812 9.95965 0.882812 12.0783C0.882812 15.6973 3.28437 19.0605 6.82266 19.8205C11.7511 20.8791 16.1183 17.0922 16.1183 12.344C16.1183 10.0787 14.2818 8.24219 12.0164 8.24219ZM9.08652 13.9941V17.071C9.08652 17.3949 8.82441 17.657 8.50055 17.657C8.17664 17.657 7.91457 17.3949 7.91457 17.071V13.9941C7.23398 13.7514 6.74262 13.107 6.74262 12.3441C6.74262 11.3747 7.53117 10.5861 8.50055 10.5861C9.46992 10.5861 10.2585 11.3747 10.2585 12.3441C10.2585 13.107 9.76711 13.7513 9.08652 13.9941Z" fill="white"/>
<path d="M8.50039 0C5.58223 0 3.22656 2.35562 3.22656 5.27383V7.3234C3.70102 7.17391 4.19582 7.07086 4.71898 7.07086H5.57051V5.27383C5.57051 3.65652 6.88309 2.34395 8.50039 2.34395C10.1177 2.34395 11.4303 3.65652 11.4303 5.27383V7.07082H12.0163C12.6356 7.07082 13.2216 7.19777 13.7742 7.3948V5.27383C13.7742 2.35844 11.4128 0 8.50039 0Z" fill="white"/>
</svg>
