<svg width="14" height="14" viewBox="0 0 14 14" fill="none" xmlns="http://www.w3.org/2000/svg">
<path d="M7.00065 0.332031C6.63246 0.332031 6.33398 0.630508 6.33398 0.998698V2.9987C6.33398 3.36689 6.63246 3.66536 7.00065 3.66536C7.36884 3.66536 7.66732 3.36689 7.66732 2.9987V0.998698C7.66732 0.630508 7.36884 0.332031 7.00065 0.332031Z" fill="#23262F"/>
<path d="M7.00065 10.332C6.63246 10.332 6.33398 10.6305 6.33398 10.9987V12.9987C6.33398 13.3669 6.63246 13.6654 7.00065 13.6654C7.36884 13.6654 7.66732 13.3669 7.66732 12.9987V10.9987C7.66732 10.6305 7.36884 10.332 7.00065 10.332Z" fill="#23262F"/>
<path d="M13.0007 6.33203C13.3688 6.33203 13.6673 6.63051 13.6673 6.9987C13.6673 7.36689 13.3688 7.66536 13.0007 7.66536H11.0007C10.6325 7.66536 10.334 7.36689 10.334 6.9987C10.334 6.63051 10.6325 6.33203 11.0007 6.33203H13.0007Z" fill="#23262F"/>
<path d="M3.66732 6.9987C3.66732 6.63051 3.36884 6.33203 3.00065 6.33203H1.00065C0.632461 6.33203 0.333984 6.63051 0.333984 6.9987C0.333984 7.36689 0.632461 7.66536 1.00065 7.66536H3.00065C3.36884 7.66536 3.66732 7.36689 3.66732 6.9987Z" fill="#23262F"/>
<path d="M10.7719 2.28472C11.0323 2.02437 11.4544 2.02437 11.7147 2.28472C11.9751 2.54507 11.9751 2.96718 11.7147 3.22753L10.3005 4.64174C10.0402 4.90209 9.61806 4.90209 9.35771 4.64174C9.09736 4.38139 9.09736 3.95928 9.35771 3.69893L10.7719 2.28472Z" fill="#23262F"/>
<path d="M4.64361 9.35568C4.38326 9.09533 3.96115 9.09533 3.7008 9.35568L2.28658 10.7699C2.02623 11.0302 2.02623 11.4524 2.28658 11.7127C2.54693 11.9731 2.96904 11.9731 3.22939 11.7127L4.64361 10.2985C4.90395 10.0381 4.90395 9.61603 4.64361 9.35568Z" fill="#23262F"/>
<path d="M11.7147 10.77C11.9751 11.0303 11.9751 11.4524 11.7147 11.7128C11.4544 11.9731 11.0323 11.9731 10.7719 11.7128L9.35769 10.2986C9.09734 10.0382 9.09734 9.61611 9.35769 9.35576C9.61804 9.09541 10.0401 9.09541 10.3005 9.35576L11.7147 10.77Z" fill="#23262F"/>
<path d="M4.64367 4.64165C4.90402 4.3813 4.90402 3.95919 4.64367 3.69884L3.22945 2.28463C2.9691 2.02428 2.54699 2.02428 2.28664 2.28463C2.0263 2.54498 2.0263 2.96709 2.28664 3.22744L3.70086 4.64165C3.96121 4.902 4.38332 4.902 4.64367 4.64165Z" fill="#23262F"/>
</svg>
