<svg width="14" height="14" viewBox="0 0 14 14" fill="none" xmlns="http://www.w3.org/2000/svg">
<path d="M7.00065 0.333984C6.63246 0.333984 6.33398 0.632461 6.33398 1.00065V3.00065C6.33398 3.36884 6.63246 3.66732 7.00065 3.66732C7.36884 3.66732 7.66732 3.36884 7.66732 3.00065V1.00065C7.66732 0.632461 7.36884 0.333984 7.00065 0.333984Z" fill="white"/>
<path d="M7.00065 10.334C6.63246 10.334 6.33398 10.6325 6.33398 11.0007V13.0007C6.33398 13.3688 6.63246 13.6673 7.00065 13.6673C7.36884 13.6673 7.66732 13.3688 7.66732 13.0007V11.0007C7.66732 10.6325 7.36884 10.334 7.00065 10.334Z" fill="white"/>
<path d="M13.0007 6.33398C13.3688 6.33398 13.6673 6.63246 13.6673 7.00065C13.6673 7.36884 13.3688 7.66732 13.0007 7.66732H11.0007C10.6325 7.66732 10.334 7.36884 10.334 7.00065C10.334 6.63246 10.6325 6.33398 11.0007 6.33398H13.0007Z" fill="white"/>
<path d="M3.66732 7.00065C3.66732 6.63246 3.36884 6.33398 3.00065 6.33398H1.00065C0.632461 6.33398 0.333984 6.63246 0.333984 7.00065C0.333984 7.36884 0.632461 7.66732 1.00065 7.66732H3.00065C3.36884 7.66732 3.66732 7.36884 3.66732 7.00065Z" fill="white"/>
<path d="M10.7719 2.28667C11.0323 2.02632 11.4544 2.02632 11.7147 2.28667C11.9751 2.54702 11.9751 2.96913 11.7147 3.22948L10.3005 4.64369C10.0402 4.90404 9.61806 4.90404 9.35771 4.64369C9.09736 4.38334 9.09736 3.96123 9.35771 3.70088L10.7719 2.28667Z" fill="white"/>
<path d="M4.64361 9.35764C4.38326 9.09729 3.96115 9.09729 3.7008 9.35764L2.28658 10.7718C2.02623 11.0322 2.02623 11.4543 2.28658 11.7147C2.54693 11.975 2.96904 11.975 3.22939 11.7147L4.64361 10.3004C4.90395 10.0401 4.90395 9.61798 4.64361 9.35764Z" fill="white"/>
<path d="M11.7147 10.7719C11.9751 11.0323 11.9751 11.4544 11.7147 11.7147C11.4544 11.9751 11.0323 11.9751 10.7719 11.7147L9.35769 10.3005C9.09734 10.0402 9.09734 9.61806 9.35769 9.35771C9.61804 9.09736 10.0401 9.09736 10.3005 9.35771L11.7147 10.7719Z" fill="white"/>
<path d="M4.64367 4.64361C4.90402 4.38326 4.90402 3.96115 4.64367 3.7008L3.22945 2.28658C2.9691 2.02623 2.54699 2.02623 2.28664 2.28658C2.0263 2.54693 2.0263 2.96904 2.28664 3.22939L3.70086 4.64361C3.96121 4.90395 4.38332 4.90395 4.64367 4.64361Z" fill="white"/>
</svg>
