<svg width="24" height="24" viewBox="0 0 24 24" fill="none" xmlns="http://www.w3.org/2000/svg">
<path d="M12.5703 7.42969V13.1439L17.4617 16.0468L18.2846 14.6582L14.2846 12.2868V7.42969H12.5703Z" fill="white"/>
<path d="M13.7085 1.71484C8.02285 1.71484 3.42857 6.32054 3.42857 12.0006H0L4.45141 16.452L4.53139 16.6177L9.14287 12.0006H5.7143C5.7143 7.58344 9.29716 4.00058 13.7143 4.00058C18.1314 4.00058 21.7143 7.58344 21.7143 12.0006C21.7143 16.4177 18.1314 20.0005 13.7143 20.0005C11.5029 20.0005 9.50855 19.0977 8.06287 17.652L6.44571 19.2691C8.30287 21.132 10.8686 22.2863 13.7085 22.2863C19.3943 22.2863 24 17.6806 24 12.0006C24 6.32054 19.3943 1.71484 13.7085 1.71484Z" fill="white"/>
</svg>
