<svg width="121" height="32" viewBox="0 0 121 32" fill="none" xmlns="http://www.w3.org/2000/svg">
<path d="M41.632 24V7.2H47.8C49.144 7.2 50.248 7.432 51.112 7.896C51.992 8.344 52.648 8.96 53.08 9.744C53.512 10.512 53.728 11.368 53.728 12.312C53.728 13.336 53.456 14.272 52.912 15.12C52.384 15.968 51.552 16.584 50.416 16.968L53.896 24H50.368L47.248 17.376H44.704V24H41.632ZM44.704 15.12H47.608C48.632 15.12 49.384 14.872 49.864 14.376C50.344 13.88 50.584 13.224 50.584 12.408C50.584 11.608 50.344 10.968 49.864 10.488C49.4 10.008 48.64 9.768 47.584 9.768H44.704V15.12ZM61.4986 24.288C60.3466 24.288 59.3066 24.024 58.3786 23.496C57.4666 22.968 56.7386 22.24 56.1946 21.312C55.6666 20.368 55.4026 19.28 55.4026 18.048C55.4026 16.816 55.6746 15.736 56.2186 14.808C56.7626 13.864 57.4906 13.128 58.4026 12.6C59.3306 12.072 60.3706 11.808 61.5226 11.808C62.6586 11.808 63.6826 12.072 64.5946 12.6C65.5226 13.128 66.2506 13.864 66.7786 14.808C67.3226 15.736 67.5946 16.816 67.5946 18.048C67.5946 19.28 67.3226 20.368 66.7786 21.312C66.2506 22.24 65.5226 22.968 64.5946 23.496C63.6666 24.024 62.6346 24.288 61.4986 24.288ZM61.4986 21.624C62.2986 21.624 62.9946 21.328 63.5866 20.736C64.1786 20.128 64.4746 19.232 64.4746 18.048C64.4746 16.864 64.1786 15.976 63.5866 15.384C62.9946 14.776 62.3066 14.472 61.5226 14.472C60.7066 14.472 60.0026 14.776 59.4106 15.384C58.8346 15.976 58.5466 16.864 58.5466 18.048C58.5466 19.232 58.8346 20.128 59.4106 20.736C60.0026 21.328 60.6986 21.624 61.4986 21.624ZM76.1733 24.288C74.9573 24.288 73.8853 24.024 72.9573 23.496C72.0293 22.968 71.2933 22.232 70.7493 21.288C70.2213 20.344 69.9573 19.264 69.9573 18.048C69.9573 16.832 70.2213 15.752 70.7493 14.808C71.2933 13.864 72.0293 13.128 72.9573 12.6C73.8853 12.072 74.9573 11.808 76.1733 11.808C77.6933 11.808 78.9733 12.208 80.0133 13.008C81.0533 13.792 81.7173 14.88 82.0052 16.272H78.7653C78.6053 15.696 78.2853 15.248 77.8053 14.928C77.3413 14.592 76.7893 14.424 76.1493 14.424C75.3013 14.424 74.5813 14.744 73.9893 15.384C73.3973 16.024 73.1013 16.912 73.1013 18.048C73.1013 19.184 73.3973 20.072 73.9893 20.712C74.5813 21.352 75.3013 21.672 76.1493 21.672C76.7893 21.672 77.3413 21.512 77.8053 21.192C78.2853 20.872 78.6053 20.416 78.7653 19.824H82.0052C81.7173 21.168 81.0533 22.248 80.0133 23.064C78.9733 23.88 77.6933 24.288 76.1733 24.288ZM84.7319 24V6.72H87.8039V16.92L92.0279 12.096H95.6759L90.8039 17.52L96.4679 24H92.6279L87.8039 18.024V24H84.7319ZM103.172 24.288C101.972 24.288 100.908 24.032 99.9801 23.52C99.0521 23.008 98.3241 22.288 97.7961 21.36C97.2681 20.432 97.0041 19.36 97.0041 18.144C97.0041 16.912 97.2601 15.816 97.7721 14.856C98.3001 13.896 99.0201 13.152 99.9321 12.624C100.86 12.08 101.948 11.808 103.196 11.808C104.364 11.808 105.396 12.064 106.292 12.576C107.188 13.088 107.884 13.792 108.38 14.688C108.892 15.568 109.148 16.552 109.148 17.64C109.148 17.816 109.14 18 109.124 18.192C109.124 18.384 109.116 18.584 109.1 18.792H100.052C100.116 19.72 100.436 20.448 101.012 20.976C101.604 21.504 102.316 21.768 103.148 21.768C103.772 21.768 104.292 21.632 104.708 21.36C105.14 21.072 105.46 20.704 105.668 20.256H108.788C108.564 21.008 108.188 21.696 107.66 22.32C107.148 22.928 106.508 23.408 105.74 23.76C104.988 24.112 104.132 24.288 103.172 24.288ZM103.196 14.304C102.444 14.304 101.78 14.52 101.204 14.952C100.628 15.368 100.26 16.008 100.1 16.872H106.028C105.98 16.088 105.692 15.464 105.164 15C104.636 14.536 103.98 14.304 103.196 14.304ZM116.825 24C115.577 24 114.577 23.696 113.825 23.088C113.073 22.48 112.697 21.4 112.697 19.848V14.664H110.657V12.096H112.697L113.057 8.904H115.769V12.096H118.985V14.664H115.769V19.872C115.769 20.448 115.889 20.848 116.129 21.072C116.385 21.28 116.817 21.384 117.425 21.384H118.913V24H116.825Z" fill="white"/>
<path d="M16.9597 2.09141C19.1473 2.09141 21.3349 2.097 23.522 2.08694C23.9895 2.0847 24.3153 2.25081 24.5526 2.67365C25.7354 4.7828 26.9325 6.88355 28.1257 8.98655C29.1454 10.7836 30.1699 12.5779 31.1802 14.3799C31.2566 14.5159 31.3038 14.739 31.2445 14.8615C31.1978 14.9572 30.966 14.9941 30.8155 14.9969C30.0743 15.0092 29.3321 14.9834 28.5916 15.0075C28.095 15.0237 27.762 14.8296 27.5176 14.3934C26.4622 12.5096 25.3953 10.6326 24.3317 8.75388C23.784 7.78628 23.2346 6.82035 22.6853 5.85387C22.4666 5.46851 22.132 5.31526 21.7019 5.31526C18.5353 5.31861 15.3682 5.30631 12.2016 5.32532C11.6291 5.32868 11.2517 5.13852 10.9863 4.61836C10.6578 3.97516 10.2733 3.3616 9.9299 2.72567C9.85848 2.59367 9.78431 2.36827 9.8442 2.28046C9.92166 2.16748 10.1326 2.10204 10.2875 2.09924C11.1748 2.08302 12.0631 2.09141 12.9509 2.09141C14.287 2.09141 15.6231 2.09141 16.9597 2.09141Z" fill="#3772FF"/>
<path d="M27.5947 17.4948C27.7952 17.1447 28.1105 16.9763 28.5061 16.9741C29.284 16.9707 30.0625 16.9691 30.8409 16.973C31.2903 16.9752 31.42 17.204 31.1997 17.5949C30.7267 18.4344 30.246 19.27 29.7812 20.114L27.0091 24.9962C26.191 26.4381 25.367 27.8767 24.5577 29.3236C24.3363 29.7201 24.0408 29.9131 23.5848 29.9125C19.1354 29.9064 14.686 29.9103 10.2366 29.9109C9.81416 29.9109 9.68726 29.6922 9.89437 29.3264C10.2872 28.6328 10.68 27.9393 11.07 27.2441C11.2843 26.8621 11.5936 26.6814 12.0358 26.682C15.2217 26.6898 18.408 26.6809 21.5939 26.692C22.1454 26.6937 22.5223 26.4968 22.7899 25.9884C23.2695 25.0784 23.7721 24.1791 24.3138 23.3066L27.5947 17.4948Z" fill="#3772FF"/>
<path d="M2.12114 18.7704C1.69702 18.0316 1.28609 17.2844 0.855926 16.5494C0.635077 16.1719 0.647163 15.8195 0.860321 15.4454C1.90688 13.6108 2.94575 11.7718 3.98956 9.93506C5.18006 7.8399 6.3711 5.74529 7.5638 3.6518C7.75553 3.31454 8.00989 3.31566 8.20272 3.65292C8.61145 4.36883 9.01799 5.08587 9.42343 5.80402C9.61791 6.14911 9.61297 6.49644 9.41849 6.83985C8.49554 8.468 7.57094 10.0956 6.64799 11.7232C5.94424 12.9643 5.24269 14.2065 4.53784 15.4465C4.31534 15.8385 4.32908 16.2083 4.55817 16.6026L8.49609 23.5307C8.78835 24.0464 9.07238 24.5677 9.37509 25.0772C9.6234 25.4961 9.61956 25.8899 9.36849 26.3099C8.96965 26.9783 8.59772 27.6629 8.20931 28.3374C7.9989 28.7037 7.76981 28.7132 7.5638 28.3536C6.80786 27.0348 6.06016 25.7114 5.30916 24.3904L2.12114 18.7704Z" fill="#3772FF"/>
<path d="M6.6393 16.5068C6.44098 16.159 6.44317 15.8374 6.64589 15.4833C7.92429 13.2472 9.19225 11.0049 10.463 8.76435C10.6816 8.37955 10.8574 8.37564 11.0805 8.75541L14.9415 15.5465C15.1244 15.8648 15.1046 16.1662 14.9316 16.4705C13.6559 18.7195 12.3808 20.969 11.0969 23.2129C11.0233 23.3421 10.8744 23.5077 10.7596 23.5088C10.6415 23.5099 10.5728 23.3735 10.463 23.176L6.6393 16.5068Z" fill="#3772FF"/>
<path d="M21.5206 24.3966C21.3541 24.6841 21.0816 24.8077 20.7558 24.8077C18.1925 24.8083 15.6291 24.8094 13.0651 24.8072C12.6762 24.8066 12.5641 24.6114 12.7553 24.2747C14.0397 22.0089 15.3291 19.746 16.6119 17.4791C16.8108 17.1279 17.0921 16.9701 17.4871 16.9707C19.9955 16.9752 22.5045 16.9724 25.0129 16.9741C25.1036 16.9741 25.1975 16.9774 25.2849 16.9998C25.5019 17.0552 25.5892 17.228 25.4794 17.4243C25.0316 18.2241 22.0254 23.5258 21.5206 24.3966Z" fill="#3772FF"/>
<path d="M12.7078 7.65125C12.5914 7.41187 12.6837 7.25079 12.9452 7.22897C12.9908 7.22506 13.0369 7.22674 13.0825 7.22674C15.6272 7.22674 18.1714 7.23345 20.7161 7.2217C21.1319 7.21947 21.3978 7.37384 21.6028 7.7385C22.8383 9.93546 24.0887 12.1235 25.3248 14.3199C25.4165 14.4832 25.5181 14.7147 25.4704 14.8685C25.3945 15.1135 25.1231 14.9972 24.9336 14.9972C22.4076 15.0028 19.881 15.0011 17.355 15.0056C17.0287 15.0061 16.7996 14.8663 16.6386 14.5822C16.0991 13.6302 12.8556 7.95495 12.7078 7.65125Z" fill="#3772FF"/>
</svg>
