<svg width="16" height="16" viewBox="0 0 16 16" fill="none" xmlns="http://www.w3.org/2000/svg">
<path d="M10.7507 14.25C10.7507 14.4489 10.6717 14.6397 10.5311 14.7803C10.3904 14.921 10.1996 15 10.0007 15H6.00073C5.80182 15 5.61105 14.921 5.4704 14.7803C5.32975 14.6397 5.25073 14.4489 5.25073 14.25C5.25073 14.0511 5.32975 13.8603 5.4704 13.7197C5.61105 13.579 5.80182 13.5 6.00073 13.5H10.0007C10.1996 13.5 10.3904 13.579 10.5311 13.7197C10.6717 13.8603 10.7507 14.0511 10.7507 14.25ZM14.0207 11.8745C13.9124 12.0655 13.755 12.2241 13.5649 12.3341C13.3749 12.444 13.1589 12.5013 12.9393 12.5H3.06217C2.84256 12.5013 2.62658 12.444 2.43648 12.3341C2.24638 12.2241 2.08904 12.0654 1.98067 11.8744C1.87124 11.6835 1.81392 11.4671 1.81446 11.247C1.81499 11.0269 1.87337 10.8108 1.98373 10.6204C2.33936 10.0085 2.76342 8.84037 2.76342 6.75V6.5C2.76176 5.10932 3.31259 3.77494 4.29475 2.79039C5.2769 1.80583 6.60993 1.25174 8.00061 1.25L8.04061 1.25013C10.9067 1.27144 13.2385 3.65188 13.2385 6.5565V6.75C13.2385 8.8405 13.6623 10.0087 14.0178 10.6206C14.1281 10.811 14.1865 11.0271 14.187 11.2472C14.1875 11.4672 14.1302 11.6836 14.0207 11.8745ZM12.5237 11C11.8807 9.65312 11.7385 7.97206 11.7385 6.75V6.5565C11.7385 4.47287 10.0747 2.76525 8.02948 2.75012C8.01996 2.75005 8.01044 2.75001 8.00092 2.75C7.50928 2.75082 7.02262 2.84847 6.56872 3.03737C6.11482 3.22627 5.70258 3.50272 5.35552 3.85094C5.00846 4.19916 4.73338 4.61233 4.546 5.06685C4.35862 5.52138 4.2626 6.00836 4.26342 6.5V6.75C4.26342 7.97206 4.12117 9.65319 3.47779 11H12.5237Z" fill="#23262F"/>
</svg>
