<svg width="113" height="27" viewBox="0 0 113 27" fill="none" xmlns="http://www.w3.org/2000/svg">
<path fill-rule="evenodd" clip-rule="evenodd" d="M11.6466 0.923828V4.64629C9.2608 4.64629 6.97271 5.60138 5.28569 7.30146C3.59867 9.00153 2.65091 11.3073 2.65091 13.7116C2.65091 16.1159 3.59867 18.4216 5.28569 20.1217C6.97271 21.8218 9.2608 22.7769 11.6466 22.7769V26.4994H0V0.923828H11.6466ZM29.7871 6.92383H27.1797V19.5802H29.7871V6.92383ZM32.0174 12.6864C31.5148 13.4431 31.2465 14.3332 31.2465 15.2438C31.2384 15.8477 31.35 16.4472 31.5748 17.007C31.7996 17.5669 32.1331 18.0759 32.5556 18.5042C32.9782 18.9325 33.4814 19.2714 34.0357 19.5012C34.5899 19.7309 35.1842 19.8468 35.7835 19.8421C36.687 19.8473 37.5718 19.5821 38.3256 19.08C39.0794 18.5779 39.6683 17.8615 40.0177 17.0218C40.3671 16.182 40.4612 15.2566 40.2881 14.3629C40.115 13.4692 39.6824 12.6474 39.0453 12.0017C38.4082 11.3559 37.5952 10.9154 36.7094 10.7358C35.8235 10.5562 34.9047 10.6458 34.0694 10.993C33.2341 11.3403 32.5199 11.9296 32.0174 12.6864ZM37.4235 14.149C37.6474 14.4704 37.7723 14.8512 37.7825 15.2438H37.7651C37.7795 15.5108 37.7391 15.778 37.6464 16.0285C37.5537 16.2791 37.4107 16.5077 37.2263 16.7001C37.042 16.8924 36.8203 17.0444 36.575 17.1465C36.3297 17.2485 36.0662 17.2985 35.8008 17.2933C35.4112 17.2932 35.0302 17.1773 34.7055 16.9601C34.3809 16.7429 34.1269 16.434 33.9756 16.0722C33.8242 15.7103 33.782 15.3115 33.8543 14.9257C33.9266 14.5398 34.1103 14.184 34.3822 13.9027C34.6542 13.6214 35.0024 13.4272 35.3833 13.3443C35.7642 13.2614 36.1609 13.2936 36.5238 13.4367C36.8867 13.5798 37.1996 13.8276 37.4235 14.149ZM50.6351 10.909V19.151C50.6351 22.0589 48.3753 23.2939 46.0894 23.2939C45.2831 23.3606 44.4744 23.1991 43.7542 22.8278C43.0341 22.4564 42.4311 21.8898 42.0131 21.1918L44.212 19.913C44.3902 20.2751 44.6737 20.5738 45.0246 20.7694C45.3755 20.965 45.7773 21.0482 46.1763 21.0079C46.4305 21.0394 46.6885 21.014 46.9318 20.9334C47.1751 20.8528 47.3977 20.719 47.5838 20.5415C47.7698 20.3641 47.9146 20.1475 48.0079 19.9071C48.1011 19.6667 48.1405 19.4085 48.1232 19.151V18.354C47.8198 18.7247 47.4348 19.0191 46.9988 19.2137C46.5627 19.4083 46.0877 19.4978 45.6114 19.4751C44.4588 19.4751 43.3535 19.0137 42.5385 18.1924C41.7235 17.3711 41.2656 16.2572 41.2656 15.0957C41.2656 13.9342 41.7235 12.8203 42.5385 11.999C43.3535 11.1777 44.4588 10.7163 45.6114 10.7163C46.0877 10.6936 46.5627 10.7831 46.9988 10.9778C47.4348 11.1724 47.8198 11.4667 48.1232 11.8375V10.9616L50.6351 10.909ZM48.1232 15.0694C48.1406 14.6504 48.0331 14.2357 47.8147 13.8787C47.5963 13.5217 47.2769 13.2387 46.8976 13.066C46.5183 12.8934 46.0964 12.8391 45.6862 12.91C45.276 12.981 44.8963 13.174 44.5958 13.4642C44.2953 13.7543 44.0878 14.1285 44 14.5385C43.9123 14.9484 43.9482 15.3755 44.1032 15.7647C44.2582 16.154 44.5252 16.4876 44.8698 16.7227C45.2145 16.9578 45.6211 17.0836 46.0373 17.0839C46.3088 17.1037 46.5815 17.0658 46.8376 16.9727C47.0937 16.8796 47.3276 16.7334 47.5242 16.5436C47.7208 16.3537 47.8757 16.1244 47.9789 15.8705C48.082 15.6166 48.1312 15.3437 48.1232 15.0694ZM52.8754 12.6882C52.3736 13.4446 52.1058 14.334 52.1058 15.2438C52.0988 15.8489 52.2118 16.4493 52.4381 17.0098C52.6644 17.5703 52.9994 18.0796 53.4236 18.5079C53.8478 18.9362 54.3526 19.2748 54.9084 19.5039C55.4641 19.7331 56.0597 19.8481 56.6601 19.8422C57.563 19.8439 58.446 19.5757 59.1976 19.0715C59.9491 18.5673 60.5353 17.8497 60.882 17.0096C61.2287 16.1695 61.3203 15.2447 61.1452 14.3521C60.9701 13.4596 60.5362 12.6394 59.8984 11.9954C59.2606 11.3515 58.4476 10.9126 57.5622 10.7345C56.6768 10.5564 55.7589 10.6469 54.9246 10.9947C54.0903 11.3425 53.3772 11.9319 52.8754 12.6882ZM58.2821 14.1482C58.5064 14.4698 58.6315 14.8509 58.6418 15.2438H58.6331C58.6475 15.5109 58.6071 15.778 58.5144 16.0286C58.4217 16.2792 58.2787 16.5078 58.0943 16.7001C57.91 16.8925 57.6882 17.0444 57.4429 17.1465C57.1977 17.2486 56.9341 17.2986 56.6688 17.2934C56.2788 17.295 55.8969 17.1805 55.5711 16.9644C55.2453 16.7482 54.9901 16.44 54.8374 16.0783C54.6846 15.7166 54.6412 15.3176 54.7126 14.9311C54.7839 14.5447 54.9669 14.1881 55.2384 13.9059C55.51 13.6238 55.8582 13.4287 56.2393 13.3451C56.6205 13.2615 57.0176 13.2931 57.381 13.436C57.7444 13.5788 58.0578 13.8266 58.2821 14.1482ZM62.4219 8.58738C62.4219 8.27903 62.5126 7.9776 62.6826 7.72121C62.8526 7.46483 63.0942 7.265 63.3769 7.147C63.6596 7.029 63.9707 6.99812 64.2708 7.05828C64.5709 7.11843 64.8465 7.26692 65.0629 7.48496C65.2793 7.703 65.4266 7.98079 65.4863 8.28322C65.546 8.58565 65.5154 8.89912 65.3983 9.184C65.2812 9.46888 65.0829 9.71238 64.8285 9.88369C64.5741 10.055 64.2749 10.1464 63.969 10.1464C63.56 10.1419 63.1692 9.97616 62.88 9.68476C62.5908 9.39336 62.4264 8.99945 62.4219 8.58738ZM62.6739 10.9084H65.2814V19.5796H62.6739V10.9084ZM76.1949 16.9413C76.3878 16.3976 76.472 15.8208 76.4428 15.2441C76.4685 14.6696 76.3816 14.0956 76.1872 13.5548C75.9927 13.0141 75.6945 12.5173 75.3095 12.0928C74.9245 11.6682 74.4603 11.3242 73.9434 11.0805C73.4265 10.8367 72.8671 10.6979 72.2969 10.672C71.8118 10.6377 71.3252 10.7145 70.8737 10.8965C70.4221 11.0785 70.0173 11.3611 69.6895 11.7231V10.9085H67.082V23.0657H69.6895V18.7826C70.0169 19.1457 70.4214 19.4296 70.8729 19.6131C71.3244 19.7966 71.8112 19.875 72.2969 19.8424C72.8694 19.8166 73.4311 19.677 73.9497 19.4316C74.4684 19.1861 74.9338 18.8398 75.3191 18.4124C75.7044 17.985 76.0021 17.4851 76.1949 16.9413ZM73.4639 14.1095C73.6959 14.4426 73.8251 14.8373 73.8353 15.2441C73.8552 15.5224 73.8164 15.8017 73.7216 16.0638C73.6269 16.3259 73.4781 16.5649 73.2853 16.765C73.0924 16.9652 72.8598 17.122 72.6026 17.2251C72.3454 17.3283 72.0694 17.3755 71.7928 17.3637C71.389 17.3653 70.9937 17.2467 70.6565 17.0229C70.3193 16.7991 70.0551 16.4799 69.8971 16.1054C69.7391 15.7309 69.6943 15.3178 69.7684 14.9177C69.8424 14.5177 70.0319 14.1486 70.3133 13.8566C70.5946 13.5647 70.9551 13.3629 71.3498 13.2766C71.7444 13.1903 72.1555 13.2233 72.5316 13.3715C72.9077 13.5196 73.232 13.7764 73.4639 14.1095ZM84.3772 16.979C84.3772 18.976 82.6389 19.8256 80.7963 19.8256C80.0448 19.8938 79.2903 19.7333 78.6302 19.3648C77.9702 18.9963 77.435 18.4368 77.0938 17.7586L79.3362 16.4798C79.425 16.7923 79.6176 17.0646 79.8818 17.2512C80.146 17.4377 80.4658 17.5272 80.7876 17.5046C81.4047 17.5046 81.7176 17.3119 81.7176 16.9615C81.7176 16.6174 81.1675 16.4633 80.464 16.2662C79.2159 15.9166 77.4849 15.4318 77.4849 13.5106C77.4849 11.6187 79.0667 10.6728 80.8572 10.6728C81.5378 10.642 82.2139 10.7976 82.8138 11.123C83.4136 11.4484 83.9149 11.9315 84.2642 12.5208L82.0218 13.712C81.9228 13.4861 81.7609 13.2939 81.5558 13.1586C81.3506 13.0234 81.111 12.951 80.8659 12.95C80.4139 12.95 80.1445 13.1252 80.1445 13.4318C80.1445 13.7894 80.6875 13.9347 81.3846 14.1211C82.6337 14.4552 84.3772 14.9216 84.3772 16.979ZM93.826 19.5794V10.9082H91.2533V15.6817C91.2533 16.8729 90.5927 17.4335 89.654 17.4335C89.4481 17.4459 89.2419 17.4131 89.0498 17.3374C88.8576 17.2617 88.684 17.1449 88.5411 16.995C88.3981 16.8451 88.2891 16.6657 88.2217 16.4692C88.1542 16.2727 88.1299 16.0638 88.1504 15.8569V10.9082H85.543V16.251C85.543 18.5896 87.0292 19.8421 88.7675 19.8421C89.2312 19.8687 89.6947 19.785 90.1204 19.5978C90.5462 19.4107 90.9223 19.1254 91.2185 18.7648V19.5794H93.826ZM108.598 14.2543V19.5796H105.991V14.4821C105.991 13.6062 105.582 13.0631 104.757 13.0631C103.931 13.0631 103.41 13.6675 103.41 14.6923V19.5796H100.802V14.4821C100.802 13.6062 100.394 13.0631 99.5679 13.0631C98.7422 13.0631 98.2207 13.6675 98.2207 14.6923V19.5796H95.6133V10.9085H98.2207V11.7055C98.4907 11.3534 98.8434 11.0745 99.247 10.8941C99.6506 10.7137 100.092 10.6373 100.533 10.672C100.974 10.6488 101.413 10.7416 101.808 10.9412C102.202 11.1408 102.539 11.4405 102.784 11.8106C103.07 11.4239 103.449 11.1166 103.885 10.9175C104.322 10.7184 104.801 10.6339 105.278 10.672C107.312 10.672 108.598 12.0909 108.598 14.2543ZM11.6484 4.64648V22.7771C14.0342 22.7771 16.3223 21.822 18.0094 20.1219C19.6964 18.4218 20.6441 16.1161 20.6441 13.7118C20.6441 11.3075 19.6964 9.00172 18.0094 7.30165C16.3223 5.60158 14.0342 4.64648 11.6484 4.64648ZM112.703 8.92986C112.703 9.99407 111.847 10.8568 110.791 10.8568C109.735 10.8568 108.879 9.99407 108.879 8.92986C108.879 7.86564 109.735 7.00293 110.791 7.00293C111.847 7.00293 112.703 7.86564 112.703 8.92986Z" fill="#C9C9C9"/>
</svg>
