<svg width="20" height="24" viewBox="0 0 20 24" fill="none" xmlns="http://www.w3.org/2000/svg">
<path d="M17 8.00002V7.00003C17 3.141 13.86 0 9.99999 0C6.13997 0 3 3.141 3 6.99998V7.99997C1.34602 7.99997 0 9.34598 0 11V21C0 22.654 1.34602 24 3 24H17C18.654 24 20 22.654 20 21V11C20 9.34598 18.654 8.00002 17 8.00002ZM4.99997 6.99998C4.99997 4.24298 7.24299 1.99997 9.99999 1.99997C12.757 1.99997 15 4.24298 15 6.99998V7.99997H4.99997V6.99998ZM18 21C18 21.552 17.551 22 17 22H3C2.44899 22 2.00002 21.552 2.00002 21V11C2.00002 10.448 2.44903 10 3 10H17C17.551 10 18 10.448 18 11V21Z" fill="#3772FF"/>
<path d="M10 11.5C8.34602 11.5 7 12.846 7 14.5C7 15.802 7.83902 16.902 9.00002 17.316V19C9.00002 19.553 9.448 20 10 20C10.552 20 11 19.553 11 19V17.316C12.161 16.902 13 15.802 13 14.5C13 12.846 11.654 11.5 10 11.5ZM10 15.5C9.44898 15.5 9.00002 15.052 9.00002 14.5C9.00002 13.948 9.44898 13.5 10 13.5C10.551 13.5 11 13.948 11 14.5C11 15.052 10.551 15.5 10 15.5Z" fill="#3772FF"/>
</svg>
