<svg width="608" height="28" viewBox="0 0 608 28" fill="none" xmlns="http://www.w3.org/2000/svg">
<path d="M18.302 15.5941C18.2573 15.6472 18.2145 15.7023 18.1671 15.7522L18.1662 15.7626L13.706 20.7519L13.6986 20.7498C13.4026 21.0831 13.0504 21.3474 12.6626 21.5278C12.2748 21.7081 11.8588 21.8007 11.4387 21.8003H7.04831C6.96128 21.8001 6.87507 21.8192 6.79463 21.8563C6.71419 21.8934 6.64108 21.948 6.5795 22.0168C6.51791 22.0855 6.46906 22.1673 6.43573 22.2572C6.40239 22.347 6.38524 22.4434 6.38524 22.5408V26.9257L6.37128 26.9267C6.3475 27.0882 6.2844 27.2392 6.18892 27.3631C6.09343 27.4871 5.96925 27.5792 5.83001 27.6294C5.69077 27.6796 5.54186 27.6859 5.39963 27.6476C5.2574 27.6094 5.12734 27.528 5.02374 27.4125L5.02096 27.4145L0.975552 22.8924L0.979269 22.8851C0.669515 22.5529 0.423072 22.154 0.254778 21.7126C0.0864824 21.271 -0.000182335 20.796 2.88022e-07 20.316V9.00114C2.88022e-07 8.04217 0.339443 7.1737 0.889989 6.53198L0.88813 6.52574L5.47479 1.3961L5.47665 1.39714C6.07189 0.743861 6.87275 0.378197 7.70673 0.378907H11.4387C11.9149 0.378907 12.365 0.498516 12.7696 0.70757V0.699249C13.1155 0.879183 13.4298 1.12152 13.6939 1.41898L13.6995 1.41586L19.1436 7.50445L19.1445 14.6466H25.5149V25.7442C25.5167 25.7505 25.5167 25.7577 25.5167 25.765V26.0156C25.4888 26.4661 25.309 26.8879 25.0139 27.1959C24.7188 27.504 24.3302 27.6754 23.9265 27.6756H20.7339C20.5133 27.6754 20.2953 27.6242 20.0933 27.525C19.8914 27.4258 19.71 27.2809 19.5607 27.0995C19.4114 26.918 19.2973 26.7038 19.2257 26.4706C19.1541 26.2374 19.1264 25.99 19.1445 25.7442V14.6466L18.302 15.5941ZM12.1065 14.6549C12.1935 14.6551 12.2797 14.636 12.3601 14.5989C12.4406 14.5617 12.5137 14.5072 12.5753 14.4384C12.6369 14.3697 12.6857 14.288 12.719 14.198C12.7524 14.1082 12.7696 14.0118 12.7696 13.9144V8.26267C12.7696 8.16533 12.7524 8.06895 12.719 7.97903C12.6857 7.88912 12.6369 7.80744 12.5753 7.73866C12.5137 7.66988 12.4406 7.61536 12.3601 7.5782C12.2797 7.54105 12.1935 7.522 12.1065 7.52213V7.52109H7.04738C6.87168 7.52109 6.70317 7.59907 6.57884 7.73792C6.45452 7.87677 6.38455 8.06512 6.3843 8.26162V13.9123C6.3843 14.3222 6.68097 14.6529 7.04738 14.6529H12.1046L12.1065 14.6549Z" fill="#B1B5C3"/>
<path d="M19.1484 14.6543H25.5188L19.1484 7.51416V14.6543Z" fill="#B1B5C3"/>
<path d="M34.5469 6.32808H40.442C42.8507 6.32808 44.9877 6.32808 46.2749 8.39471C46.8356 9.32349 47.1053 10.6464 47.1053 11.7604C47.1053 12.6652 46.9388 13.5483 46.6069 14.3138C45.3412 17.2395 42.6423 17.3092 40.6494 17.3549H38.2212V22.7176H34.5469V6.32808ZM38.2231 9.34639V14.3138H40.4253C41.797 14.3138 43.4588 14.268 43.4588 11.7375C43.4588 9.34538 41.6091 9.34538 40.5499 9.34538L38.2231 9.34639ZM51.5078 11.8509C52.2137 11.1769 52.9818 10.6434 54.6419 10.4571V13.6149L53.5835 13.8C52.0481 14.1016 51.5906 14.3575 51.5906 15.8895V22.7144H48.3943V10.5736H51.5078V11.8509ZM67.1166 16.63C67.1166 19.6951 65.5393 23.0608 61.3042 23.0608C58.253 23.0608 55.4714 21.1106 55.4714 16.63C55.4714 12.9159 57.5676 9.96732 61.7199 10.2231C66.141 10.5019 67.1166 14.4251 67.1166 16.63ZM59.2285 14.241C58.8342 14.9378 58.6891 15.7751 58.6891 16.6123C58.6891 18.5417 59.5187 20.2391 61.3042 20.2391C63.0274 20.2391 63.8784 18.681 63.8784 16.7756C63.8784 15.4266 63.5873 14.3804 62.9856 13.7292C62.3216 13.0324 61.5739 13.0085 61.1173 13.0553C60.204 13.1249 59.6646 13.4734 59.2295 14.241H59.2285ZM69.7122 9.38593C69.7122 8.78266 69.7531 7.96932 70.1679 7.31927C70.5631 6.71603 71.455 6.08887 72.9503 6.08887C73.5939 6.08887 74.2375 6.20536 74.8596 6.29688V8.9678H74.0914C72.888 8.9678 72.8257 9.24653 72.8462 10.8711H74.9842V13.0532H72.8666V22.7113H69.6908V13.0532H67.9889V10.8711H69.7122V9.38593Z" fill="#B1B5C3"/>
<path d="M76.5859 9.06955H79.7397V6.30713H76.5859V9.06955ZM76.5859 22.7205H79.7397V10.5787H76.5859V22.7205Z" fill="#B1B5C3"/>
<path d="M82.9992 7.0874H86.175V10.8712H88.2719V13.0532H86.1545V18.5095C86.134 19.2521 86.134 19.8792 86.9852 19.8792L88.1263 19.8325V22.6178C87.4419 22.7343 87.0262 22.8039 86.4458 22.8039C85.3442 22.8039 84.141 22.7343 83.4559 21.6193C83.0204 20.9006 82.9999 20.0415 82.9999 18.8808V13.0304H81.4219V10.8483H82.9992V7.0874Z" fill="#B1B5C3"/>
<path d="M100.263 6.32861C100.7 8.09257 101.135 9.85755 101.612 11.6226C102.423 14.7792 102.568 15.2899 103.024 18.4704C103.46 15.2202 103.564 14.6638 104.227 11.3199C104.539 9.64856 104.871 7.97713 105.183 6.32861H108.815L105.1 22.7181H101.322C100.866 20.9084 100.429 19.0965 99.9516 17.3097C99.1626 14.2914 99.1209 14.1749 98.6847 11.8774C98.3121 13.8972 98.2704 14.0595 97.4397 17.1932L96.0278 22.7181H92.2504L88.5352 6.32861H92.1889C93.7662 14.1052 93.9331 14.9643 94.3678 18.5162C94.9072 15.267 95.0537 14.6399 95.8214 11.3896L97.0247 6.32861H100.263Z" fill="#B1B5C3"/>
<path d="M119.545 19.6331C119.171 20.2603 118.797 20.8635 118.237 21.4439C117.302 22.4195 115.89 23.1621 114.148 23.1621C110.93 23.1621 108.668 20.8635 108.668 16.8936C108.668 13.9689 109.955 10.208 114.231 10.208C114.875 10.208 116.742 10.2777 118.133 11.9491C119.545 13.6444 119.628 16.0116 119.669 17.3814H111.927C111.906 18.8895 112.674 20.3997 114.397 20.3997C116.14 20.3997 116.742 19.1224 117.137 18.2634L119.545 19.6331ZM116.368 15.1421C116.306 14.6335 116.224 13.9637 115.766 13.4322C115.372 12.9922 114.771 12.7614 114.21 12.7614C113.442 12.7614 112.903 13.1774 112.591 13.5476C112.154 14.0791 112.052 14.6335 111.948 15.1421H116.368Z" fill="#B1B5C3"/>
<path d="M121.52 22.7181H124.716V6.32861H121.52V22.7181Z" fill="#B1B5C3"/>
<path d="M127.574 22.7181H130.77V6.32861H127.574V22.7181Z" fill="#B1B5C3"/>
<g clip-path="url(#clip0_2680_54997)">
<path d="M216.25 7.00154C216.25 7.00105 216.25 7.00014 216.249 6.99921C216.248 6.99759 216.247 6.99551 216.245 6.9939C216.217 6.94589 216.186 6.89949 216.153 6.85425C216.145 6.84248 216.136 6.8314 216.127 6.81962C216.101 6.7857 216.074 6.75269 216.046 6.7206C216.03 6.70237 216.013 6.68459 215.997 6.66705C215.974 6.64351 215.95 6.62019 215.926 6.59735C215.904 6.57657 215.881 6.55603 215.858 6.53664C215.837 6.51886 215.816 6.50155 215.794 6.48447C215.768 6.4637 215.74 6.44407 215.713 6.42468C215.692 6.41038 215.671 6.3963 215.65 6.38245C215.621 6.36398 215.591 6.34644 215.561 6.32959C215.539 6.31735 215.517 6.30558 215.495 6.29427C215.464 6.27834 215.432 6.26311 215.399 6.24926C215.377 6.23957 215.355 6.22987 215.333 6.22087C215.298 6.20725 215.262 6.19502 215.227 6.18325C215.207 6.17679 215.187 6.17009 215.166 6.16432C215.125 6.15231 215.083 6.1417 215.041 6.13269C215.026 6.1297 215.011 6.126 214.996 6.12323C214.944 6.11307 214.891 6.10546 214.839 6.09969C214.833 6.09923 214.828 6.0983 214.823 6.09784C214.447 6.06022 214.056 6.13177 213.703 6.33098L203.874 11.8908L196.844 7.91441L203.88 3.93456L208.57 6.58603C209.462 7.08946 210.602 6.79077 211.117 5.91757C211.631 5.04413 211.326 3.92694 210.434 3.42283L204.812 0.244615C204.236 -0.0815385 203.525 -0.0815385 202.948 0.244615L192.229 6.30766C191.936 6.463 191.679 6.69544 191.5 6.99921C190.985 7.8729 191.291 8.98961 192.182 9.49347L202.943 15.5807C202.944 15.5817 202.946 15.5819 202.947 15.5828C203.003 15.6145 203.062 15.6415 203.121 15.6668C203.138 15.6741 203.153 15.6832 203.17 15.6897C203.205 15.704 203.242 15.7139 203.279 15.7257C203.474 15.7901 203.673 15.8257 203.873 15.8257C203.873 15.8257 203.874 15.8257 203.874 15.8257C203.875 15.8257 203.875 15.8257 203.876 15.8257C204.08 15.8257 204.284 15.789 204.483 15.7216C204.514 15.7107 204.547 15.7026 204.578 15.6899C204.597 15.6826 204.615 15.6719 204.634 15.6638C204.691 15.6392 204.747 15.6133 204.801 15.5828C204.803 15.5819 204.805 15.5817 204.806 15.5807L212.774 11.0741V19.0336L203.877 24.0659L194.98 19.0336V14.001C194.98 12.9926 194.146 12.1752 193.117 12.1752C192.087 12.1752 191.253 12.9926 191.253 14.001V20.0878C191.253 20.7402 191.608 21.3426 192.185 21.6687L202.945 27.7558C203.233 27.9185 203.555 28 203.877 28C204.199 28 204.521 27.9185 204.809 27.7558L215.57 21.6687C216.147 21.3426 216.501 20.7402 216.501 20.0878V7.91441C216.501 7.58156 216.409 7.27041 216.25 7.00154Z" fill="#B1B5C3"/>
<path fill-rule="evenodd" clip-rule="evenodd" d="M226.166 17.2185C226.788 17.6216 227.42 17.9206 228.061 18.1156C228.703 18.3106 229.334 18.4081 229.956 18.4081C230.578 18.4081 231.08 18.2651 231.462 17.9791C231.845 17.6931 232.036 17.3226 232.036 16.8676C232.036 16.4905 231.883 16.1948 231.579 15.9803C231.274 15.7658 230.892 15.574 230.432 15.4051C229.972 15.2361 229.477 15.0638 228.946 14.8883C228.414 14.7128 227.919 14.4788 227.459 14.1863C226.999 13.8938 226.617 13.507 226.312 13.026C226.008 12.545 225.855 11.9145 225.855 11.1345C225.855 10.5365 225.979 9.99049 226.225 9.4965C226.471 9.00251 226.814 8.5767 227.255 8.21921C227.695 7.86172 228.223 7.58543 228.839 7.39048C229.454 7.19546 230.131 7.09795 230.87 7.09795C231.491 7.09795 232.11 7.15647 232.726 7.27344C233.341 7.39048 233.96 7.57248 234.581 7.81944V10.6665C233.998 10.3285 233.415 10.0783 232.832 9.91573C232.249 9.75326 231.673 9.67199 231.103 9.67199C230.507 9.67199 230.024 9.80198 229.655 10.062C229.286 10.322 229.101 10.6665 229.101 11.0955C229.101 11.4595 229.253 11.7455 229.558 11.9535C229.862 12.1615 230.241 12.3468 230.695 12.5093C231.148 12.6718 231.644 12.8407 232.181 13.0163C232.719 13.1918 233.215 13.429 233.668 13.7281C234.122 14.027 234.5 14.4203 234.805 14.9078C235.109 15.3953 235.262 16.0355 235.262 16.8286C235.262 17.4396 235.135 18.0018 234.883 18.5154C234.63 19.0289 234.28 19.4676 233.833 19.8316C233.386 20.1956 232.852 20.4784 232.23 20.6799C231.608 20.8814 230.928 20.9821 230.189 20.9821C228.829 20.9821 227.488 20.6896 226.166 20.1046V17.2185ZM236.206 6.72745H239.374V11.6805C240.216 11.0695 241.104 10.764 242.036 10.764C242.542 10.764 243.008 10.8518 243.436 11.0273C243.863 11.2027 244.233 11.4498 244.544 11.7683C244.855 12.0868 245.097 12.467 245.272 12.909C245.447 13.351 245.535 13.832 245.535 14.352V20.7482H242.367V14.937C242.367 14.534 242.241 14.2025 241.988 13.9425C241.735 13.6826 241.415 13.5525 241.026 13.5525C240.443 13.5525 239.892 13.8126 239.374 14.3325V20.7482H236.206V6.72745ZM246.829 10.998H249.997V20.7482H246.829V10.998ZM246.674 8.4045C246.674 7.88447 246.836 7.46524 247.159 7.14674C247.483 6.8282 247.904 6.66895 248.423 6.66895C248.915 6.66895 249.326 6.8282 249.657 7.14674C249.987 7.46524 250.152 7.88447 250.152 8.4045C250.152 8.89849 249.987 9.30799 249.657 9.633C249.326 9.95801 248.915 10.1205 248.423 10.1205C247.904 10.1205 247.483 9.95801 247.159 9.633C246.836 9.30799 246.674 8.89849 246.674 8.4045ZM257.996 15.8731C257.996 15.158 257.818 14.5828 257.462 14.1473C257.105 13.7118 256.642 13.4941 256.072 13.4941C255.502 13.4941 254.99 13.7216 254.537 14.1766V17.5696C254.99 18.0246 255.502 18.2521 256.072 18.2521C256.642 18.2521 257.105 18.0311 257.462 17.5891C257.818 17.1471 257.996 16.5751 257.996 15.8731ZM251.369 10.998H254.537V11.5245C255.275 11.0175 256.033 10.764 256.811 10.764C257.458 10.764 258.054 10.8908 258.598 11.1442C259.143 11.3978 259.609 11.7487 259.998 12.1972C260.386 12.6458 260.688 13.182 260.901 13.806C261.116 14.43 261.222 15.119 261.222 15.8731C261.222 16.627 261.116 17.3161 260.901 17.9401C260.688 18.5641 260.386 19.1004 259.998 19.5488C259.609 19.9973 259.143 20.3484 258.598 20.6019C258.054 20.8554 257.458 20.9821 256.811 20.9821C256.033 20.9821 255.275 20.7286 254.537 20.2216V25.0186H251.369V10.998ZM265.451 18.2521H267.53C268.023 18.2521 268.427 18.1059 268.745 17.8133C269.062 17.5208 269.221 17.1471 269.221 16.6921C269.221 16.2371 269.062 15.8633 268.745 15.5708C268.427 15.2783 268.023 15.1321 267.53 15.1321H265.451V18.2521ZM265.451 12.714H267.258C267.712 12.714 268.088 12.5775 268.386 12.3045C268.684 12.0315 268.833 11.687 268.833 11.271C268.833 10.842 268.684 10.4943 268.386 10.2277C268.088 9.96123 267.712 9.82802 267.258 9.82802H265.451V12.714ZM262.361 7.33196H267.861C268.457 7.33196 269.001 7.42296 269.493 7.60496C269.986 7.78696 270.413 8.0405 270.776 8.36544C271.138 8.69045 271.42 9.07398 271.621 9.51596C271.822 9.95801 271.923 10.439 271.923 10.959C271.923 11.622 271.767 12.2135 271.456 12.7335C271.145 13.2535 270.718 13.6371 270.174 13.884C270.873 14.1441 271.414 14.5503 271.796 15.1028C272.179 15.6553 272.37 16.2891 272.37 17.0041C272.37 17.5501 272.266 18.0539 272.059 18.5154C271.851 18.9769 271.563 19.3734 271.194 19.7049C270.825 20.0364 270.384 20.2931 269.872 20.4751C269.36 20.6572 268.8 20.7482 268.191 20.7482H262.361V7.33196ZM272.751 15.8731C272.751 15.119 272.88 14.43 273.139 13.806C273.398 13.182 273.761 12.6458 274.228 12.1972C274.694 11.7487 275.248 11.3978 275.889 11.1442C276.531 10.8908 277.234 10.764 277.998 10.764C278.762 10.764 279.465 10.8908 280.107 11.1442C280.748 11.3978 281.298 11.7487 281.759 12.1972C282.218 12.6458 282.578 13.182 282.837 13.806C283.096 14.43 283.226 15.119 283.226 15.8731C283.226 16.6141 283.096 17.2998 282.837 17.9303C282.578 18.5609 282.218 19.1004 281.759 19.5488C281.298 19.9973 280.748 20.3484 280.107 20.6019C279.465 20.8554 278.762 20.9821 277.998 20.9821C277.234 20.9821 276.531 20.8554 275.889 20.6019C275.248 20.3484 274.694 19.9973 274.228 19.5488C273.761 19.1004 273.398 18.5609 273.139 17.9303C272.88 17.2998 272.751 16.6141 272.751 15.8731ZM275.996 15.8731C275.996 16.6141 276.181 17.2088 276.55 17.6573C276.919 18.1059 277.402 18.3301 277.998 18.3301C278.581 18.3301 279.06 18.1059 279.436 17.6573C279.811 17.2088 280 16.6141 280 15.8731C280 15.1321 279.811 14.5373 279.436 14.0888C279.06 13.6403 278.581 13.416 277.998 13.416C277.402 13.416 276.919 13.6403 276.55 14.0888C276.181 14.5373 275.996 15.1321 275.996 15.8731ZM290.622 15.8731C290.622 15.158 290.444 14.5828 290.088 14.1473C289.732 13.7118 289.269 13.4941 288.699 13.4941C288.128 13.4941 287.617 13.7216 287.163 14.1766V17.5696C287.617 18.0246 288.128 18.2521 288.699 18.2521C289.269 18.2521 289.732 18.0311 290.088 17.5891C290.444 17.1471 290.622 16.5751 290.622 15.8731ZM283.995 6.72745H287.163V11.5245C287.901 11.0175 288.66 10.764 289.437 10.764C290.085 10.764 290.681 10.8908 291.225 11.1442C291.769 11.3978 292.236 11.7487 292.624 12.1972C293.013 12.6458 293.314 13.182 293.528 13.806C293.742 14.43 293.849 15.119 293.849 15.8731C293.849 16.627 293.742 17.3161 293.528 17.9401C293.314 18.5641 293.013 19.1004 292.624 19.5488C292.236 19.9973 291.769 20.3484 291.225 20.6019C290.681 20.8554 290.085 20.9821 289.437 20.9821C288.66 20.9821 287.901 20.7286 287.163 20.2216V20.7482H283.995V6.72745Z" fill="#B1B5C3"/>
</g>
<g clip-path="url(#clip1_2680_54997)">
<path fill-rule="evenodd" clip-rule="evenodd" d="M365.35 12.1493C365.149 11.9705 364.869 11.9107 364.612 11.9917L357.633 14.194L367.606 4.65437C367.913 4.35998 367.923 3.87206 367.629 3.56468C367.615 3.54996 367.601 3.53567 367.585 3.52225L363.862 0.195607C363.544 -0.0879627 363.057 -0.0598223 362.774 0.257949C362.741 0.294749 362.712 0.334146 362.687 0.37614L354.584 13.9845C354.438 14.2286 354.486 14.5421 354.699 14.7313L356.278 16.1444C356.472 16.3176 356.74 16.3804 356.991 16.3106L362.646 14.7347L356.138 24.961C355.824 25.455 356.475 25.9901 356.897 25.5849L367.77 15.1625C368.005 14.9352 368.012 14.5594 367.785 14.3235C367.775 14.3131 367.764 14.3031 367.754 14.2932L365.35 12.1493Z" fill="#B1B5C3"/>
<path fill-rule="evenodd" clip-rule="evenodd" d="M416.108 10.6909L415.028 9.72811C414.882 9.59728 414.657 9.60995 414.526 9.75646C414.497 9.78964 414.473 9.828 414.458 9.86993L412.238 15.8598C411.174 18.7293 409.913 19.7117 409.122 19.7117C408.87 19.7117 408.51 19.528 408.51 18.916C408.51 18.7079 408.547 18.2682 408.804 17.5733L410.92 11.8709C411.074 11.4547 410.958 10.9866 410.626 10.6913L409.546 9.72811C409.4 9.59728 409.175 9.60995 409.044 9.75646C409.015 9.78964 408.991 9.828 408.976 9.86993L406.756 15.8598C405.693 18.7293 404.431 19.7117 403.642 19.7117C403.388 19.7117 403.029 19.528 403.029 18.916C403.029 18.7079 403.066 18.2682 403.323 17.5733L407.942 5.10413C408.096 4.6884 407.98 4.22033 407.649 3.92457L406.569 2.96137C406.422 2.83051 406.198 2.84359 406.067 2.98973C406.037 3.02288 406.014 3.06171 405.998 3.10315L401.271 15.8598C400.934 16.7658 400.777 17.6871 400.777 18.2237C400.777 20.0384 402.002 21.0801 403.322 21.0801C404.311 21.0801 405.404 20.4471 406.393 19.1441C406.732 20.3799 407.732 21.0801 408.804 21.0801C409.401 21.0801 410.038 20.8467 410.666 20.3786L409.112 24.5708C407.504 23.8091 405.669 23.6783 403.969 24.2052C403.762 24.2685 403.805 24.5708 404.019 24.5917C406.231 24.7998 408.051 25.756 409.395 27.5528C409.636 27.873 410.091 27.9371 410.411 27.6959C410.522 27.6126 410.607 27.4996 410.655 27.3697L416.4 11.8726C416.555 11.4561 416.44 10.9871 416.108 10.6909Z" fill="#B1B5C3"/>
<path fill-rule="evenodd" clip-rule="evenodd" d="M392.933 19.7026C392.5 19.7026 392.177 19.2767 392.177 18.6424C392.177 18.4304 392.243 17.9254 392.502 17.2178C393.987 13.3448 396.007 11.2427 396.913 11.2427C397.511 11.2427 397.603 11.8655 397.603 12.6074C397.603 15.6305 394.906 19.7003 392.933 19.7003V19.7026ZM397.739 9.43539C396.671 9.43539 395.677 10.0492 394.788 10.9862L397.057 4.81652C397.213 4.39247 397.095 3.91551 396.761 3.61458L395.668 2.63267C395.52 2.49932 395.293 2.51222 395.161 2.66157C395.131 2.69535 395.107 2.73447 395.092 2.77714L390.318 15.7754C389.979 16.699 389.82 17.6374 389.82 18.1841C389.82 19.9443 391.053 21.0947 392.728 21.0947C396.682 21.0947 400.249 16.4075 400.249 12.6269C400.247 10.7755 399.355 9.43539 397.739 9.43539Z" fill="#B1B5C3"/>
<path fill-rule="evenodd" clip-rule="evenodd" d="M382.835 19.7026C382.401 19.7026 382.077 19.2767 382.077 18.6424C382.077 18.4304 382.144 17.9254 382.403 17.2178C383.89 13.3448 385.913 11.2427 386.82 11.2427C387.419 11.2427 387.511 11.8655 387.511 12.6074C387.51 15.6305 384.813 19.7003 382.834 19.7003L382.835 19.7026ZM384.693 10.9862L386.964 4.81652C387.12 4.39247 387.002 3.91551 386.668 3.61458L385.573 2.63267C385.425 2.49932 385.198 2.51222 385.065 2.66157C385.035 2.69535 385.012 2.73447 384.997 2.77714L380.216 15.7754C379.14 18.6988 377.866 19.7003 377.066 19.7003C376.81 19.7003 376.447 19.5136 376.447 18.8895C376.447 18.6775 376.484 18.2295 376.745 17.5214L378.881 11.7108C379.038 11.2872 378.92 10.8098 378.586 10.5084L377.493 9.52695C377.346 9.39402 377.118 9.4069 376.986 9.55586C376.956 9.59009 376.933 9.62873 376.917 9.67185L374.672 15.7754C373.597 18.6993 372.322 19.7003 371.523 19.7003C371.267 19.7003 370.903 19.5136 370.903 18.8895C370.903 18.6775 370.94 18.2295 371.2 17.5214L373.337 11.7108C373.493 11.2872 373.375 10.8103 373.04 10.5088L371.948 9.52737C371.8 9.39451 371.573 9.40739 371.441 9.55628C371.411 9.59009 371.387 9.62964 371.372 9.67227L369.128 15.7754C368.788 16.699 368.629 17.6374 368.629 18.1841C368.629 20.0337 369.867 21.0947 371.201 21.0947C372.202 21.0947 373.306 20.4497 374.306 19.1225C374.649 20.3818 375.66 21.0947 376.743 21.0947C377.747 21.0947 378.856 20.4462 379.856 19.1109C380.214 20.3319 381.269 21.0947 382.626 21.0947C386.585 21.0947 390.159 16.4075 390.159 12.6269C390.158 10.7755 389.265 9.43539 387.648 9.43539C386.577 9.43539 385.582 10.0492 384.693 10.9862Z" fill="#B1B5C3"/>
</g>
<g clip-path="url(#clip2_2680_54997)">
<path fill-rule="evenodd" clip-rule="evenodd" d="M492.67 0.192354C492.542 0.342069 492.535 0.538261 492.517 4.51219C492.505 7.03634 492.472 8.67561 492.432 8.67561C492.396 8.67561 492.309 8.61259 492.24 8.53572C492.097 8.37484 491.349 7.88234 490.807 7.59095C489.37 6.81869 486.912 6.41335 485.179 6.66317C483.924 6.84372 481.736 7.66961 481.231 8.15272C481.154 8.22691 480.87 8.4383 480.599 8.62287C480.129 8.94375 478.528 10.5888 478.528 10.7511C478.528 10.7931 478.349 11.1041 478.131 11.4424C477.479 12.4529 477.189 13.2158 476.791 14.9699C476.48 16.3433 476.615 18.5899 477.125 20.5187C477.319 21.2539 478.245 23.0889 478.472 23.1881C478.503 23.2015 478.528 23.2476 478.528 23.29C478.528 23.5515 479.797 24.9083 480.705 25.6166C483.158 27.5321 486.9 28.1037 489.735 26.9958C490.495 26.6991 491.868 25.9558 492.211 25.6551L492.466 25.4312L492.501 26.2839C492.533 27.0566 492.552 27.1545 492.706 27.3283L492.877 27.5205H494.437C495.868 27.5205 496.01 27.5089 496.162 27.3779L496.328 27.2358V14.6066C496.328 3.47804 496.316 1.9648 496.223 1.86961C496.165 1.81017 495.896 1.63766 495.626 1.48571C495.355 1.33376 495.071 1.15098 494.994 1.07902C494.093 0.242407 492.987 -0.179475 492.67 0.192354ZM551.669 0.171796C551.57 0.287993 551.553 0.505192 551.553 1.64481C551.553 3.16833 551.548 3.1518 552.13 3.54463C552.334 3.68228 552.561 3.85255 552.634 3.92316C552.707 3.99377 552.944 4.14796 553.161 4.2655C553.377 4.38303 553.77 4.63598 554.033 4.82726C554.662 5.28445 555.034 5.29786 555.242 4.87151C555.396 4.55509 555.393 0.573122 555.237 0.255368L555.13 0.0354881H553.458C551.927 0.0354881 551.776 0.0471079 551.669 0.171796ZM593.157 0.0859885C592.159 0.220062 590.473 0.757695 589.626 1.21176C589.405 1.33019 589.138 1.44996 589.032 1.47722C588.806 1.53666 587.465 2.48366 586.774 3.07269C585.869 3.84495 584.401 5.56422 584.064 6.24888C583.828 6.72618 583.486 7.33622 583.436 7.36929C583.347 7.42739 582.682 9.13012 582.518 9.7187C581.886 11.9877 581.887 11.9769 581.887 18.9049V24.9069L582.056 25.4021C582.149 25.6747 582.302 25.9862 582.394 26.0944C582.487 26.203 582.614 26.3786 582.676 26.4854C582.838 26.7616 583.52 27.2211 584.009 27.3828C584.583 27.5719 595.045 27.5929 596.281 27.407C598.26 27.1098 600.708 26.1011 602.073 25.0191C602.305 24.8354 602.559 24.6567 602.637 24.6218C602.715 24.5865 603.074 24.2607 603.435 23.8978C603.797 23.5345 604.12 23.2261 604.154 23.2123C604.189 23.1984 604.462 22.8646 604.76 22.4704C605.06 22.0762 605.371 21.6758 605.455 21.581C605.536 21.4863 605.721 21.1668 605.864 20.8709C606.008 20.5746 606.167 20.2823 606.219 20.2206C606.271 20.1585 606.467 19.7559 606.658 19.3255C608.078 16.0992 608.127 11.6923 606.779 8.41417C606.561 7.88189 606.339 7.39655 606.288 7.33488C606.236 7.27365 606.08 6.98316 605.942 6.68998C605.422 5.58746 603.653 3.50888 602.565 2.72365C602.372 2.58377 602.056 2.34602 601.863 2.19407C599.882 0.638818 596.013 -0.297908 593.157 0.0859885ZM595.825 5.21607C597.355 5.63885 598.581 6.95098 598.983 8.59695C599.169 9.3567 599.136 14.1154 598.941 14.8126C598.784 15.377 598.598 15.8065 598.402 16.063C597.503 17.242 596.924 17.6969 595.908 18.0218C593.848 18.6806 591.401 17.2791 590.748 15.0664C590.539 14.3585 590.423 9.80406 590.59 8.89191C591.084 6.20419 593.433 4.55509 595.825 5.21607ZM507.913 6.56306C506.406 6.69535 504.018 7.59364 503.196 8.3373C503.049 8.47048 502.82 8.63896 502.686 8.71136C502.217 8.96789 500.807 10.6063 500.41 11.3571C499.244 13.5635 498.891 14.8819 498.891 17.0324C498.891 26.0618 508.971 30.8821 515.319 24.8886C517.485 22.8431 517.572 22.3891 515.872 21.9819C515.396 21.868 514.713 21.6928 514.356 21.5936C513.391 21.3245 513.224 21.3419 512.781 21.7598C510.686 23.7343 507.723 23.9725 505.457 22.3488C504.354 21.5582 503.425 20.3583 503.14 19.3568L503.048 19.0292H510.617H518.186L518.412 18.8044L518.639 18.5796L518.6 17.0726C518.577 16.1931 518.518 15.3641 518.459 15.0816C518.403 14.8153 518.306 14.346 518.242 14.0385C518.113 13.4196 517.52 12.0458 517.133 11.4688C516.996 11.2641 516.864 11.0295 516.84 10.9473C516.757 10.6568 515.283 9.04475 514.795 8.70957C514.602 8.57729 514.326 8.36858 514.181 8.24568C512.922 7.17622 509.967 6.3834 507.913 6.56306ZM528.346 6.6654C527.741 6.72171 526.732 6.97556 526.41 7.15164C526.301 7.21153 526.162 7.26069 526.101 7.26069C525.216 7.26069 522.979 9.5015 522.132 11.2369C521.099 13.3516 521.07 13.6309 521.095 21.1399L521.114 27.1612L521.311 27.3408C521.565 27.5719 524.375 27.6246 524.692 27.4043C524.975 27.2072 524.975 27.2067 525.011 20.668L525.046 14.2995L525.262 13.7364C525.381 13.4267 525.654 12.9239 525.87 12.6191C526.585 11.6114 526.523 11.6668 527.539 11.1064C528.621 10.5093 529.784 10.5598 530.838 11.2494C531.116 11.4317 531.366 11.5805 531.393 11.5805C531.652 11.5805 532.682 13.2131 532.915 13.9916C533.204 14.9601 533.226 15.4807 533.226 21.4917C533.227 27.1272 533.228 27.1965 533.37 27.3574C533.603 27.6237 536.492 27.6094 536.786 27.3408L536.983 27.1612L537.021 20.9165L537.06 14.6718L537.277 13.9643C538.621 9.57703 543.535 9.65702 545.004 14.0904L545.197 14.6718L545.233 20.9732C545.262 26.1623 545.286 27.2961 545.365 27.3976C545.541 27.6228 548.668 27.5786 548.873 27.348L549.025 27.1759V20.9183C549.025 13.8656 549.034 14.0077 548.501 12.3657C548.042 10.9504 546.962 9.22218 546.217 8.70823C546.082 8.61527 545.834 8.40701 545.667 8.24613C544.341 6.97154 541.365 6.28732 539.453 6.8178C537.801 7.27633 536.732 7.91899 535.599 9.13458L535.058 9.71557L534.757 9.34061C533.274 7.49398 530.751 6.44061 528.346 6.6654ZM551.994 6.64261C551.519 6.73959 551.553 5.92443 551.553 17.1343V27.2117L551.738 27.3663C551.924 27.5214 554.687 27.6121 555.026 27.474C555.354 27.3404 555.345 27.6528 555.345 17.0927C555.345 6.25916 555.366 6.82897 554.951 6.66138C554.78 6.59256 552.313 6.57692 551.994 6.64261ZM566.053 6.73512C565.193 6.8978 563.955 7.30895 563.346 7.63431C562.875 7.88592 562.146 8.3583 562.086 8.45126C562.066 8.48031 561.908 8.59784 561.734 8.71136C561.561 8.82532 561.122 9.24095 560.759 9.63512C558.373 12.2294 557.48 15.3131 558.017 19.1038C558.391 21.7397 560.524 24.8971 562.788 26.1668C563.728 26.6937 563.929 26.7902 564.599 27.0347C568.086 28.3075 572.121 27.2867 574.794 24.456C577.022 22.0981 578.144 18.0701 577.438 14.9699C577.041 13.2198 576.788 12.5324 576.207 11.6181C576.025 11.3311 575.793 10.9459 575.691 10.7613C575.431 10.2872 574.203 9.02107 573.515 8.51651C571.329 6.91389 568.58 6.25738 566.053 6.73512ZM594.021 6.66987C593.221 6.87054 592.442 7.62269 592.146 8.47986L591.962 9.01079V11.6181C591.962 14.1529 591.967 14.2383 592.125 14.7089C592.941 17.1414 596.27 17.3546 597.359 15.0441C597.677 14.3692 597.696 14.1579 597.672 11.4304L597.65 8.86197L597.433 8.37796C596.821 7.01131 595.432 6.31637 594.021 6.66987ZM595.269 9.82283L595.509 10.0762V12.0037C595.509 13.698 595.495 13.9532 595.389 14.1154C595.089 14.5771 594.708 14.62 594.343 14.2325L594.104 13.9791V12.0274V10.0762L594.343 9.82283C594.515 9.64049 594.644 9.56943 594.806 9.56943C594.969 9.56943 595.098 9.64049 595.269 9.82283ZM487.887 10.8311C492.166 11.9979 493.914 17.2156 491.271 20.9286C490.771 21.6302 490.586 21.8125 489.696 22.4856C487.418 24.2066 483.869 23.6185 481.873 21.1891C478.116 16.6154 482.35 9.32094 487.887 10.8311ZM510.301 10.8355C512.117 11.4295 513.558 12.7394 514.232 14.4081L514.474 15.007H508.757H503.04L503.135 14.7205C503.333 14.1248 503.805 13.2846 504.123 12.9588C504.203 12.8766 504.338 12.7134 504.423 12.5955C505.511 11.0862 508.411 10.2179 510.301 10.8355ZM569.282 10.8749C570.484 11.2444 571.154 11.6619 572.001 12.5704C576.28 17.1615 572.263 24.7367 566.319 23.2847C565.329 23.0429 564.97 22.8485 563.831 21.935C562.13 20.571 561.344 17.8404 561.945 15.3846C562.773 12.0096 566.174 9.91936 569.282 10.8749ZM602.011 15.8561C602.142 15.9956 602.249 16.1819 602.249 16.2709C602.249 16.6909 601.5 18.6918 601.273 18.8804C601.248 18.9005 601.03 19.1856 600.788 19.5132C600.546 19.8412 600.243 20.1929 600.115 20.2953C599.986 20.3981 599.648 20.6702 599.363 20.9008C598.582 21.5319 597.863 21.8702 596.456 22.2697C594.734 22.7591 591.993 22.2371 590.496 21.1346C589.465 20.3757 588.263 19.056 588.102 18.5076C588.071 18.4053 587.943 18.1018 587.817 17.8328C587.209 16.5453 587.307 15.8637 588.101 15.8637C588.5 15.8637 588.655 16.0246 588.845 16.6355C588.928 16.9072 589.103 17.3242 589.234 17.562C589.363 17.7997 589.471 18.021 589.471 18.0536C589.471 18.3418 590.91 19.776 591.52 20.096C595.227 22.04 599.511 20.4763 600.669 16.7575C601.032 15.5898 601.478 15.2908 602.011 15.8561Z" fill="#B1B5C3"/>
<path fill-rule="evenodd" clip-rule="evenodd" d="M492.67 0.192354C492.542 0.342069 492.535 0.538261 492.517 4.51219C492.505 7.03634 492.472 8.67561 492.432 8.67561C492.396 8.67561 492.309 8.61259 492.24 8.53572C492.097 8.37484 491.349 7.88234 490.807 7.59095C489.37 6.81869 486.912 6.41335 485.179 6.66317C483.924 6.84372 481.736 7.66961 481.231 8.15272C481.154 8.22691 480.87 8.4383 480.599 8.62287C480.129 8.94375 478.528 10.5888 478.528 10.7511C478.528 10.7931 478.349 11.1041 478.131 11.4424C477.479 12.4529 477.189 13.2158 476.791 14.9699C476.48 16.3433 476.615 18.5899 477.125 20.5187C477.319 21.2539 478.245 23.0889 478.472 23.1881C478.503 23.2015 478.528 23.2476 478.528 23.29C478.528 23.5515 479.797 24.9083 480.705 25.6166C483.158 27.5321 486.9 28.1037 489.735 26.9958C490.495 26.6991 491.868 25.9558 492.211 25.6551L492.466 25.4312L492.501 26.2839C492.533 27.0566 492.552 27.1545 492.706 27.3283L492.877 27.5205H494.437C495.868 27.5205 496.01 27.5089 496.162 27.3779L496.328 27.2358V14.6066C496.328 3.47804 496.316 1.9648 496.223 1.86961C496.165 1.81017 495.896 1.63766 495.626 1.48571C495.355 1.33376 495.071 1.15098 494.994 1.07902C494.093 0.242407 492.987 -0.179475 492.67 0.192354ZM551.669 0.171796C551.57 0.287993 551.553 0.505192 551.553 1.64481C551.553 3.16833 551.548 3.1518 552.13 3.54463C552.334 3.68228 552.561 3.85255 552.634 3.92316C552.707 3.99377 552.944 4.14796 553.161 4.2655C553.377 4.38303 553.77 4.63598 554.033 4.82726C554.662 5.28445 555.034 5.29786 555.242 4.87151C555.396 4.55509 555.393 0.573122 555.237 0.255368L555.13 0.0354881H553.458C551.927 0.0354881 551.776 0.0471079 551.669 0.171796ZM593.157 0.0859885C592.159 0.220062 590.473 0.757695 589.626 1.21176C589.405 1.33019 589.138 1.44996 589.032 1.47722C588.806 1.53666 587.465 2.48366 586.774 3.07269C585.869 3.84495 584.401 5.56422 584.064 6.24888C583.828 6.72618 583.486 7.33622 583.436 7.36929C583.347 7.42739 582.682 9.13012 582.518 9.7187C581.886 11.9877 581.887 11.9769 581.887 18.9049V24.9069L582.056 25.4021C582.149 25.6747 582.302 25.9862 582.394 26.0944C582.487 26.203 582.614 26.3786 582.676 26.4854C582.838 26.7616 583.52 27.2211 584.009 27.3828C584.583 27.5719 595.045 27.5929 596.281 27.407C598.26 27.1098 600.708 26.1011 602.073 25.0191C602.305 24.8354 602.559 24.6567 602.637 24.6218C602.715 24.5865 603.074 24.2607 603.435 23.8978C603.797 23.5345 604.12 23.2261 604.154 23.2123C604.189 23.1984 604.462 22.8646 604.76 22.4704C605.06 22.0762 605.371 21.6758 605.455 21.581C605.536 21.4863 605.721 21.1668 605.864 20.8709C606.008 20.5746 606.167 20.2823 606.219 20.2206C606.271 20.1585 606.467 19.7559 606.658 19.3255C608.078 16.0992 608.127 11.6923 606.779 8.41417C606.561 7.88189 606.339 7.39655 606.288 7.33488C606.236 7.27365 606.08 6.98316 605.942 6.68998C605.422 5.58746 603.653 3.50888 602.565 2.72365C602.372 2.58377 602.056 2.34602 601.863 2.19407C599.882 0.638818 596.013 -0.297908 593.157 0.0859885ZM595.825 5.21607C597.355 5.63885 598.581 6.95098 598.983 8.59695C599.169 9.3567 599.136 14.1154 598.941 14.8126C598.784 15.377 598.598 15.8065 598.402 16.063C597.503 17.242 596.924 17.6969 595.908 18.0218C593.848 18.6806 591.401 17.2791 590.748 15.0664C590.539 14.3585 590.423 9.80406 590.59 8.89191C591.084 6.20419 593.433 4.55509 595.825 5.21607ZM507.913 6.56306C506.406 6.69535 504.018 7.59364 503.196 8.3373C503.049 8.47048 502.82 8.63896 502.686 8.71136C502.217 8.96789 500.807 10.6063 500.41 11.3571C499.244 13.5635 498.891 14.8819 498.891 17.0324C498.891 26.0618 508.971 30.8821 515.319 24.8886C517.485 22.8431 517.572 22.3891 515.872 21.9819C515.396 21.868 514.713 21.6928 514.356 21.5936C513.391 21.3245 513.224 21.3419 512.781 21.7598C510.686 23.7343 507.723 23.9725 505.457 22.3488C504.354 21.5582 503.425 20.3583 503.14 19.3568L503.048 19.0292H510.617H518.186L518.412 18.8044L518.639 18.5796L518.6 17.0726C518.577 16.1931 518.518 15.3641 518.459 15.0816C518.403 14.8153 518.306 14.346 518.242 14.0385C518.113 13.4196 517.52 12.0458 517.133 11.4688C516.996 11.2641 516.864 11.0295 516.84 10.9473C516.757 10.6568 515.283 9.04475 514.795 8.70957C514.602 8.57729 514.326 8.36858 514.181 8.24568C512.922 7.17622 509.967 6.3834 507.913 6.56306ZM528.346 6.6654C527.741 6.72171 526.732 6.97556 526.41 7.15164C526.301 7.21153 526.162 7.26069 526.101 7.26069C525.216 7.26069 522.979 9.5015 522.132 11.2369C521.099 13.3516 521.07 13.6309 521.095 21.1399L521.114 27.1612L521.311 27.3408C521.565 27.5719 524.375 27.6246 524.692 27.4043C524.975 27.2072 524.975 27.2067 525.011 20.668L525.046 14.2995L525.262 13.7364C525.381 13.4267 525.654 12.9239 525.87 12.6191C526.585 11.6114 526.523 11.6668 527.539 11.1064C528.621 10.5093 529.784 10.5598 530.838 11.2494C531.116 11.4317 531.366 11.5805 531.393 11.5805C531.652 11.5805 532.682 13.2131 532.915 13.9916C533.204 14.9601 533.226 15.4807 533.226 21.4917C533.227 27.1272 533.228 27.1965 533.37 27.3574C533.603 27.6237 536.492 27.6094 536.786 27.3408L536.983 27.1612L537.021 20.9165L537.06 14.6718L537.277 13.9643C538.621 9.57703 543.535 9.65702 545.004 14.0904L545.197 14.6718L545.233 20.9732C545.262 26.1623 545.286 27.2961 545.365 27.3976C545.541 27.6228 548.668 27.5786 548.873 27.348L549.025 27.1759V20.9183C549.025 13.8656 549.034 14.0077 548.501 12.3657C548.042 10.9504 546.962 9.22218 546.217 8.70823C546.082 8.61527 545.834 8.40701 545.667 8.24613C544.341 6.97154 541.365 6.28732 539.453 6.8178C537.801 7.27633 536.732 7.91899 535.599 9.13458L535.058 9.71557L534.757 9.34061C533.274 7.49398 530.751 6.44061 528.346 6.6654ZM551.994 6.64261C551.519 6.73959 551.553 5.92443 551.553 17.1343V27.2117L551.738 27.3663C551.924 27.5214 554.687 27.6121 555.026 27.474C555.354 27.3404 555.345 27.6528 555.345 17.0927C555.345 6.25916 555.366 6.82897 554.951 6.66138C554.78 6.59256 552.313 6.57692 551.994 6.64261ZM566.053 6.73512C565.193 6.8978 563.955 7.30895 563.346 7.63431C562.875 7.88592 562.146 8.3583 562.086 8.45126C562.066 8.48031 561.908 8.59784 561.734 8.71136C561.561 8.82532 561.122 9.24095 560.759 9.63512C558.373 12.2294 557.48 15.3131 558.017 19.1038C558.391 21.7397 560.524 24.8971 562.788 26.1668C563.728 26.6937 563.929 26.7902 564.599 27.0347C568.086 28.3075 572.121 27.2867 574.794 24.456C577.022 22.0981 578.144 18.0701 577.438 14.9699C577.041 13.2198 576.788 12.5324 576.207 11.6181C576.025 11.3311 575.793 10.9459 575.691 10.7613C575.431 10.2872 574.203 9.02107 573.515 8.51651C571.329 6.91389 568.58 6.25738 566.053 6.73512ZM594.021 6.66987C593.221 6.87054 592.442 7.62269 592.146 8.47986L591.962 9.01079V11.6181C591.962 14.1529 591.967 14.2383 592.125 14.7089C592.941 17.1414 596.27 17.3546 597.359 15.0441C597.677 14.3692 597.696 14.1579 597.672 11.4304L597.65 8.86197L597.433 8.37796C596.821 7.01131 595.432 6.31637 594.021 6.66987ZM595.269 9.82283L595.509 10.0762V12.0037C595.509 13.698 595.495 13.9532 595.389 14.1154C595.089 14.5771 594.708 14.62 594.343 14.2325L594.104 13.9791V12.0274V10.0762L594.343 9.82283C594.515 9.64049 594.644 9.56943 594.806 9.56943C594.969 9.56943 595.098 9.64049 595.269 9.82283ZM487.887 10.8311C492.166 11.9979 493.914 17.2156 491.271 20.9286C490.771 21.6302 490.586 21.8125 489.696 22.4856C487.418 24.2066 483.869 23.6185 481.873 21.1891C478.116 16.6154 482.35 9.32094 487.887 10.8311ZM510.301 10.8355C512.117 11.4295 513.558 12.7394 514.232 14.4081L514.474 15.007H508.757H503.04L503.135 14.7205C503.333 14.1248 503.805 13.2846 504.123 12.9588C504.203 12.8766 504.338 12.7134 504.423 12.5955C505.511 11.0862 508.411 10.2179 510.301 10.8355ZM569.282 10.8749C570.484 11.2444 571.154 11.6619 572.001 12.5704C576.28 17.1615 572.263 24.7367 566.319 23.2847C565.329 23.0429 564.97 22.8485 563.831 21.935C562.13 20.571 561.344 17.8404 561.945 15.3846C562.773 12.0096 566.174 9.91936 569.282 10.8749ZM602.011 15.8561C602.142 15.9956 602.249 16.1819 602.249 16.2709C602.249 16.6909 601.5 18.6918 601.273 18.8804C601.248 18.9005 601.03 19.1856 600.788 19.5132C600.546 19.8412 600.243 20.1929 600.115 20.2953C599.986 20.3981 599.648 20.6702 599.363 20.9008C598.582 21.5319 597.863 21.8702 596.456 22.2697C594.734 22.7591 591.993 22.2371 590.496 21.1346C589.465 20.3757 588.263 19.056 588.102 18.5076C588.071 18.4053 587.943 18.1018 587.817 17.8328C587.209 16.5453 587.307 15.8637 588.101 15.8637C588.5 15.8637 588.655 16.0246 588.845 16.6355C588.928 16.9072 589.103 17.3242 589.234 17.562C589.363 17.7997 589.471 18.021 589.471 18.0536C589.471 18.3418 590.91 19.776 591.52 20.096C595.227 22.04 599.511 20.4763 600.669 16.7575C601.032 15.5898 601.478 15.2908 602.011 15.8561Z" fill="#B1B5C3"/>
<path fill-rule="evenodd" clip-rule="evenodd" d="M492.67 0.192354C492.542 0.342069 492.535 0.538261 492.517 4.51219C492.505 7.03634 492.472 8.67561 492.432 8.67561C492.396 8.67561 492.309 8.61259 492.24 8.53572C492.097 8.37484 491.349 7.88234 490.807 7.59095C489.37 6.81869 486.912 6.41335 485.179 6.66317C483.924 6.84372 481.736 7.66961 481.231 8.15272C481.154 8.22691 480.87 8.4383 480.599 8.62287C480.129 8.94375 478.528 10.5888 478.528 10.7511C478.528 10.7931 478.349 11.1041 478.131 11.4424C477.479 12.4529 477.189 13.2158 476.791 14.9699C476.48 16.3433 476.615 18.5899 477.125 20.5187C477.319 21.2539 478.245 23.0889 478.472 23.1881C478.503 23.2015 478.528 23.2476 478.528 23.29C478.528 23.5515 479.797 24.9083 480.705 25.6166C483.158 27.5321 486.9 28.1037 489.735 26.9958C490.495 26.6991 491.868 25.9558 492.211 25.6551L492.466 25.4312L492.501 26.2839C492.533 27.0566 492.552 27.1545 492.706 27.3283L492.877 27.5205H494.437C495.868 27.5205 496.01 27.5089 496.162 27.3779L496.328 27.2358V14.6066C496.328 3.47804 496.316 1.9648 496.223 1.86961C496.165 1.81017 495.896 1.63766 495.626 1.48571C495.355 1.33376 495.071 1.15098 494.994 1.07902C494.093 0.242407 492.987 -0.179475 492.67 0.192354ZM551.669 0.171796C551.57 0.287993 551.553 0.505192 551.553 1.64481C551.553 3.16833 551.548 3.1518 552.13 3.54463C552.334 3.68228 552.561 3.85255 552.634 3.92316C552.707 3.99377 552.944 4.14796 553.161 4.2655C553.377 4.38303 553.77 4.63598 554.033 4.82726C554.662 5.28445 555.034 5.29786 555.242 4.87151C555.396 4.55509 555.393 0.573122 555.237 0.255368L555.13 0.0354881H553.458C551.927 0.0354881 551.776 0.0471079 551.669 0.171796ZM593.157 0.0859885C592.159 0.220062 590.473 0.757695 589.626 1.21176C589.405 1.33019 589.138 1.44996 589.032 1.47722C588.806 1.53666 587.465 2.48366 586.774 3.07269C585.869 3.84495 584.401 5.56422 584.064 6.24888C583.828 6.72618 583.486 7.33622 583.436 7.36929C583.347 7.42739 582.682 9.13012 582.518 9.7187C581.886 11.9877 581.887 11.9769 581.887 18.9049V24.9069L582.056 25.4021C582.149 25.6747 582.302 25.9862 582.394 26.0944C582.487 26.203 582.614 26.3786 582.676 26.4854C582.838 26.7616 583.52 27.2211 584.009 27.3828C584.583 27.5719 595.045 27.5929 596.281 27.407C598.26 27.1098 600.708 26.1011 602.073 25.0191C602.305 24.8354 602.559 24.6567 602.637 24.6218C602.715 24.5865 603.074 24.2607 603.435 23.8978C603.797 23.5345 604.12 23.2261 604.154 23.2123C604.189 23.1984 604.462 22.8646 604.76 22.4704C605.06 22.0762 605.371 21.6758 605.455 21.581C605.536 21.4863 605.721 21.1668 605.864 20.8709C606.008 20.5746 606.167 20.2823 606.219 20.2206C606.271 20.1585 606.467 19.7559 606.658 19.3255C608.078 16.0992 608.127 11.6923 606.779 8.41417C606.561 7.88189 606.339 7.39655 606.288 7.33488C606.236 7.27365 606.08 6.98316 605.942 6.68998C605.422 5.58746 603.653 3.50888 602.565 2.72365C602.372 2.58377 602.056 2.34602 601.863 2.19407C599.882 0.638818 596.013 -0.297908 593.157 0.0859885ZM595.825 5.21607C597.355 5.63885 598.581 6.95098 598.983 8.59695C599.169 9.3567 599.136 14.1154 598.941 14.8126C598.784 15.377 598.598 15.8065 598.402 16.063C597.503 17.242 596.924 17.6969 595.908 18.0218C593.848 18.6806 591.401 17.2791 590.748 15.0664C590.539 14.3585 590.423 9.80406 590.59 8.89191C591.084 6.20419 593.433 4.55509 595.825 5.21607ZM507.913 6.56306C506.406 6.69535 504.018 7.59364 503.196 8.3373C503.049 8.47048 502.82 8.63896 502.686 8.71136C502.217 8.96789 500.807 10.6063 500.41 11.3571C499.244 13.5635 498.891 14.8819 498.891 17.0324C498.891 26.0618 508.971 30.8821 515.319 24.8886C517.485 22.8431 517.572 22.3891 515.872 21.9819C515.396 21.868 514.713 21.6928 514.356 21.5936C513.391 21.3245 513.224 21.3419 512.781 21.7598C510.686 23.7343 507.723 23.9725 505.457 22.3488C504.354 21.5582 503.425 20.3583 503.14 19.3568L503.048 19.0292H510.617H518.186L518.412 18.8044L518.639 18.5796L518.6 17.0726C518.577 16.1931 518.518 15.3641 518.459 15.0816C518.403 14.8153 518.306 14.346 518.242 14.0385C518.113 13.4196 517.52 12.0458 517.133 11.4688C516.996 11.2641 516.864 11.0295 516.84 10.9473C516.757 10.6568 515.283 9.04475 514.795 8.70957C514.602 8.57729 514.326 8.36858 514.181 8.24568C512.922 7.17622 509.967 6.3834 507.913 6.56306ZM528.346 6.6654C527.741 6.72171 526.732 6.97556 526.41 7.15164C526.301 7.21153 526.162 7.26069 526.101 7.26069C525.216 7.26069 522.979 9.5015 522.132 11.2369C521.099 13.3516 521.07 13.6309 521.095 21.1399L521.114 27.1612L521.311 27.3408C521.565 27.5719 524.375 27.6246 524.692 27.4043C524.975 27.2072 524.975 27.2067 525.011 20.668L525.046 14.2995L525.262 13.7364C525.381 13.4267 525.654 12.9239 525.87 12.6191C526.585 11.6114 526.523 11.6668 527.539 11.1064C528.621 10.5093 529.784 10.5598 530.838 11.2494C531.116 11.4317 531.366 11.5805 531.393 11.5805C531.652 11.5805 532.682 13.2131 532.915 13.9916C533.204 14.9601 533.226 15.4807 533.226 21.4917C533.227 27.1272 533.228 27.1965 533.37 27.3574C533.603 27.6237 536.492 27.6094 536.786 27.3408L536.983 27.1612L537.021 20.9165L537.06 14.6718L537.277 13.9643C538.621 9.57703 543.535 9.65702 545.004 14.0904L545.197 14.6718L545.233 20.9732C545.262 26.1623 545.286 27.2961 545.365 27.3976C545.541 27.6228 548.668 27.5786 548.873 27.348L549.025 27.1759V20.9183C549.025 13.8656 549.034 14.0077 548.501 12.3657C548.042 10.9504 546.962 9.22218 546.217 8.70823C546.082 8.61527 545.834 8.40701 545.667 8.24613C544.341 6.97154 541.365 6.28732 539.453 6.8178C537.801 7.27633 536.732 7.91899 535.599 9.13458L535.058 9.71557L534.757 9.34061C533.274 7.49398 530.751 6.44061 528.346 6.6654ZM551.994 6.64261C551.519 6.73959 551.553 5.92443 551.553 17.1343V27.2117L551.738 27.3663C551.924 27.5214 554.687 27.6121 555.026 27.474C555.354 27.3404 555.345 27.6528 555.345 17.0927C555.345 6.25916 555.366 6.82897 554.951 6.66138C554.78 6.59256 552.313 6.57692 551.994 6.64261ZM566.053 6.73512C565.193 6.8978 563.955 7.30895 563.346 7.63431C562.875 7.88592 562.146 8.3583 562.086 8.45126C562.066 8.48031 561.908 8.59784 561.734 8.71136C561.561 8.82532 561.122 9.24095 560.759 9.63512C558.373 12.2294 557.48 15.3131 558.017 19.1038C558.391 21.7397 560.524 24.8971 562.788 26.1668C563.728 26.6937 563.929 26.7902 564.599 27.0347C568.086 28.3075 572.121 27.2867 574.794 24.456C577.022 22.0981 578.144 18.0701 577.438 14.9699C577.041 13.2198 576.788 12.5324 576.207 11.6181C576.025 11.3311 575.793 10.9459 575.691 10.7613C575.431 10.2872 574.203 9.02107 573.515 8.51651C571.329 6.91389 568.58 6.25738 566.053 6.73512ZM594.021 6.66987C593.221 6.87054 592.442 7.62269 592.146 8.47986L591.962 9.01079V11.6181C591.962 14.1529 591.967 14.2383 592.125 14.7089C592.941 17.1414 596.27 17.3546 597.359 15.0441C597.677 14.3692 597.696 14.1579 597.672 11.4304L597.65 8.86197L597.433 8.37796C596.821 7.01131 595.432 6.31637 594.021 6.66987ZM595.269 9.82283L595.509 10.0762V12.0037C595.509 13.698 595.495 13.9532 595.389 14.1154C595.089 14.5771 594.708 14.62 594.343 14.2325L594.104 13.9791V12.0274V10.0762L594.343 9.82283C594.515 9.64049 594.644 9.56943 594.806 9.56943C594.969 9.56943 595.098 9.64049 595.269 9.82283ZM487.887 10.8311C492.166 11.9979 493.914 17.2156 491.271 20.9286C490.771 21.6302 490.586 21.8125 489.696 22.4856C487.418 24.2066 483.869 23.6185 481.873 21.1891C478.116 16.6154 482.35 9.32094 487.887 10.8311ZM510.301 10.8355C512.117 11.4295 513.558 12.7394 514.232 14.4081L514.474 15.007H508.757H503.04L503.135 14.7205C503.333 14.1248 503.805 13.2846 504.123 12.9588C504.203 12.8766 504.338 12.7134 504.423 12.5955C505.511 11.0862 508.411 10.2179 510.301 10.8355ZM569.282 10.8749C570.484 11.2444 571.154 11.6619 572.001 12.5704C576.28 17.1615 572.263 24.7367 566.319 23.2847C565.329 23.0429 564.97 22.8485 563.831 21.935C562.13 20.571 561.344 17.8404 561.945 15.3846C562.773 12.0096 566.174 9.91936 569.282 10.8749ZM602.011 15.8561C602.142 15.9956 602.249 16.1819 602.249 16.2709C602.249 16.6909 601.5 18.6918 601.273 18.8804C601.248 18.9005 601.03 19.1856 600.788 19.5132C600.546 19.8412 600.243 20.1929 600.115 20.2953C599.986 20.3981 599.648 20.6702 599.363 20.9008C598.582 21.5319 597.863 21.8702 596.456 22.2697C594.734 22.7591 591.993 22.2371 590.496 21.1346C589.465 20.3757 588.263 19.056 588.102 18.5076C588.071 18.4053 587.943 18.1018 587.817 17.8328C587.209 16.5453 587.307 15.8637 588.101 15.8637C588.5 15.8637 588.655 16.0246 588.845 16.6355C588.928 16.9072 589.103 17.3242 589.234 17.562C589.363 17.7997 589.471 18.021 589.471 18.0536C589.471 18.3418 590.91 19.776 591.52 20.096C595.227 22.04 599.511 20.4763 600.669 16.7575C601.032 15.5898 601.478 15.2908 602.011 15.8561Z" fill="#B1B5C3"/>
<path fill-rule="evenodd" clip-rule="evenodd" d="M492.67 0.192354C492.542 0.342069 492.535 0.538261 492.517 4.51219C492.505 7.03634 492.472 8.67561 492.432 8.67561C492.396 8.67561 492.309 8.61259 492.24 8.53572C492.097 8.37484 491.349 7.88234 490.807 7.59095C489.37 6.81869 486.912 6.41335 485.179 6.66317C483.924 6.84372 481.736 7.66961 481.231 8.15272C481.154 8.22691 480.87 8.4383 480.599 8.62287C480.129 8.94375 478.528 10.5888 478.528 10.7511C478.528 10.7931 478.349 11.1041 478.131 11.4424C477.479 12.4529 477.189 13.2158 476.791 14.9699C476.48 16.3433 476.615 18.5899 477.125 20.5187C477.319 21.2539 478.245 23.0889 478.472 23.1881C478.503 23.2015 478.528 23.2476 478.528 23.29C478.528 23.5515 479.797 24.9083 480.705 25.6166C483.158 27.5321 486.9 28.1037 489.735 26.9958C490.495 26.6991 491.868 25.9558 492.211 25.6551L492.466 25.4312L492.501 26.2839C492.533 27.0566 492.552 27.1545 492.706 27.3283L492.877 27.5205H494.437C495.868 27.5205 496.01 27.5089 496.162 27.3779L496.328 27.2358V14.6066C496.328 3.47804 496.316 1.9648 496.223 1.86961C496.165 1.81017 495.896 1.63766 495.626 1.48571C495.355 1.33376 495.071 1.15098 494.994 1.07902C494.093 0.242407 492.987 -0.179475 492.67 0.192354ZM551.669 0.171796C551.57 0.287993 551.553 0.505192 551.553 1.64481C551.553 3.16833 551.548 3.1518 552.13 3.54463C552.334 3.68228 552.561 3.85255 552.634 3.92316C552.707 3.99377 552.944 4.14796 553.161 4.2655C553.377 4.38303 553.77 4.63598 554.033 4.82726C554.662 5.28445 555.034 5.29786 555.242 4.87151C555.396 4.55509 555.393 0.573122 555.237 0.255368L555.13 0.0354881H553.458C551.927 0.0354881 551.776 0.0471079 551.669 0.171796ZM593.157 0.0859885C592.159 0.220062 590.473 0.757695 589.626 1.21176C589.405 1.33019 589.138 1.44996 589.032 1.47722C588.806 1.53666 587.465 2.48366 586.774 3.07269C585.869 3.84495 584.401 5.56422 584.064 6.24888C583.828 6.72618 583.486 7.33622 583.436 7.36929C583.347 7.42739 582.682 9.13012 582.518 9.7187C581.886 11.9877 581.887 11.9769 581.887 18.9049V24.9069L582.056 25.4021C582.149 25.6747 582.302 25.9862 582.394 26.0944C582.487 26.203 582.614 26.3786 582.676 26.4854C582.838 26.7616 583.52 27.2211 584.009 27.3828C584.583 27.5719 595.045 27.5929 596.281 27.407C598.26 27.1098 600.708 26.1011 602.073 25.0191C602.305 24.8354 602.559 24.6567 602.637 24.6218C602.715 24.5865 603.074 24.2607 603.435 23.8978C603.797 23.5345 604.12 23.2261 604.154 23.2123C604.189 23.1984 604.462 22.8646 604.76 22.4704C605.06 22.0762 605.371 21.6758 605.455 21.581C605.536 21.4863 605.721 21.1668 605.864 20.8709C606.008 20.5746 606.167 20.2823 606.219 20.2206C606.271 20.1585 606.467 19.7559 606.658 19.3255C608.078 16.0992 608.127 11.6923 606.779 8.41417C606.561 7.88189 606.339 7.39655 606.288 7.33488C606.236 7.27365 606.08 6.98316 605.942 6.68998C605.422 5.58746 603.653 3.50888 602.565 2.72365C602.372 2.58377 602.056 2.34602 601.863 2.19407C599.882 0.638818 596.013 -0.297908 593.157 0.0859885ZM595.825 5.21607C597.355 5.63885 598.581 6.95098 598.983 8.59695C599.169 9.3567 599.136 14.1154 598.941 14.8126C598.784 15.377 598.598 15.8065 598.402 16.063C597.503 17.242 596.924 17.6969 595.908 18.0218C593.848 18.6806 591.401 17.2791 590.748 15.0664C590.539 14.3585 590.423 9.80406 590.59 8.89191C591.084 6.20419 593.433 4.55509 595.825 5.21607ZM507.913 6.56306C506.406 6.69535 504.018 7.59364 503.196 8.3373C503.049 8.47048 502.82 8.63896 502.686 8.71136C502.217 8.96789 500.807 10.6063 500.41 11.3571C499.244 13.5635 498.891 14.8819 498.891 17.0324C498.891 26.0618 508.971 30.8821 515.319 24.8886C517.485 22.8431 517.572 22.3891 515.872 21.9819C515.396 21.868 514.713 21.6928 514.356 21.5936C513.391 21.3245 513.224 21.3419 512.781 21.7598C510.686 23.7343 507.723 23.9725 505.457 22.3488C504.354 21.5582 503.425 20.3583 503.14 19.3568L503.048 19.0292H510.617H518.186L518.412 18.8044L518.639 18.5796L518.6 17.0726C518.577 16.1931 518.518 15.3641 518.459 15.0816C518.403 14.8153 518.306 14.346 518.242 14.0385C518.113 13.4196 517.52 12.0458 517.133 11.4688C516.996 11.2641 516.864 11.0295 516.84 10.9473C516.757 10.6568 515.283 9.04475 514.795 8.70957C514.602 8.57729 514.326 8.36858 514.181 8.24568C512.922 7.17622 509.967 6.3834 507.913 6.56306ZM528.346 6.6654C527.741 6.72171 526.732 6.97556 526.41 7.15164C526.301 7.21153 526.162 7.26069 526.101 7.26069C525.216 7.26069 522.979 9.5015 522.132 11.2369C521.099 13.3516 521.07 13.6309 521.095 21.1399L521.114 27.1612L521.311 27.3408C521.565 27.5719 524.375 27.6246 524.692 27.4043C524.975 27.2072 524.975 27.2067 525.011 20.668L525.046 14.2995L525.262 13.7364C525.381 13.4267 525.654 12.9239 525.87 12.6191C526.585 11.6114 526.523 11.6668 527.539 11.1064C528.621 10.5093 529.784 10.5598 530.838 11.2494C531.116 11.4317 531.366 11.5805 531.393 11.5805C531.652 11.5805 532.682 13.2131 532.915 13.9916C533.204 14.9601 533.226 15.4807 533.226 21.4917C533.227 27.1272 533.228 27.1965 533.37 27.3574C533.603 27.6237 536.492 27.6094 536.786 27.3408L536.983 27.1612L537.021 20.9165L537.06 14.6718L537.277 13.9643C538.621 9.57703 543.535 9.65702 545.004 14.0904L545.197 14.6718L545.233 20.9732C545.262 26.1623 545.286 27.2961 545.365 27.3976C545.541 27.6228 548.668 27.5786 548.873 27.348L549.025 27.1759V20.9183C549.025 13.8656 549.034 14.0077 548.501 12.3657C548.042 10.9504 546.962 9.22218 546.217 8.70823C546.082 8.61527 545.834 8.40701 545.667 8.24613C544.341 6.97154 541.365 6.28732 539.453 6.8178C537.801 7.27633 536.732 7.91899 535.599 9.13458L535.058 9.71557L534.757 9.34061C533.274 7.49398 530.751 6.44061 528.346 6.6654ZM551.994 6.64261C551.519 6.73959 551.553 5.92443 551.553 17.1343V27.2117L551.738 27.3663C551.924 27.5214 554.687 27.6121 555.026 27.474C555.354 27.3404 555.345 27.6528 555.345 17.0927C555.345 6.25916 555.366 6.82897 554.951 6.66138C554.78 6.59256 552.313 6.57692 551.994 6.64261ZM566.053 6.73512C565.193 6.8978 563.955 7.30895 563.346 7.63431C562.875 7.88592 562.146 8.3583 562.086 8.45126C562.066 8.48031 561.908 8.59784 561.734 8.71136C561.561 8.82532 561.122 9.24095 560.759 9.63512C558.373 12.2294 557.48 15.3131 558.017 19.1038C558.391 21.7397 560.524 24.8971 562.788 26.1668C563.728 26.6937 563.929 26.7902 564.599 27.0347C568.086 28.3075 572.121 27.2867 574.794 24.456C577.022 22.0981 578.144 18.0701 577.438 14.9699C577.041 13.2198 576.788 12.5324 576.207 11.6181C576.025 11.3311 575.793 10.9459 575.691 10.7613C575.431 10.2872 574.203 9.02107 573.515 8.51651C571.329 6.91389 568.58 6.25738 566.053 6.73512ZM594.021 6.66987C593.221 6.87054 592.442 7.62269 592.146 8.47986L591.962 9.01079V11.6181C591.962 14.1529 591.967 14.2383 592.125 14.7089C592.941 17.1414 596.27 17.3546 597.359 15.0441C597.677 14.3692 597.696 14.1579 597.672 11.4304L597.65 8.86197L597.433 8.37796C596.821 7.01131 595.432 6.31637 594.021 6.66987ZM595.269 9.82283L595.509 10.0762V12.0037C595.509 13.698 595.495 13.9532 595.389 14.1154C595.089 14.5771 594.708 14.62 594.343 14.2325L594.104 13.9791V12.0274V10.0762L594.343 9.82283C594.515 9.64049 594.644 9.56943 594.806 9.56943C594.969 9.56943 595.098 9.64049 595.269 9.82283ZM487.887 10.8311C492.166 11.9979 493.914 17.2156 491.271 20.9286C490.771 21.6302 490.586 21.8125 489.696 22.4856C487.418 24.2066 483.869 23.6185 481.873 21.1891C478.116 16.6154 482.35 9.32094 487.887 10.8311ZM510.301 10.8355C512.117 11.4295 513.558 12.7394 514.232 14.4081L514.474 15.007H508.757H503.04L503.135 14.7205C503.333 14.1248 503.805 13.2846 504.123 12.9588C504.203 12.8766 504.338 12.7134 504.423 12.5955C505.511 11.0862 508.411 10.2179 510.301 10.8355ZM569.282 10.8749C570.484 11.2444 571.154 11.6619 572.001 12.5704C576.28 17.1615 572.263 24.7367 566.319 23.2847C565.329 23.0429 564.97 22.8485 563.831 21.935C562.13 20.571 561.344 17.8404 561.945 15.3846C562.773 12.0096 566.174 9.91936 569.282 10.8749ZM602.011 15.8561C602.142 15.9956 602.249 16.1819 602.249 16.2709C602.249 16.6909 601.5 18.6918 601.273 18.8804C601.248 18.9005 601.03 19.1856 600.788 19.5132C600.546 19.8412 600.243 20.1929 600.115 20.2953C599.986 20.3981 599.648 20.6702 599.363 20.9008C598.582 21.5319 597.863 21.8702 596.456 22.2697C594.734 22.7591 591.993 22.2371 590.496 21.1346C589.465 20.3757 588.263 19.056 588.102 18.5076C588.071 18.4053 587.943 18.1018 587.817 17.8328C587.209 16.5453 587.307 15.8637 588.101 15.8637C588.5 15.8637 588.655 16.0246 588.845 16.6355C588.928 16.9072 589.103 17.3242 589.234 17.562C589.363 17.7997 589.471 18.021 589.471 18.0536C589.471 18.3418 590.91 19.776 591.52 20.096C595.227 22.04 599.511 20.4763 600.669 16.7575C601.032 15.5898 601.478 15.2908 602.011 15.8561Z" fill="#B1B5C3"/>
<path fill-rule="evenodd" clip-rule="evenodd" d="M492.67 0.192354C492.542 0.342069 492.535 0.538261 492.517 4.51219C492.505 7.03634 492.472 8.67561 492.432 8.67561C492.396 8.67561 492.309 8.61259 492.24 8.53572C492.097 8.37484 491.349 7.88234 490.807 7.59095C489.37 6.81869 486.912 6.41335 485.179 6.66317C483.924 6.84372 481.736 7.66961 481.231 8.15272C481.154 8.22691 480.87 8.4383 480.599 8.62287C480.129 8.94375 478.528 10.5888 478.528 10.7511C478.528 10.7931 478.349 11.1041 478.131 11.4424C477.479 12.4529 477.189 13.2158 476.791 14.9699C476.48 16.3433 476.615 18.5899 477.125 20.5187C477.319 21.2539 478.245 23.0889 478.472 23.1881C478.503 23.2015 478.528 23.2476 478.528 23.29C478.528 23.5515 479.797 24.9083 480.705 25.6166C483.158 27.5321 486.9 28.1037 489.735 26.9958C490.495 26.6991 491.868 25.9558 492.211 25.6551L492.466 25.4312L492.501 26.2839C492.533 27.0566 492.552 27.1545 492.706 27.3283L492.877 27.5205H494.437C495.868 27.5205 496.01 27.5089 496.162 27.3779L496.328 27.2358V14.6066C496.328 3.47804 496.316 1.9648 496.223 1.86961C496.165 1.81017 495.896 1.63766 495.626 1.48571C495.355 1.33376 495.071 1.15098 494.994 1.07902C494.093 0.242407 492.987 -0.179475 492.67 0.192354ZM551.669 0.171796C551.57 0.287993 551.553 0.505192 551.553 1.64481C551.553 3.16833 551.548 3.1518 552.13 3.54463C552.334 3.68228 552.561 3.85255 552.634 3.92316C552.707 3.99377 552.944 4.14796 553.161 4.2655C553.377 4.38303 553.77 4.63598 554.033 4.82726C554.662 5.28445 555.034 5.29786 555.242 4.87151C555.396 4.55509 555.393 0.573122 555.237 0.255368L555.13 0.0354881H553.458C551.927 0.0354881 551.776 0.0471079 551.669 0.171796ZM593.157 0.0859885C592.159 0.220062 590.473 0.757695 589.626 1.21176C589.405 1.33019 589.138 1.44996 589.032 1.47722C588.806 1.53666 587.465 2.48366 586.774 3.07269C585.869 3.84495 584.401 5.56422 584.064 6.24888C583.828 6.72618 583.486 7.33622 583.436 7.36929C583.347 7.42739 582.682 9.13012 582.518 9.7187C581.886 11.9877 581.887 11.9769 581.887 18.9049V24.9069L582.056 25.4021C582.149 25.6747 582.302 25.9862 582.394 26.0944C582.487 26.203 582.614 26.3786 582.676 26.4854C582.838 26.7616 583.52 27.2211 584.009 27.3828C584.583 27.5719 595.045 27.5929 596.281 27.407C598.26 27.1098 600.708 26.1011 602.073 25.0191C602.305 24.8354 602.559 24.6567 602.637 24.6218C602.715 24.5865 603.074 24.2607 603.435 23.8978C603.797 23.5345 604.12 23.2261 604.154 23.2123C604.189 23.1984 604.462 22.8646 604.76 22.4704C605.06 22.0762 605.371 21.6758 605.455 21.581C605.536 21.4863 605.721 21.1668 605.864 20.8709C606.008 20.5746 606.167 20.2823 606.219 20.2206C606.271 20.1585 606.467 19.7559 606.658 19.3255C608.078 16.0992 608.127 11.6923 606.779 8.41417C606.561 7.88189 606.339 7.39655 606.288 7.33488C606.236 7.27365 606.08 6.98316 605.942 6.68998C605.422 5.58746 603.653 3.50888 602.565 2.72365C602.372 2.58377 602.056 2.34602 601.863 2.19407C599.882 0.638818 596.013 -0.297908 593.157 0.0859885ZM595.825 5.21607C597.355 5.63885 598.581 6.95098 598.983 8.59695C599.169 9.3567 599.136 14.1154 598.941 14.8126C598.784 15.377 598.598 15.8065 598.402 16.063C597.503 17.242 596.924 17.6969 595.908 18.0218C593.848 18.6806 591.401 17.2791 590.748 15.0664C590.539 14.3585 590.423 9.80406 590.59 8.89191C591.084 6.20419 593.433 4.55509 595.825 5.21607ZM507.913 6.56306C506.406 6.69535 504.018 7.59364 503.196 8.3373C503.049 8.47048 502.82 8.63896 502.686 8.71136C502.217 8.96789 500.807 10.6063 500.41 11.3571C499.244 13.5635 498.891 14.8819 498.891 17.0324C498.891 26.0618 508.971 30.8821 515.319 24.8886C517.485 22.8431 517.572 22.3891 515.872 21.9819C515.396 21.868 514.713 21.6928 514.356 21.5936C513.391 21.3245 513.224 21.3419 512.781 21.7598C510.686 23.7343 507.723 23.9725 505.457 22.3488C504.354 21.5582 503.425 20.3583 503.14 19.3568L503.048 19.0292H510.617H518.186L518.412 18.8044L518.639 18.5796L518.6 17.0726C518.577 16.1931 518.518 15.3641 518.459 15.0816C518.403 14.8153 518.306 14.346 518.242 14.0385C518.113 13.4196 517.52 12.0458 517.133 11.4688C516.996 11.2641 516.864 11.0295 516.84 10.9473C516.757 10.6568 515.283 9.04475 514.795 8.70957C514.602 8.57729 514.326 8.36858 514.181 8.24568C512.922 7.17622 509.967 6.3834 507.913 6.56306ZM528.346 6.6654C527.741 6.72171 526.732 6.97556 526.41 7.15164C526.301 7.21153 526.162 7.26069 526.101 7.26069C525.216 7.26069 522.979 9.5015 522.132 11.2369C521.099 13.3516 521.07 13.6309 521.095 21.1399L521.114 27.1612L521.311 27.3408C521.565 27.5719 524.375 27.6246 524.692 27.4043C524.975 27.2072 524.975 27.2067 525.011 20.668L525.046 14.2995L525.262 13.7364C525.381 13.4267 525.654 12.9239 525.87 12.6191C526.585 11.6114 526.523 11.6668 527.539 11.1064C528.621 10.5093 529.784 10.5598 530.838 11.2494C531.116 11.4317 531.366 11.5805 531.393 11.5805C531.652 11.5805 532.682 13.2131 532.915 13.9916C533.204 14.9601 533.226 15.4807 533.226 21.4917C533.227 27.1272 533.228 27.1965 533.37 27.3574C533.603 27.6237 536.492 27.6094 536.786 27.3408L536.983 27.1612L537.021 20.9165L537.06 14.6718L537.277 13.9643C538.621 9.57703 543.535 9.65702 545.004 14.0904L545.197 14.6718L545.233 20.9732C545.262 26.1623 545.286 27.2961 545.365 27.3976C545.541 27.6228 548.668 27.5786 548.873 27.348L549.025 27.1759V20.9183C549.025 13.8656 549.034 14.0077 548.501 12.3657C548.042 10.9504 546.962 9.22218 546.217 8.70823C546.082 8.61527 545.834 8.40701 545.667 8.24613C544.341 6.97154 541.365 6.28732 539.453 6.8178C537.801 7.27633 536.732 7.91899 535.599 9.13458L535.058 9.71557L534.757 9.34061C533.274 7.49398 530.751 6.44061 528.346 6.6654ZM551.994 6.64261C551.519 6.73959 551.553 5.92443 551.553 17.1343V27.2117L551.738 27.3663C551.924 27.5214 554.687 27.6121 555.026 27.474C555.354 27.3404 555.345 27.6528 555.345 17.0927C555.345 6.25916 555.366 6.82897 554.951 6.66138C554.78 6.59256 552.313 6.57692 551.994 6.64261ZM566.053 6.73512C565.193 6.8978 563.955 7.30895 563.346 7.63431C562.875 7.88592 562.146 8.3583 562.086 8.45126C562.066 8.48031 561.908 8.59784 561.734 8.71136C561.561 8.82532 561.122 9.24095 560.759 9.63512C558.373 12.2294 557.48 15.3131 558.017 19.1038C558.391 21.7397 560.524 24.8971 562.788 26.1668C563.728 26.6937 563.929 26.7902 564.599 27.0347C568.086 28.3075 572.121 27.2867 574.794 24.456C577.022 22.0981 578.144 18.0701 577.438 14.9699C577.041 13.2198 576.788 12.5324 576.207 11.6181C576.025 11.3311 575.793 10.9459 575.691 10.7613C575.431 10.2872 574.203 9.02107 573.515 8.51651C571.329 6.91389 568.58 6.25738 566.053 6.73512ZM594.021 6.66987C593.221 6.87054 592.442 7.62269 592.146 8.47986L591.962 9.01079V11.6181C591.962 14.1529 591.967 14.2383 592.125 14.7089C592.941 17.1414 596.27 17.3546 597.359 15.0441C597.677 14.3692 597.696 14.1579 597.672 11.4304L597.65 8.86197L597.433 8.37796C596.821 7.01131 595.432 6.31637 594.021 6.66987ZM595.269 9.82283L595.509 10.0762V12.0037C595.509 13.698 595.495 13.9532 595.389 14.1154C595.089 14.5771 594.708 14.62 594.343 14.2325L594.104 13.9791V12.0274V10.0762L594.343 9.82283C594.515 9.64049 594.644 9.56943 594.806 9.56943C594.969 9.56943 595.098 9.64049 595.269 9.82283ZM487.887 10.8311C492.166 11.9979 493.914 17.2156 491.271 20.9286C490.771 21.6302 490.586 21.8125 489.696 22.4856C487.418 24.2066 483.869 23.6185 481.873 21.1891C478.116 16.6154 482.35 9.32094 487.887 10.8311ZM510.301 10.8355C512.117 11.4295 513.558 12.7394 514.232 14.4081L514.474 15.007H508.757H503.04L503.135 14.7205C503.333 14.1248 503.805 13.2846 504.123 12.9588C504.203 12.8766 504.338 12.7134 504.423 12.5955C505.511 11.0862 508.411 10.2179 510.301 10.8355ZM569.282 10.8749C570.484 11.2444 571.154 11.6619 572.001 12.5704C576.28 17.1615 572.263 24.7367 566.319 23.2847C565.329 23.0429 564.97 22.8485 563.831 21.935C562.13 20.571 561.344 17.8404 561.945 15.3846C562.773 12.0096 566.174 9.91936 569.282 10.8749ZM602.011 15.8561C602.142 15.9956 602.249 16.1819 602.249 16.2709C602.249 16.6909 601.5 18.6918 601.273 18.8804C601.248 18.9005 601.03 19.1856 600.788 19.5132C600.546 19.8412 600.243 20.1929 600.115 20.2953C599.986 20.3981 599.648 20.6702 599.363 20.9008C598.582 21.5319 597.863 21.8702 596.456 22.2697C594.734 22.7591 591.993 22.2371 590.496 21.1346C589.465 20.3757 588.263 19.056 588.102 18.5076C588.071 18.4053 587.943 18.1018 587.817 17.8328C587.209 16.5453 587.307 15.8637 588.101 15.8637C588.5 15.8637 588.655 16.0246 588.845 16.6355C588.928 16.9072 589.103 17.3242 589.234 17.562C589.363 17.7997 589.471 18.021 589.471 18.0536C589.471 18.3418 590.91 19.776 591.52 20.096C595.227 22.04 599.511 20.4763 600.669 16.7575C601.032 15.5898 601.478 15.2908 602.011 15.8561Z" fill="#B1B5C3"/>
</g>
<defs>
<clipPath id="clip0_2680_54997">
<rect width="103.25" height="28" fill="white" transform="translate(191.25)"/>
</clipPath>
<clipPath id="clip1_2680_54997">
<rect width="62.125" height="28" fill="white" transform="translate(354.5)"/>
</clipPath>
<clipPath id="clip2_2680_54997">
<rect width="131.25" height="28" fill="white" transform="translate(476.625)"/>
</clipPath>
</defs>
</svg>
