<svg width="271" height="40" viewBox="0 0 271 40" fill="none" xmlns="http://www.w3.org/2000/svg">
<rect x="0.5" y="0.5" width="134" height="39" rx="4.5" fill="#23262F"/>
<rect x="0.5" y="0.5" width="134" height="39" rx="4.5" stroke="#777E90"/>
<path d="M68.137 21.7509C65.785 21.7509 63.868 23.5399 63.868 26.0039C63.868 28.4529 65.785 30.2569 68.137 30.2569C70.49 30.2569 72.407 28.4529 72.407 26.0039C72.406 23.5399 70.489 21.7509 68.137 21.7509ZM68.137 28.5829C66.848 28.5829 65.737 27.5199 65.737 26.0049C65.737 24.4739 66.849 23.4269 68.137 23.4269C69.426 23.4269 70.537 24.4739 70.537 26.0049C70.537 27.5189 69.426 28.5829 68.137 28.5829ZM58.823 21.7509C56.471 21.7509 54.554 23.5399 54.554 26.0039C54.554 28.4529 56.471 30.2569 58.823 30.2569C61.176 30.2569 63.093 28.4529 63.093 26.0039C63.093 23.5399 61.176 21.7509 58.823 21.7509ZM58.823 28.5829C57.534 28.5829 56.423 27.5199 56.423 26.0049C56.423 24.4739 57.535 23.4269 58.823 23.4269C60.112 23.4269 61.223 24.4739 61.223 26.0049C61.224 27.5189 60.112 28.5829 58.823 28.5829ZM47.745 23.0569V24.8609H52.063C51.934 25.8759 51.596 26.6169 51.08 27.1319C50.452 27.7599 49.469 28.4529 47.745 28.4529C45.087 28.4529 43.009 26.3099 43.009 23.6519C43.009 20.9939 45.087 18.8509 47.745 18.8509C49.179 18.8509 50.226 19.4149 50.999 20.1399L52.272 18.8669C51.192 17.8359 49.759 17.0469 47.745 17.0469C44.104 17.0469 41.043 20.0109 41.043 23.6519C41.043 27.2929 44.104 30.2569 47.745 30.2569C49.71 30.2569 51.193 29.6119 52.352 28.4039C53.544 27.2119 53.915 25.5359 53.915 24.1829C53.915 23.7649 53.883 23.3779 53.818 23.0559H47.745V23.0569ZM93.053 24.4579C92.699 23.5079 91.619 21.7509 89.412 21.7509C87.221 21.7509 85.4 23.4749 85.4 26.0039C85.4 28.3879 87.205 30.2569 89.621 30.2569C91.57 30.2569 92.698 29.0649 93.166 28.3719L91.716 27.4049C91.233 28.1139 90.572 28.5809 89.621 28.5809C88.671 28.5809 87.994 28.1459 87.559 27.2919L93.246 24.9399L93.053 24.4579ZM87.253 25.8759C87.205 24.2319 88.526 23.3949 89.477 23.3949C90.218 23.3949 90.846 23.7659 91.056 24.2969L87.253 25.8759ZM82.63 29.9999H84.498V17.4989H82.63V29.9999ZM79.568 22.7019H79.504C79.085 22.2019 78.279 21.7509 77.265 21.7509C75.138 21.7509 73.189 23.6199 73.189 26.0209C73.189 28.4049 75.138 30.2579 77.265 30.2579C78.28 30.2579 79.085 29.8069 79.504 29.2919H79.568V29.9039C79.568 31.5309 78.698 32.4009 77.297 32.4009C76.153 32.4009 75.444 31.5799 75.154 30.8869L73.527 31.5639C73.994 32.6909 75.234 34.0769 77.297 34.0769C79.488 34.0769 81.341 32.7879 81.341 29.6459V22.0099H79.569V22.7019H79.568ZM77.426 28.5829C76.137 28.5829 75.058 27.5029 75.058 26.0209C75.058 24.5219 76.137 23.4269 77.426 23.4269C78.698 23.4269 79.697 24.5219 79.697 26.0209C79.697 27.5029 78.698 28.5829 77.426 28.5829ZM101.807 17.4989H97.336V29.9999H99.201V25.2639H101.806C103.874 25.2639 105.908 23.7669 105.908 21.3819C105.908 18.9969 103.875 17.4989 101.807 17.4989ZM101.855 23.5239H99.201V19.2389H101.855C103.25 19.2389 104.042 20.3939 104.042 21.3819C104.042 22.3499 103.25 23.5239 101.855 23.5239ZM113.387 21.7289C112.036 21.7289 110.637 22.3239 110.058 23.6429L111.714 24.3339C112.068 23.6429 112.728 23.4169 113.419 23.4169C114.384 23.4169 115.365 23.9959 115.381 25.0249V25.1539C115.043 24.9609 114.319 24.6719 113.435 24.6719C111.65 24.6719 109.832 25.6529 109.832 27.4859C109.832 29.1589 111.296 30.2359 112.936 30.2359C114.19 30.2359 114.882 29.6729 115.316 29.0129H115.38V29.9779H117.182V25.1849C117.183 22.9669 115.525 21.7289 113.387 21.7289ZM113.161 28.5799C112.551 28.5799 111.698 28.2739 111.698 27.5179C111.698 26.5529 112.76 26.1829 113.677 26.1829C114.496 26.1829 114.883 26.3599 115.381 26.6009C115.236 27.7599 114.239 28.5799 113.161 28.5799ZM123.744 22.0019L121.605 27.4219H121.541L119.321 22.0019H117.311L120.64 29.5769L118.742 33.7909H120.688L125.819 22.0019H123.744ZM106.938 29.9999H108.803V17.4989H106.938V29.9999Z" fill="white"/>
<path d="M47.4176 10.2432C47.4176 11.0812 47.1696 11.7482 46.6726 12.2462C46.1086 12.8382 45.3726 13.1342 44.4686 13.1342C43.6026 13.1342 42.8656 12.8342 42.2606 12.2342C41.6546 11.6332 41.3516 10.8892 41.3516 10.0012C41.3516 9.11219 41.6546 8.36819 42.2606 7.76819C42.8656 7.16719 43.6026 6.86719 44.4686 6.86719C44.8986 6.86719 45.3096 6.95119 45.6996 7.11819C46.0906 7.28619 46.4036 7.50919 46.6376 7.78819L46.1106 8.31619C45.7136 7.84119 45.1666 7.60419 44.4676 7.60419C43.8356 7.60419 43.2896 7.82619 42.8286 8.27019C42.3676 8.71419 42.1376 9.29119 42.1376 10.0002C42.1376 10.7092 42.3676 11.2862 42.8286 11.7302C43.2896 12.1742 43.8356 12.3962 44.4676 12.3962C45.1376 12.3962 45.6966 12.1732 46.1436 11.7262C46.4336 11.4352 46.6016 11.0302 46.6466 10.5112H44.4676V9.79019H47.3746C47.4046 9.94719 47.4176 10.0982 47.4176 10.2432Z" fill="white"/>
<path d="M52.0277 7.73724H49.2957V9.63924H51.7597V10.3602H49.2957V12.2622H52.0277V13.0002H48.5247V7.00024H52.0277V7.73724Z" fill="white"/>
<path d="M55.2785 13.0002H54.5075V7.73724H52.8315V7.00024H56.9545V7.73724H55.2785V13.0002Z" fill="white"/>
<path d="M59.9375 13.0002V7.00024H60.7085V13.0002H59.9375Z" fill="white"/>
<path d="M64.1277 13.0002H63.3567V7.73724H61.6807V7.00024H65.8037V7.73724H64.1277V13.0002Z" fill="white"/>
<path d="M73.6084 12.2252C73.0184 12.8312 72.2854 13.1342 71.4084 13.1342C70.5314 13.1342 69.7984 12.8312 69.2094 12.2252C68.6194 11.6192 68.3254 10.8772 68.3254 10.0002C68.3254 9.12323 68.6194 8.38123 69.2094 7.77523C69.7984 7.16923 70.5314 6.86523 71.4084 6.86523C72.2804 6.86523 73.0124 7.17023 73.6044 7.77923C74.1964 8.38823 74.4924 9.12823 74.4924 10.0002C74.4924 10.8772 74.1974 11.6192 73.6084 12.2252ZM69.7784 11.7222C70.2224 12.1722 70.7654 12.3962 71.4084 12.3962C72.0514 12.3962 72.5954 12.1712 73.0384 11.7222C73.4824 11.2722 73.7054 10.6982 73.7054 10.0002C73.7054 9.30223 73.4824 8.72823 73.0384 8.27823C72.5954 7.82823 72.0514 7.60423 71.4084 7.60423C70.7654 7.60423 70.2224 7.82923 69.7784 8.27823C69.3354 8.72823 69.1124 9.30223 69.1124 10.0002C69.1124 10.6982 69.3354 11.2722 69.7784 11.7222Z" fill="white"/>
<path d="M75.5745 13.0002V7.00024H76.5125L79.4285 11.6672H79.4615L79.4285 10.5112V7.00024H80.1995V13.0002H79.3945L76.3435 8.10625H76.3105L76.3435 9.26224V13.0002H75.5745Z" fill="white"/>
<path d="M47.4176 10.2432C47.4176 11.0812 47.1696 11.7482 46.6726 12.2462C46.1086 12.8382 45.3726 13.1342 44.4686 13.1342C43.6026 13.1342 42.8656 12.8342 42.2606 12.2342C41.6546 11.6332 41.3516 10.8892 41.3516 10.0012C41.3516 9.11219 41.6546 8.36819 42.2606 7.76819C42.8656 7.16719 43.6026 6.86719 44.4686 6.86719C44.8986 6.86719 45.3096 6.95119 45.6996 7.11819C46.0906 7.28619 46.4036 7.50919 46.6376 7.78819L46.1106 8.31619C45.7136 7.84119 45.1666 7.60419 44.4676 7.60419C43.8356 7.60419 43.2896 7.82619 42.8286 8.27019C42.3676 8.71419 42.1376 9.29119 42.1376 10.0002C42.1376 10.7092 42.3676 11.2862 42.8286 11.7302C43.2896 12.1742 43.8356 12.3962 44.4676 12.3962C45.1376 12.3962 45.6966 12.1732 46.1436 11.7262C46.4336 11.4352 46.6016 11.0302 46.6466 10.5112H44.4676V9.79019H47.3746C47.4046 9.94719 47.4176 10.0982 47.4176 10.2432Z" stroke="white" stroke-width="0.2" stroke-miterlimit="10"/>
<path d="M52.0277 7.73724H49.2957V9.63924H51.7597V10.3602H49.2957V12.2622H52.0277V13.0002H48.5247V7.00024H52.0277V7.73724Z" stroke="white" stroke-width="0.2" stroke-miterlimit="10"/>
<path d="M55.2785 13.0002H54.5075V7.73724H52.8315V7.00024H56.9545V7.73724H55.2785V13.0002Z" stroke="white" stroke-width="0.2" stroke-miterlimit="10"/>
<path d="M59.9375 13.0002V7.00024H60.7085V13.0002H59.9375Z" stroke="white" stroke-width="0.2" stroke-miterlimit="10"/>
<path d="M64.1277 13.0002H63.3567V7.73724H61.6807V7.00024H65.8037V7.73724H64.1277V13.0002Z" stroke="white" stroke-width="0.2" stroke-miterlimit="10"/>
<path d="M73.6084 12.2252C73.0184 12.8312 72.2854 13.1342 71.4084 13.1342C70.5314 13.1342 69.7984 12.8312 69.2094 12.2252C68.6194 11.6192 68.3254 10.8772 68.3254 10.0002C68.3254 9.12323 68.6194 8.38123 69.2094 7.77523C69.7984 7.16923 70.5314 6.86523 71.4084 6.86523C72.2804 6.86523 73.0124 7.17023 73.6044 7.77923C74.1964 8.38823 74.4924 9.12823 74.4924 10.0002C74.4924 10.8772 74.1974 11.6192 73.6084 12.2252ZM69.7784 11.7222C70.2224 12.1722 70.7654 12.3962 71.4084 12.3962C72.0514 12.3962 72.5954 12.1712 73.0384 11.7222C73.4824 11.2722 73.7054 10.6982 73.7054 10.0002C73.7054 9.30223 73.4824 8.72823 73.0384 8.27823C72.5954 7.82823 72.0514 7.60423 71.4084 7.60423C70.7654 7.60423 70.2224 7.82923 69.7784 8.27823C69.3354 8.72823 69.1124 9.30223 69.1124 10.0002C69.1124 10.6982 69.3354 11.2722 69.7784 11.7222Z" stroke="white" stroke-width="0.2" stroke-miterlimit="10"/>
<path d="M75.5745 13.0002V7.00024H76.5125L79.4285 11.6672H79.4615L79.4285 10.5112V7.00024H80.1995V13.0002H79.3945L76.3435 8.10625H76.3105L76.3435 9.26224V13.0002H75.5745Z" stroke="white" stroke-width="0.2" stroke-miterlimit="10"/>
<g filter="url(#filter0_ii_2680_54489)">
<path d="M10.4357 7.53784C10.1447 7.84584 9.97266 8.32384 9.97266 8.94284V31.0588C9.97266 31.6788 10.1447 32.1558 10.4357 32.4638L10.5097 32.5358L22.8987 20.1468V20.0008V19.8548L10.5097 7.46484L10.4357 7.53784Z" fill="url(#paint0_linear_2680_54489)"/>
<path d="M27.0274 24.2776L22.8984 20.1466V20.0006V19.8546L27.0284 15.7246L27.1214 15.7776L32.0144 18.5576C33.4114 19.3516 33.4114 20.6506 32.0144 21.4456L27.1214 24.2256L27.0274 24.2776Z" fill="url(#paint1_linear_2680_54489)"/>
<g filter="url(#filter1_i_2680_54489)">
<path d="M27.1215 24.225L22.8975 20.001L10.4355 32.464C10.8955 32.952 11.6565 33.012 12.5135 32.526L27.1215 24.225Z" fill="url(#paint2_linear_2680_54489)"/>
</g>
<path d="M27.1215 15.7767L12.5135 7.4767C11.6565 6.9897 10.8955 7.0507 10.4355 7.5387L22.8985 20.0017L27.1215 15.7767Z" fill="url(#paint3_linear_2680_54489)"/>
</g>
<rect x="151.5" y="0.5" width="119" height="39" rx="6.5" fill="#23262F"/>
<rect x="151.5" y="0.5" width="119" height="39" rx="6.5" stroke="#777E90"/>
<path d="M232.527 19.2013V21.4924H231.091V22.9948H232.527V28.0998C232.527 29.8429 233.315 30.5402 235.299 30.5402C235.648 30.5402 235.98 30.4987 236.27 30.4489V28.9631C236.021 28.988 235.864 29.0046 235.59 29.0046C234.701 29.0046 234.311 28.5895 234.311 27.6432V22.9948H236.27V21.4924H234.311V19.2013H232.527Z" fill="white"/>
<path d="M241.324 30.6647C243.964 30.6647 245.582 28.8967 245.582 25.9665C245.582 23.0529 243.956 21.2765 241.324 21.2765C238.685 21.2765 237.058 23.0529 237.058 25.9665C237.058 28.8967 238.676 30.6647 241.324 30.6647ZM241.324 29.0793C239.772 29.0793 238.9 27.9421 238.9 25.9665C238.9 24.0075 239.772 22.862 241.324 22.862C242.868 22.862 243.748 24.0075 243.748 25.9665C243.748 27.9338 242.868 29.0793 241.324 29.0793Z" fill="white"/>
<path d="M246.967 30.4904H248.752V25.153C248.752 23.883 249.707 23.028 251.06 23.028C251.375 23.028 251.906 23.0861 252.056 23.1359V21.3762C251.865 21.3263 251.524 21.3014 251.259 21.3014C250.08 21.3014 249.076 21.9489 248.818 22.8371H248.686V21.4509H246.967V30.4904Z" fill="white"/>
<path d="M256.487 22.7956C257.807 22.7956 258.67 23.717 258.712 25.1364H254.146C254.246 23.7253 255.167 22.7956 256.487 22.7956ZM258.703 28.05C258.371 28.7555 257.633 29.1457 256.553 29.1457C255.126 29.1457 254.204 28.1413 254.146 26.5558V26.4562H260.53V25.8337C260.53 22.9948 259.01 21.2765 256.495 21.2765C253.947 21.2765 252.328 23.111 252.328 25.9997C252.328 28.8884 253.914 30.6647 256.504 30.6647C258.571 30.6647 260.015 29.6686 260.422 28.05H258.703Z" fill="white"/>
<path d="M220.823 27.1522C220.961 29.372 222.81 30.7915 225.564 30.7915C228.506 30.7915 230.347 29.3031 230.347 26.9286C230.347 25.0616 229.298 24.0292 226.751 23.4355L225.383 23.1C223.765 22.7214 223.112 22.2138 223.112 21.3277C223.112 20.2092 224.127 19.4779 225.65 19.4779C227.095 19.4779 228.093 20.192 228.274 21.3363H230.149C230.037 19.2456 228.196 17.7744 225.675 17.7744C222.965 17.7744 221.159 19.2456 221.159 21.4567C221.159 23.2807 222.182 24.3647 224.428 24.8895L226.028 25.2767C227.671 25.6638 228.394 26.2317 228.394 27.1781C228.394 28.2793 227.259 29.0794 225.71 29.0794C224.049 29.0794 222.897 28.3309 222.733 27.1522H220.823Z" fill="white"/>
<path d="M202.336 21.3014C201.107 21.3014 200.045 21.9157 199.497 22.945H199.364V21.4509H197.646V33.4953H199.43V29.1208H199.572C200.045 30.0754 201.066 30.6398 202.352 30.6398C204.635 30.6398 206.088 28.8386 206.088 25.9665C206.088 23.0944 204.635 21.3014 202.336 21.3014ZM201.829 29.0378C200.335 29.0378 199.397 27.8591 199.397 25.9748C199.397 24.0822 200.335 22.9035 201.838 22.9035C203.348 22.9035 204.253 24.0573 204.253 25.9665C204.253 27.884 203.348 29.0378 201.829 29.0378Z" fill="white"/>
<path d="M212.333 21.3014C211.104 21.3014 210.042 21.9157 209.494 22.945H209.361V21.4509H207.643V33.4953H209.427V29.1208H209.568C210.042 30.0754 211.063 30.6398 212.349 30.6398C214.632 30.6398 216.084 28.8386 216.084 25.9665C216.084 23.0944 214.632 21.3014 212.333 21.3014ZM211.826 29.0378C210.332 29.0378 209.394 27.8591 209.394 25.9748C209.394 24.0822 210.332 22.9035 211.834 22.9035C213.345 22.9035 214.25 24.0573 214.25 25.9665C214.25 27.884 213.345 29.0378 211.826 29.0378Z" fill="white"/>
<path d="M194.444 30.4904H196.491L192.009 18.0755H189.936L185.453 30.4904H187.432L188.576 27.1953H193.308L194.444 30.4904ZM190.873 20.3297H191.02L192.818 25.5778H189.067L190.873 20.3297Z" fill="white"/>
<path d="M186.65 8.71069V14.6997H188.813C190.597 14.6997 191.631 13.5999 191.631 11.6865C191.631 9.80225 190.589 8.71069 188.813 8.71069H186.65ZM187.58 9.55737H188.709C189.95 9.55737 190.685 10.3459 190.685 11.699C190.685 13.0728 189.962 13.853 188.709 13.853H187.58V9.55737Z" fill="white"/>
<path d="M194.796 14.7869C196.116 14.7869 196.925 13.9028 196.925 12.4377C196.925 10.981 196.112 10.0928 194.796 10.0928C193.476 10.0928 192.663 10.981 192.663 12.4377C192.663 13.9028 193.472 14.7869 194.796 14.7869ZM194.796 13.9941C194.02 13.9941 193.584 13.4255 193.584 12.4377C193.584 11.4583 194.02 10.8855 194.796 10.8855C195.568 10.8855 196.008 11.4583 196.008 12.4377C196.008 13.4214 195.568 13.9941 194.796 13.9941Z" fill="white"/>
<path d="M203.817 10.1799H202.925L202.12 13.6289H202.049L201.119 10.1799H200.265L199.335 13.6289H199.268L198.459 10.1799H197.554L198.799 14.6997H199.717L200.646 11.3711H200.717L201.651 14.6997H202.576L203.817 10.1799Z" fill="white"/>
<path d="M204.845 14.6997H205.737V12.0559C205.737 11.3503 206.156 10.9104 206.816 10.9104C207.476 10.9104 207.792 11.2715 207.792 11.9978V14.6997H208.684V11.7737C208.684 10.6987 208.128 10.0928 207.119 10.0928C206.439 10.0928 205.99 10.3958 205.77 10.8979H205.704V10.1799H204.845V14.6997Z" fill="white"/>
<path d="M210.089 14.6997H210.982V8.41602H210.089V14.6997Z" fill="white"/>
<path d="M214.338 14.7869C215.657 14.7869 216.467 13.9028 216.467 12.4377C216.467 10.981 215.653 10.0928 214.338 10.0928C213.018 10.0928 212.204 10.981 212.204 12.4377C212.204 13.9028 213.014 14.7869 214.338 14.7869ZM214.338 13.9941C213.562 13.9941 213.126 13.4255 213.126 12.4377C213.126 11.4583 213.562 10.8855 214.338 10.8855C215.11 10.8855 215.55 11.4583 215.55 12.4377C215.55 13.4214 215.11 13.9941 214.338 13.9941Z" fill="white"/>
<path d="M219.126 14.0232C218.64 14.0232 218.287 13.7866 218.287 13.3799C218.287 12.9814 218.569 12.7698 219.192 12.7283L220.296 12.6577V13.0354C220.296 13.5957 219.798 14.0232 219.126 14.0232ZM218.897 14.7744C219.491 14.7744 219.985 14.5171 220.254 14.0647H220.325V14.6997H221.184V11.6118C221.184 10.6572 220.545 10.0928 219.412 10.0928C218.387 10.0928 217.656 10.5908 217.565 11.3669H218.428C218.528 11.0474 218.872 10.8647 219.37 10.8647C219.981 10.8647 220.296 11.1345 220.296 11.6118V12.002L219.072 12.0725C217.997 12.1389 217.391 12.6079 217.391 13.4214C217.391 14.2473 218.026 14.7744 218.897 14.7744Z" fill="white"/>
<path d="M224.212 14.7744C224.835 14.7744 225.362 14.4797 225.632 13.9858H225.702V14.6997H226.557V8.41602H225.665V10.8979H225.598C225.354 10.3999 224.831 10.1052 224.212 10.1052C223.071 10.1052 222.336 11.01 222.336 12.4377C222.336 13.8696 223.063 14.7744 224.212 14.7744ZM224.465 10.9062C225.212 10.9062 225.681 11.4998 225.681 12.4419C225.681 13.3882 225.217 13.9734 224.465 13.9734C223.71 13.9734 223.258 13.3965 223.258 12.4377C223.258 11.4873 223.714 10.9062 224.465 10.9062Z" fill="white"/>
<path d="M232.344 14.7869C233.664 14.7869 234.473 13.9028 234.473 12.4377C234.473 10.981 233.659 10.0928 232.344 10.0928C231.024 10.0928 230.21 10.981 230.21 12.4377C230.21 13.9028 231.02 14.7869 232.344 14.7869ZM232.344 13.9941C231.568 13.9941 231.132 13.4255 231.132 12.4377C231.132 11.4583 231.568 10.8855 232.344 10.8855C233.116 10.8855 233.556 11.4583 233.556 12.4377C233.556 13.4214 233.116 13.9941 232.344 13.9941Z" fill="white"/>
<path d="M235.654 14.6997H236.546V12.0559C236.546 11.3503 236.966 10.9104 237.625 10.9104C238.285 10.9104 238.601 11.2715 238.601 11.9978V14.6997H239.493V11.7737C239.493 10.6987 238.937 10.0928 237.928 10.0928C237.248 10.0928 236.8 10.3958 236.58 10.8979H236.513V10.1799H235.654V14.6997Z" fill="white"/>
<path d="M243.603 9.05518V10.2007H242.885V10.9519H243.603V13.5044C243.603 14.376 243.997 14.7246 244.989 14.7246C245.163 14.7246 245.329 14.7039 245.475 14.679V13.936C245.35 13.9485 245.271 13.9568 245.134 13.9568C244.69 13.9568 244.495 13.7493 244.495 13.2761V10.9519H245.475V10.2007H244.495V9.05518H243.603Z" fill="white"/>
<path d="M246.673 14.6997H247.565V12.0601C247.565 11.3752 247.972 10.9146 248.702 10.9146C249.333 10.9146 249.669 11.2798 249.669 12.002V14.6997H250.561V11.782C250.561 10.707 249.968 10.0969 249.005 10.0969C248.324 10.0969 247.847 10.3999 247.627 10.9062H247.557V8.41602H246.673V14.6997Z" fill="white"/>
<path d="M253.78 10.8523C254.44 10.8523 254.872 11.313 254.893 12.0227H252.61C252.66 11.3171 253.121 10.8523 253.78 10.8523ZM254.889 13.4795C254.723 13.8323 254.353 14.0273 253.814 14.0273C253.1 14.0273 252.639 13.5251 252.61 12.7324V12.6826H255.802V12.3713C255.802 10.9519 255.042 10.0928 253.785 10.0928C252.51 10.0928 251.701 11.01 251.701 12.4543C251.701 13.8987 252.494 14.7869 253.789 14.7869C254.822 14.7869 255.544 14.2888 255.748 13.4795H254.889Z" fill="white"/>
<path d="M175.77 20.3011C175.792 18.6201 176.694 17.0295 178.127 16.149C177.223 14.8587 175.71 14.0406 174.135 13.9913C172.456 13.8151 170.828 14.9962 169.972 14.9962C169.1 14.9962 167.783 14.0088 166.364 14.038C164.515 14.0978 162.791 15.1491 161.891 16.7659C159.957 20.1143 161.4 25.0354 163.252 27.742C164.179 29.0673 165.262 30.5478 166.68 30.4953C168.067 30.4377 168.585 29.6108 170.259 29.6108C171.918 29.6108 172.404 30.4953 173.85 30.4619C175.339 30.4377 176.276 29.1306 177.171 27.7927C177.837 26.8484 178.349 25.8047 178.689 24.7002C176.94 23.9604 175.772 22.2002 175.77 20.3011Z" fill="white"/>
<path d="M173.038 12.2113C173.85 11.2371 174.25 9.98494 174.153 8.7207C172.913 8.85092 171.768 9.44348 170.945 10.3803C170.141 11.2956 169.722 12.5258 169.802 13.7417C171.042 13.7545 172.261 13.178 173.038 12.2113Z" fill="white"/>
<defs>
<filter id="filter0_ii_2680_54489" x="9.97266" y="7.14062" width="23.0898" height="25.7207" filterUnits="userSpaceOnUse" color-interpolation-filters="sRGB">
<feFlood flood-opacity="0" result="BackgroundImageFix"/>
<feBlend mode="normal" in="SourceGraphic" in2="BackgroundImageFix" result="shape"/>
<feColorMatrix in="SourceAlpha" type="matrix" values="0 0 0 0 0 0 0 0 0 0 0 0 0 0 0 0 0 0 127 0" result="hardAlpha"/>
<feOffset dy="-0.15"/>
<feComposite in2="hardAlpha" operator="arithmetic" k2="-1" k3="1"/>
<feColorMatrix type="matrix" values="0 0 0 0 0 0 0 0 0 0 0 0 0 0 0 0 0 0 0.12 0"/>
<feBlend mode="normal" in2="shape" result="effect1_innerShadow_2680_54489"/>
<feColorMatrix in="SourceAlpha" type="matrix" values="0 0 0 0 0 0 0 0 0 0 0 0 0 0 0 0 0 0 127 0" result="hardAlpha"/>
<feOffset dy="0.15"/>
<feComposite in2="hardAlpha" operator="arithmetic" k2="-1" k3="1"/>
<feColorMatrix type="matrix" values="0 0 0 0 1 0 0 0 0 1 0 0 0 0 1 0 0 0 0.25 0"/>
<feBlend mode="normal" in2="effect1_innerShadow_2680_54489" result="effect2_innerShadow_2680_54489"/>
</filter>
<filter id="filter1_i_2680_54489" x="10.4355" y="20.001" width="16.6855" height="12.8604" filterUnits="userSpaceOnUse" color-interpolation-filters="sRGB">
<feFlood flood-opacity="0" result="BackgroundImageFix"/>
<feBlend mode="normal" in="SourceGraphic" in2="BackgroundImageFix" result="shape"/>
<feColorMatrix in="SourceAlpha" type="matrix" values="0 0 0 0 0 0 0 0 0 0 0 0 0 0 0 0 0 0 127 0" result="hardAlpha"/>
<feOffset dy="-0.15"/>
<feComposite in2="hardAlpha" operator="arithmetic" k2="-1" k3="1"/>
<feColorMatrix type="matrix" values="0 0 0 0 0 0 0 0 0 0 0 0 0 0 0 0 0 0 0.08 0"/>
<feBlend mode="normal" in2="shape" result="effect1_innerShadow_2680_54489"/>
</filter>
<linearGradient id="paint0_linear_2680_54489" x1="21.8005" y1="8.70884" x2="5.01846" y2="25.4908" gradientUnits="userSpaceOnUse">
<stop stop-color="#00A0FF"/>
<stop offset="0.0066" stop-color="#00A1FF"/>
<stop offset="0.2601" stop-color="#00BEFF"/>
<stop offset="0.5122" stop-color="#00D2FF"/>
<stop offset="0.7604" stop-color="#00DFFF"/>
<stop offset="1" stop-color="#00E3FF"/>
</linearGradient>
<linearGradient id="paint1_linear_2680_54489" x1="33.8329" y1="20.0006" x2="9.63704" y2="20.0006" gradientUnits="userSpaceOnUse">
<stop stop-color="#FFE000"/>
<stop offset="0.4087" stop-color="#FFBD00"/>
<stop offset="0.7754" stop-color="#FFA500"/>
<stop offset="1" stop-color="#FF9C00"/>
</linearGradient>
<linearGradient id="paint2_linear_2680_54489" x1="24.8276" y1="22.2949" x2="2.06915" y2="45.0534" gradientUnits="userSpaceOnUse">
<stop stop-color="#FF3A44"/>
<stop offset="1" stop-color="#C31162"/>
</linearGradient>
<linearGradient id="paint3_linear_2680_54489" x1="7.29695" y1="0.176501" x2="17.4592" y2="10.3388" gradientUnits="userSpaceOnUse">
<stop stop-color="#32A071"/>
<stop offset="0.0685" stop-color="#2DA771"/>
<stop offset="0.4762" stop-color="#15CF74"/>
<stop offset="0.8009" stop-color="#06E775"/>
<stop offset="1" stop-color="#00F076"/>
</linearGradient>
</defs>
</svg>
