<svg width="24" height="24" viewBox="0 0 24 24" fill="none" xmlns="http://www.w3.org/2000/svg">
<path d="M17.9999 15.0005C17.3708 15.002 16.7509 15.1522 16.191 15.439C15.631 15.7257 15.1468 16.1409 14.7779 16.6505L9.76289 13.3075C10.0789 12.4648 10.0789 11.5362 9.76289 10.6935L14.7779 7.3505C15.3408 8.11364 16.1574 8.65103 17.0809 8.86613C18.0045 9.08123 18.9745 8.95995 19.8166 8.52406C20.6588 8.08817 21.3179 7.36626 21.6756 6.48802C22.0332 5.60979 22.066 4.63279 21.7679 3.73257C21.4699 2.83235 20.8606 2.06791 20.0496 1.5766C19.2385 1.08528 18.2788 0.899296 17.3429 1.05206C16.407 1.20482 15.5563 1.68631 14.9435 2.41002C14.3308 3.13374 13.9962 4.05224 13.9999 5.0005C14.0064 5.14622 14.0211 5.29145 14.0439 5.4355L8.65289 9.0295C8.07837 8.51159 7.36602 8.17137 6.6021 8.05003C5.83818 7.92869 5.05546 8.03144 4.34874 8.34584C3.64202 8.66024 3.04162 9.17281 2.62025 9.82145C2.19888 10.4701 1.97461 11.227 1.97461 12.0005C1.97461 12.774 2.19888 13.5309 2.62025 14.1796C3.04162 14.8282 3.64202 15.3408 4.34874 15.6552C5.05546 15.9696 5.83818 16.0723 6.6021 15.951C7.36602 15.8296 8.07837 15.4894 8.65289 14.9715L14.0439 18.5655C14.0211 18.7096 14.0064 18.8548 13.9999 19.0005C13.9999 19.7916 14.2345 20.565 14.674 21.2228C15.1135 21.8806 15.7383 22.3933 16.4692 22.696C17.2001 22.9988 18.0043 23.078 18.7803 22.9236C19.5562 22.7693 20.2689 22.3883 20.8283 21.8289C21.3877 21.2695 21.7687 20.5568 21.923 19.7809C22.0774 19.0049 21.9982 18.2007 21.6954 17.4698C21.3927 16.7389 20.88 16.1142 20.2222 15.6746C19.5644 15.2351 18.791 15.0005 17.9999 15.0005ZM17.9999 3.0005C18.3955 3.0005 18.7821 3.1178 19.111 3.33756C19.4399 3.55733 19.6963 3.86969 19.8477 4.23514C19.999 4.60059 20.0386 5.00272 19.9615 5.39068C19.8843 5.77865 19.6938 6.13501 19.4141 6.41472C19.1344 6.69442 18.778 6.8849 18.3901 6.96207C18.0021 7.03925 17.6 6.99964 17.2345 6.84826C16.8691 6.69689 16.5567 6.44054 16.337 6.11164C16.1172 5.78275 15.9999 5.39607 15.9999 5.0005C15.9999 4.47007 16.2106 3.96136 16.5857 3.58629C16.9608 3.21122 17.4695 3.0005 17.9999 3.0005ZM5.99989 14.0005C5.60432 14.0005 5.21764 13.8832 4.88875 13.6634C4.55985 13.4437 4.3035 13.1313 4.15213 12.7659C4.00075 12.4004 3.96114 11.9983 4.03832 11.6103C4.11549 11.2224 4.30597 10.866 4.58567 10.5863C4.86538 10.3066 5.22174 10.1161 5.60971 10.0389C5.99767 9.96176 6.3998 10.0014 6.76525 10.1527C7.13071 10.3041 7.44306 10.5605 7.66283 10.8894C7.88259 11.2183 7.99989 11.6049 7.99989 12.0005C7.99989 12.5309 7.78917 13.0396 7.4141 13.4147C7.03903 13.7898 6.53032 14.0005 5.99989 14.0005ZM17.9999 21.0005C17.6043 21.0005 17.2177 20.8832 16.8888 20.6634C16.5599 20.4437 16.3035 20.1313 16.1521 19.7659C16.0008 19.4004 15.9612 18.9983 16.0383 18.6103C16.1155 18.2224 16.306 17.866 16.5857 17.5863C16.8654 17.3066 17.2218 17.1161 17.6097 17.0389C17.9977 16.9618 18.3998 17.0014 18.7653 17.1527C19.1307 17.3041 19.4431 17.5605 19.6628 17.8894C19.8826 18.2183 19.9999 18.6049 19.9999 19.0005C19.9999 19.5309 19.7892 20.0396 19.4141 20.4147C19.039 20.7898 18.5303 21.0005 17.9999 21.0005Z" fill="white"/>
</svg>
