<svg width="21" height="22" viewBox="0 0 21 22" fill="none" xmlns="http://www.w3.org/2000/svg">
<path d="M16.9999 14.0005C16.3708 14.002 15.7509 14.1522 15.191 14.439C14.631 14.7257 14.1468 15.1409 13.7779 15.6505L8.76289 12.3075C9.07893 11.4648 9.07893 10.5362 8.76289 9.6935L13.7779 6.3505C14.3408 7.11364 15.1574 7.65103 16.0809 7.86613C17.0045 8.08123 17.9745 7.95995 18.8166 7.52406C19.6588 7.08817 20.3179 6.36626 20.6756 5.48802C21.0332 4.60979 21.066 3.63279 20.7679 2.73257C20.4699 1.83235 19.8606 1.06791 19.0496 0.576596C18.2385 0.0852811 17.2788 -0.100704 16.3429 0.0520557C15.407 0.204815 14.5563 0.686306 13.9435 1.41002C13.3308 2.13374 12.9962 3.05224 12.9999 4.0005C13.0064 4.14622 13.0211 4.29145 13.0439 4.4355L7.65289 8.0295C7.07837 7.51159 6.36602 7.17137 5.6021 7.05003C4.83818 6.92869 4.05546 7.03144 3.34874 7.34584C2.64202 7.66024 2.04162 8.17281 1.62025 8.82145C1.19888 9.4701 0.974609 10.227 0.974609 11.0005C0.974609 11.774 1.19888 12.5309 1.62025 13.1796C2.04162 13.8282 2.64202 14.3408 3.34874 14.6552C4.05546 14.9696 4.83818 15.0723 5.6021 14.951C6.36602 14.8296 7.07837 14.4894 7.65289 13.9715L13.0439 17.5655C13.0211 17.7096 13.0064 17.8548 12.9999 18.0005C12.9999 18.7916 13.2345 19.565 13.674 20.2228C14.1135 20.8806 14.7383 21.3933 15.4692 21.696C16.2001 21.9988 17.0043 22.078 17.7803 21.9236C18.5562 21.7693 19.2689 21.3883 19.8283 20.8289C20.3877 20.2695 20.7687 19.5568 20.923 18.7809C21.0774 18.0049 20.9982 17.2007 20.6954 16.4698C20.3927 15.7389 19.88 15.1142 19.2222 14.6746C18.5644 14.2351 17.791 14.0005 16.9999 14.0005ZM16.9999 2.0005C17.3955 2.0005 17.7821 2.1178 18.111 2.33756C18.4399 2.55733 18.6963 2.86969 18.8477 3.23514C18.999 3.60059 19.0386 4.00272 18.9615 4.39068C18.8843 4.77865 18.6938 5.13501 18.4141 5.41472C18.1344 5.69442 17.778 5.8849 17.3901 5.96207C17.0021 6.03925 16.6 5.99964 16.2345 5.84826C15.8691 5.69689 15.5567 5.44054 15.337 5.11164C15.1172 4.78275 14.9999 4.39607 14.9999 4.0005C14.9999 3.47007 15.2106 2.96136 15.5857 2.58629C15.9608 2.21122 16.4695 2.0005 16.9999 2.0005ZM4.99989 13.0005C4.60432 13.0005 4.21764 12.8832 3.88875 12.6634C3.55985 12.4437 3.3035 12.1313 3.15213 11.7659C3.00075 11.4004 2.96114 10.9983 3.03832 10.6103C3.11549 10.2224 3.30597 9.866 3.58567 9.58629C3.86538 9.30659 4.22174 9.1161 4.60971 9.03893C4.99767 8.96176 5.3998 9.00137 5.76525 9.15274C6.13071 9.30412 6.44306 9.56047 6.66283 9.88936C6.88259 10.2183 6.99989 10.6049 6.99989 11.0005C6.99989 11.5309 6.78917 12.0396 6.4141 12.4147C6.03903 12.7898 5.53032 13.0005 4.99989 13.0005ZM16.9999 20.0005C16.6043 20.0005 16.2177 19.8832 15.8888 19.6634C15.5599 19.4437 15.3035 19.1313 15.1521 18.7659C15.0008 18.4004 14.9612 17.9983 15.0383 17.6103C15.1155 17.2224 15.306 16.866 15.5857 16.5863C15.8654 16.3066 16.2218 16.1161 16.6097 16.0389C16.9977 15.9618 17.3998 16.0014 17.7653 16.1527C18.1307 16.3041 18.4431 16.5605 18.6628 16.8894C18.8826 17.2183 18.9999 17.6049 18.9999 18.0005C18.9999 18.5309 18.7892 19.0396 18.4141 19.4147C18.039 19.7898 17.5303 20.0005 16.9999 20.0005Z" fill="#3772FF"/>
</svg>
