<svg width="681" height="473" viewBox="0 0 681 473" fill="none" xmlns="http://www.w3.org/2000/svg">
<circle cx="54.1884" cy="418.188" r="41.2352" transform="rotate(-23.3151 54.1884 418.188)" fill="white"/>
<g clip-path="url(#clip0_2680_54550)">
<circle cx="53.6957" cy="419.451" r="28.7741" transform="rotate(-23.3151 53.6957 419.451)" fill="#7F6EE9"/>
<path d="M45.7639 399.437L45.772 399.455C45.8311 399.541 45.8797 399.654 45.9282 399.766L51.7579 413.293C51.7715 413.376 51.7233 413.419 51.6832 413.481C51.37 413.838 51.0676 414.169 50.7464 414.507C50.3074 414.986 49.8578 415.491 49.4188 415.969L47.837 417.719C47.3981 418.197 46.9591 418.676 46.5389 419.146C46.0304 419.721 45.4951 420.285 44.9866 420.861C44.5476 421.339 44.1167 421.836 43.659 422.323C43.2977 422.723 42.9283 423.105 42.5857 423.497C42.5563 423.532 42.5269 423.567 42.4893 423.583C42.4706 423.591 42.4706 423.591 42.4437 423.58L42.5864 422.518C42.8666 420.484 43.1362 418.477 43.4164 416.443C43.7044 414.272 44.0111 412.093 44.2991 409.923C44.5686 407.916 44.8569 405.901 45.1264 403.894C45.3193 402.431 45.5309 400.961 45.7238 399.498C45.7263 399.453 45.737 399.426 45.7208 399.388L45.7396 399.38C45.7289 399.407 45.7558 399.418 45.7639 399.437Z" fill="#F3F3F3"/>
<path d="M65.5387 413.628L65.5655 413.638L63.5111 416.459L57.0509 425.317C57.0214 425.351 56.992 425.386 56.9813 425.413C56.925 425.438 56.9008 425.381 56.8927 425.362L56.8199 425.194L51.823 413.599C51.7988 413.543 51.7664 413.468 51.7609 413.404C51.7473 413.321 51.8117 413.315 51.8761 413.31C52.1685 413.317 52.4796 413.316 52.7721 413.324C53.6493 413.346 54.5265 413.369 55.3956 413.372C56.1548 413.379 56.9033 413.412 57.6624 413.418C58.4216 413.425 59.1888 413.45 59.948 413.457C60.5972 413.466 61.2732 413.486 61.9224 413.496C62.5716 413.505 63.2476 413.525 63.8968 413.535C64.4091 413.536 64.9296 413.557 65.4419 413.558C65.4662 413.615 65.493 413.625 65.5387 413.628Z" fill="#8A8DA7"/>
<path d="M61.9837 437.072C61.9918 437.091 61.9811 437.118 61.9892 437.137L61.9704 437.145C61.9542 437.107 61.9086 437.105 61.8737 437.075C60.0071 435.944 58.1323 434.795 56.2657 433.664C54.3641 432.504 52.4357 431.333 50.5342 430.172C48.6944 429.052 46.8278 427.921 44.988 426.801C44.5018 426.499 44.0238 426.215 43.5376 425.913C43.5027 425.884 43.4758 425.873 43.4141 425.833C43.4703 425.809 43.524 425.83 43.5509 425.841C45.5955 426.094 47.6213 426.356 49.6658 426.609C52.019 426.907 54.3534 427.214 56.7065 427.512L57.9059 427.663C57.9596 427.684 57.9758 427.721 57.992 427.759L61.8892 436.802C61.9297 436.896 61.9701 436.989 61.9837 437.072Z" fill="#F3F3F3"/>
<path d="M42.4403 423.628L42.4322 423.609C42.9194 423.087 43.3797 422.555 43.8668 422.034C44.4824 421.346 45.1061 420.677 45.7216 419.989C46.19 419.475 46.6691 418.935 47.1375 418.422C47.8307 417.656 48.5132 416.917 49.2064 416.151C49.6748 415.638 50.1432 415.124 50.6223 414.584C50.9542 414.219 51.3048 413.845 51.6367 413.48C51.6662 413.445 51.7143 413.402 51.7169 413.356C51.7357 413.348 51.7438 413.367 51.7331 413.394L56.8675 425.307C56.8917 425.363 56.8972 425.428 56.9509 425.449C56.9377 425.521 56.8759 425.481 56.849 425.471C56.6398 425.45 56.4305 425.429 56.2131 425.389C51.6705 424.811 47.101 424.222 42.5584 423.643C42.5315 423.633 42.4859 423.63 42.4403 423.628Z" fill="#C5C8D9"/>
<path d="M66.4692 415.895L66.488 415.887C66.5042 415.925 66.4828 415.978 66.4802 416.024C65.1224 422.371 63.7726 428.736 62.4148 435.083C62.2766 435.743 62.1197 436.412 61.9816 437.072C61.9547 437.061 61.9466 437.042 61.9386 437.024L61.89 436.911L57.9685 427.812L57.8957 427.643C58.4816 426.834 59.0567 426.053 59.6425 425.244C61.9056 422.133 64.1767 419.041 66.4211 415.938C66.4479 415.949 66.4586 415.922 66.4692 415.895Z" fill="#C5C8D9"/>
<path d="M51.7519 413.385L51.7357 413.347L51.6872 413.235L45.8171 399.614C45.7928 399.558 45.7579 399.529 45.7711 399.456C52.3045 404.137 58.8297 408.8 65.3443 413.489C65.4061 413.529 65.4947 413.58 65.5458 413.647C65.2427 413.666 64.9422 413.64 64.6498 413.632C64.293 413.63 63.9094 413.618 63.5526 413.616C63.3246 413.603 63.0859 413.617 62.8579 413.604C62.4742 413.591 62.0987 413.597 61.7151 413.585C61.4951 413.59 61.2671 413.578 61.039 413.565L59.5583 413.535C59.3115 413.531 59.0647 413.526 58.7991 413.529L57.7288 413.523C57.5088 413.529 57.2808 413.516 57.0527 413.503L55.5719 413.474C55.3251 413.469 55.0783 413.464 54.8128 413.467L53.7425 413.461C53.4957 413.457 53.2676 413.444 53.0208 413.439C52.5916 413.424 52.1624 413.408 51.7225 413.42C51.7707 413.377 51.7519 413.385 51.7519 413.385Z" fill="#C5C8D9"/>
</g>
<circle cx="624.5" cy="399.5" r="21.5" fill="white"/>
<path d="M638.977 399.997C638.977 408.242 632.294 414.926 624.049 414.926C615.805 414.926 609.121 408.242 609.121 399.997C609.121 391.753 615.805 385.069 624.049 385.069C632.294 385.069 638.977 391.753 638.977 399.997Z" fill="#1BA27A"/>
<path d="M631.057 392.597H616.922V396.009H622.283V401.025H625.696V396.009H631.057V392.597Z" fill="white"/>
<path d="M624.021 401.56C619.586 401.56 615.991 400.858 615.991 399.992C615.991 399.126 619.586 398.424 624.021 398.424C628.457 398.424 632.052 399.126 632.052 399.992C632.052 400.858 628.457 401.56 624.021 401.56ZM633.039 400.253C633.039 399.137 629.002 398.231 624.021 398.231C619.041 398.231 615.004 399.137 615.004 400.253C615.004 401.236 618.134 402.056 622.283 402.237V409.438H625.695V402.24C629.875 402.064 633.039 401.242 633.039 400.253Z" fill="white"/>
<circle cx="101.254" cy="96.2535" r="21.5" transform="rotate(-23.3151 101.254 96.2535)" fill="white"/>
<g clip-path="url(#clip1_2680_54550)">
<circle cx="100.997" cy="96.912" r="15.0028" transform="rotate(-23.3151 100.997 96.912)" fill="white"/>
<path fill-rule="evenodd" clip-rule="evenodd" d="M106.935 110.69C99.3252 113.969 90.4987 110.46 87.2192 102.85C83.9396 95.2404 87.4493 86.4139 95.0589 83.1344C102.669 79.8548 111.495 83.3646 114.775 90.9741C118.054 98.5837 114.544 107.41 106.935 110.69ZM107.765 97.2157C106.828 95.0431 104.942 94.4009 101.438 95.0046L99.79 91.1813C100.859 90.9597 101.98 90.9776 103.185 91.2456L103.54 88.8502C102.024 88.5027 100.443 88.5589 98.9547 89.0132L98.4344 87.8059L96.6174 88.589L97.1203 89.7558C94.5963 91.0825 93.4632 93.3362 94.3995 95.5088C95.3793 97.7821 97.2761 98.2767 100.655 97.7272L102.355 101.671C100.91 102.055 99.5224 101.937 97.9326 101.525L97.3851 103.931C99.2903 104.416 101.292 104.37 103.173 103.8L104.04 105.811L105.857 105.028L104.998 103.036C107.555 101.672 108.718 99.4287 107.765 97.2157ZM99.6048 95.2932C97.7979 95.5237 97.1676 95.151 96.8031 94.3054C96.422 93.4211 96.8073 92.4198 98.0797 91.752L99.6048 95.2932ZM105.361 98.4182C105.777 99.3844 105.311 100.372 104.039 101.04L102.47 97.3985C104.298 97.1596 104.97 97.5132 105.361 98.4191L105.361 98.4182Z" fill="#1E68F6"/>
</g>
<circle cx="255.254" cy="28.2535" r="21.5" transform="rotate(-23.3151 255.254 28.2535)" fill="white"/>
<g clip-path="url(#clip2_2680_54550)">
<circle cx="254.997" cy="28.912" r="15.0028" transform="rotate(-23.3151 254.997 28.912)" fill="#25292C"/>
<path d="M257.213 18.4261L259.536 17.4249L257.193 25.2891C256.344 28.136 253.505 29.3594 250.851 28.0222L243.523 24.3262L245.849 23.3241L251.414 26.1322C252.224 26.5385 253.099 26.5847 253.85 26.2609C254.602 25.937 255.169 25.2691 255.43 24.4015L257.213 18.4261Z" fill="white"/>
<path d="M252.75 39.4108L250.425 40.4128L252.785 32.4993C253.634 29.6525 256.472 28.4291 259.126 29.7662L266.499 33.4852L264.176 34.4865L258.564 31.6562C257.754 31.25 256.879 31.2037 256.127 31.5276C255.376 31.8514 254.809 32.5193 254.548 33.3869L252.75 39.4108Z" fill="white"/>
</g>
<circle cx="651" cy="116" r="30" fill="white"/>
<g clip-path="url(#clip3_2680_54550)">
<path d="M670.613 121.764C667.816 132.985 656.448 139.806 645.243 137.009C634.022 134.212 627.201 122.844 629.998 111.639C632.795 100.419 644.147 93.5976 655.368 96.3948C666.573 99.1754 673.41 110.543 670.613 121.764Z" fill="url(#paint0_linear_2680_54550)"/>
<path d="M660.271 114.093C660.68 111.313 658.57 109.808 655.659 108.811L656.607 105.033L654.318 104.46L653.402 108.14C652.797 107.993 652.175 107.846 651.554 107.715L652.469 104.019L650.18 103.446L649.248 107.208C648.741 107.093 648.25 106.979 647.776 106.864V106.848L644.603 106.063L643.998 108.516C643.998 108.516 645.699 108.909 645.666 108.925C646.598 109.154 646.762 109.776 646.729 110.266L645.65 114.568C645.715 114.584 645.797 114.6 645.895 114.649C645.813 114.633 645.731 114.617 645.65 114.584L644.145 120.602C644.03 120.88 643.736 121.306 643.098 121.142C643.115 121.175 641.43 120.733 641.43 120.733L640.285 123.366L643.278 124.119C643.834 124.266 644.374 124.397 644.914 124.544L643.965 128.355L646.255 128.927L647.203 125.149C647.825 125.313 648.446 125.476 649.035 125.623L648.103 129.385L650.392 129.957L651.341 126.147C655.266 126.883 658.21 126.588 659.437 123.039C660.434 120.194 659.388 118.542 657.327 117.462C658.848 117.119 659.976 116.121 660.271 114.093ZM655.021 121.453C654.318 124.299 649.509 122.761 647.956 122.369L649.215 117.315C650.769 117.708 655.773 118.476 655.021 121.453ZM655.74 114.044C655.086 116.645 651.096 115.32 649.804 114.993L650.948 110.413C652.24 110.741 656.411 111.346 655.74 114.044Z" fill="white"/>
</g>
<defs>
<linearGradient id="paint0_linear_2680_54550" x1="650.294" y1="95.7575" x2="650.294" y2="137.632" gradientUnits="userSpaceOnUse">
<stop stop-color="#F9AA4B"/>
<stop offset="1" stop-color="#F7931A"/>
</linearGradient>
<clipPath id="clip0_2680_54550">
<rect width="57.5482" height="57.5482" fill="white" transform="translate(15.8828 404.415) rotate(-23.3151)"/>
</clipPath>
<clipPath id="clip1_2680_54550">
<rect width="30.0056" height="30.0056" fill="white" transform="translate(81.2812 89.0723) rotate(-23.3151)"/>
</clipPath>
<clipPath id="clip2_2680_54550">
<rect width="30.0056" height="30.0056" fill="white" transform="translate(235.281 21.0723) rotate(-23.3151)"/>
</clipPath>
<clipPath id="clip3_2680_54550">
<rect width="41.8682" height="41.8682" fill="white" transform="translate(629.371 95.7676)"/>
</clipPath>
</defs>
</svg>
