<svg width="144" height="16" viewBox="0 0 144 16" fill="none" xmlns="http://www.w3.org/2000/svg">
<g clip-path="url(#clip0_3623_9808)">
<path d="M16 8C16 3.58172 12.4183 0 8 0C3.58172 0 0 3.58172 0 8C0 11.993 2.92547 15.3027 6.75 15.9028V10.3125H4.71875V8H6.75V6.2375C6.75 4.2325 7.94438 3.125 9.77172 3.125C10.6467 3.125 11.5625 3.28125 11.5625 3.28125V5.25H10.5538C9.56 5.25 9.25 5.86672 9.25 6.5V8H11.4688L11.1141 10.3125H9.25V15.9028C13.0745 15.3027 16 11.993 16 8Z" fill="#777E90"/>
</g>
<g clip-path="url(#clip1_3623_9808)">
<path d="M47.7014 14.5005C53.7377 14.5005 57.0402 9.49829 57.0402 5.16173C57.0402 5.0211 57.037 4.87735 57.0308 4.73673C57.6732 4.27213 58.2276 3.69666 58.668 3.03735C58.0697 3.30356 57.4344 3.47741 56.7839 3.55298C57.4688 3.14243 57.9817 2.49747 58.2273 1.73767C57.583 2.11953 56.8784 2.3889 56.1436 2.53423C55.6485 2.0082 54.994 1.6599 54.2811 1.54319C53.5682 1.42648 52.8368 1.54786 52.1998 1.88855C51.5628 2.22925 51.0558 2.77029 50.7572 3.42803C50.4586 4.08577 50.3849 4.82357 50.5477 5.52735C49.243 5.46188 47.9666 5.12296 46.8013 4.53255C45.636 3.94215 44.6078 3.11345 43.7833 2.10017C43.3642 2.82265 43.236 3.67759 43.4247 4.49122C43.6133 5.30485 44.1047 6.01612 44.7989 6.48048C44.2777 6.46393 43.768 6.32361 43.3117 6.0711V6.11173C43.3113 6.86992 43.5734 7.60488 44.0535 8.19167C44.5336 8.77846 45.2022 9.18086 45.9455 9.33048C45.4627 9.46257 44.956 9.48182 44.4645 9.38673C44.6743 10.0388 45.0824 10.6091 45.6318 11.018C46.1813 11.427 46.8447 11.6542 47.5295 11.668C46.3669 12.5812 44.9308 13.0766 43.4523 13.0742C43.1902 13.0738 42.9282 13.0578 42.668 13.0261C44.1699 13.9897 45.917 14.5014 47.7014 14.5005Z" fill="#777E90"/>
</g>
<g clip-path="url(#clip2_3623_9808)">
<path d="M93.332 1.44062C95.4695 1.44062 95.7227 1.45 96.5633 1.4875C97.3445 1.52187 97.7664 1.65313 98.0477 1.7625C98.4195 1.90625 98.6883 2.08125 98.9664 2.35938C99.2477 2.64062 99.4195 2.90625 99.5633 3.27813C99.6727 3.55938 99.8039 3.98438 99.8383 4.7625C99.8758 5.60625 99.8852 5.85938 99.8852 7.99375C99.8852 10.1313 99.8758 10.3844 99.8383 11.225C99.8039 12.0063 99.6727 12.4281 99.5633 12.7094C99.4195 13.0813 99.2445 13.35 98.9664 13.6281C98.6852 13.9094 98.4195 14.0813 98.0477 14.225C97.7664 14.3344 97.3414 14.4656 96.5633 14.5C95.7195 14.5375 95.4664 14.5469 93.332 14.5469C91.1945 14.5469 90.9414 14.5375 90.1008 14.5C89.3195 14.4656 88.8977 14.3344 88.6164 14.225C88.2445 14.0813 87.9758 13.9063 87.6977 13.6281C87.4164 13.3469 87.2445 13.0813 87.1008 12.7094C86.9914 12.4281 86.8602 12.0031 86.8258 11.225C86.7883 10.3813 86.7789 10.1281 86.7789 7.99375C86.7789 5.85625 86.7883 5.60313 86.8258 4.7625C86.8602 3.98125 86.9914 3.55938 87.1008 3.27813C87.2445 2.90625 87.4195 2.6375 87.6977 2.35938C87.9789 2.07812 88.2445 1.90625 88.6164 1.7625C88.8977 1.65313 89.3227 1.52187 90.1008 1.4875C90.9414 1.45 91.1945 1.44062 93.332 1.44062ZM93.332 0C91.1602 0 90.8883 0.009375 90.0352 0.046875C89.1852 0.084375 88.6008 0.221875 88.0945 0.41875C87.5664 0.625 87.1195 0.896875 86.6758 1.34375C86.2289 1.7875 85.957 2.23438 85.7508 2.75938C85.5539 3.26875 85.4164 3.85 85.3789 4.7C85.3414 5.55625 85.332 5.82812 85.332 8C85.332 10.1719 85.3414 10.4438 85.3789 11.2969C85.4164 12.1469 85.5539 12.7313 85.7508 13.2375C85.957 13.7656 86.2289 14.2125 86.6758 14.6562C87.1195 15.1 87.5664 15.375 88.0914 15.5781C88.6008 15.775 89.182 15.9125 90.032 15.95C90.8852 15.9875 91.157 15.9969 93.3289 15.9969C95.5008 15.9969 95.7727 15.9875 96.6258 15.95C97.4758 15.9125 98.0602 15.775 98.5664 15.5781C99.0914 15.375 99.5383 15.1 99.982 14.6562C100.426 14.2125 100.701 13.7656 100.904 13.2406C101.101 12.7313 101.238 12.15 101.276 11.3C101.313 10.4469 101.323 10.175 101.323 8.00313C101.323 5.83125 101.313 5.55938 101.276 4.70625C101.238 3.85625 101.101 3.27188 100.904 2.76562C100.707 2.23438 100.435 1.7875 99.9883 1.34375C99.5445 0.9 99.0977 0.625 98.5727 0.421875C98.0633 0.225 97.482 0.0875 96.632 0.05C95.7758 0.009375 95.5039 0 93.332 0Z" fill="#777E90"/>
<path d="M93.332 3.89062C91.0633 3.89062 89.2227 5.73125 89.2227 8C89.2227 10.2688 91.0633 12.1094 93.332 12.1094C95.6008 12.1094 97.4414 10.2688 97.4414 8C97.4414 5.73125 95.6008 3.89062 93.332 3.89062ZM93.332 10.6656C91.8602 10.6656 90.6664 9.47188 90.6664 8C90.6664 6.52813 91.8602 5.33437 93.332 5.33437C94.8039 5.33437 95.9977 6.52813 95.9977 8C95.9977 9.47188 94.8039 10.6656 93.332 10.6656Z" fill="#777E90"/>
<path d="M98.5633 3.72793C98.5633 4.25918 98.132 4.68731 97.6039 4.68731C97.0727 4.68731 96.6445 4.25606 96.6445 3.72793C96.6445 3.19668 97.0758 2.76855 97.6039 2.76855C98.132 2.76855 98.5633 3.19981 98.5633 3.72793Z" fill="#777E90"/>
</g>
<g clip-path="url(#clip3_3623_9808)">
<path d="M142.816 0H129.181C128.528 0 128 0.515625 128 1.15313V14.8438C128 15.4813 128.528 16 129.181 16H142.816C143.469 16 144 15.4813 144 14.8469V1.15313C144 0.515625 143.469 0 142.816 0ZM132.747 13.6344H130.372V5.99687H132.747V13.6344ZM131.559 4.95625C130.797 4.95625 130.181 4.34062 130.181 3.58125C130.181 2.82188 130.797 2.20625 131.559 2.20625C132.319 2.20625 132.934 2.82188 132.934 3.58125C132.934 4.3375 132.319 4.95625 131.559 4.95625ZM141.634 13.6344H139.262V9.92188C139.262 9.0375 139.247 7.89687 138.028 7.89687C136.794 7.89687 136.606 8.8625 136.606 9.85938V13.6344H134.238V5.99687H136.512V7.04063H136.544C136.859 6.44063 137.634 5.80625 138.788 5.80625C141.191 5.80625 141.634 7.3875 141.634 9.44375V13.6344Z" fill="#777E90"/>
</g>
<defs>
<clipPath id="clip0_3623_9808">
<rect width="16" height="16" fill="white"/>
</clipPath>
<clipPath id="clip1_3623_9808">
<rect width="16" height="16" fill="white" transform="translate(42.668)"/>
</clipPath>
<clipPath id="clip2_3623_9808">
<rect width="16" height="16" fill="white" transform="translate(85.332)"/>
</clipPath>
<clipPath id="clip3_3623_9808">
<rect width="16" height="16" fill="white" transform="translate(128)"/>
</clipPath>
</defs>
</svg>
