<svg width="24" height="24" viewBox="0 0 24 24" fill="none" xmlns="http://www.w3.org/2000/svg">
<path d="M23 15.9697C23 19.8397 19.87 22.9697 16 22.9697L17.05 21.2197" stroke="#3772FF" stroke-width="1.5" stroke-linecap="round" stroke-linejoin="round"/>
<path d="M1 7.96973C1 4.09973 4.13 0.969727 8 0.969727L6.95 2.71973" stroke="#3772FF" stroke-width="1.5" stroke-linecap="round" stroke-linejoin="round"/>
<path d="M6.62109 13.0703H9.4311C10.0511 13.0703 10.5611 13.6303 10.5611 14.2003C10.5611 14.8203 10.0611 15.3303 9.4311 15.3303H6.62109V13.0703Z" stroke="#3772FF" stroke-width="1.5" stroke-miterlimit="10" stroke-linecap="round" stroke-linejoin="round"/>
<path d="M6.62109 15.3301H9.84109C10.5511 15.3301 11.1311 15.8301 11.1311 16.4601C11.1311 17.0801 10.5511 17.5901 9.84109 17.5901H6.62109V15.3301Z" stroke="#3772FF" stroke-width="1.5" stroke-miterlimit="10" stroke-linecap="round" stroke-linejoin="round"/>
<path d="M8.42188 17.5801V18.7001" stroke="#3772FF" stroke-width="1.5" stroke-miterlimit="10" stroke-linecap="round" stroke-linejoin="round"/>
<path d="M8.42188 11.9502V13.0702" stroke="#3772FF" stroke-width="1.5" stroke-miterlimit="10" stroke-linecap="round" stroke-linejoin="round"/>
<path d="M14.8517 15.3302C14.8517 18.7402 12.0917 21.5002 8.68172 21.5002C5.27172 21.5002 2.51172 18.7402 2.51172 15.3302C2.51172 11.9202 5.27172 9.16016 8.68172 9.16016C8.84172 9.16016 8.99172 9.17018 9.16172 9.18018C12.1917 9.41018 14.6117 11.8302 14.8417 14.8602C14.8417 15.0102 14.8517 15.1602 14.8517 15.3302Z" stroke="#3772FF" stroke-width="2" stroke-miterlimit="10" stroke-linecap="round" stroke-linejoin="round"/>
<path d="M21.5002 8.66998C21.5002 12.08 18.7402 14.84 15.3302 14.84H14.8402C14.6102 11.81 12.1902 9.38997 9.16016 9.15997V8.66998C9.16016 5.25998 11.9202 2.5 15.3302 2.5C18.7402 2.5 21.5002 5.25998 21.5002 8.66998Z" stroke="#3772FF" stroke-width="2" stroke-miterlimit="10" stroke-linecap="round" stroke-linejoin="round"/>
</svg>
