<svg width="16" height="16" viewBox="0 0 16 16" fill="none" xmlns="http://www.w3.org/2000/svg">
<g clip-path="url(#clip0_2680_53883)">
<path d="M15.957 6.12682C15.8337 5.74744 15.4655 5.48663 14.9467 5.41125L10.8326 4.8134L8.9927 1.08543C8.7607 0.615301 8.39885 0.345703 7.99997 0.345703C7.60108 0.345703 7.23927 0.615332 7.00726 1.08543L5.16745 4.81337L1.05333 5.41125C0.534507 5.48663 0.166282 5.74741 0.0429989 6.12679C-0.080253 6.50617 0.064343 6.93362 0.439724 7.2995L3.41671 10.2013L2.71392 14.2989C2.62151 14.8379 2.77848 15.1602 2.92642 15.3357C3.09948 15.5409 3.35196 15.654 3.63734 15.654C3.85312 15.654 4.08287 15.5907 4.32016 15.4659L8 13.5313L11.6798 15.4658C11.9172 15.5907 12.1469 15.6539 12.3627 15.6539H12.3628C12.6482 15.6539 12.9006 15.5409 13.0737 15.3356C13.2216 15.1602 13.3786 14.8378 13.2862 14.2988L12.5833 10.2013L15.5603 7.29953C15.9356 6.93362 16.0802 6.50621 15.957 6.12682ZM14.9059 6.62818L11.7524 9.70201C11.6419 9.8097 11.5915 9.96485 11.6176 10.1169L12.3621 14.4573C12.3861 14.5971 12.3739 14.6809 12.3626 14.7164C12.3343 14.7164 12.2539 14.7085 12.1161 14.636L8.21816 12.5868C8.14984 12.5509 8.07494 12.5329 8.00003 12.5329C7.92512 12.5329 7.85018 12.5509 7.7819 12.5868L3.8839 14.6361C3.74627 14.7084 3.66587 14.7164 3.63755 14.7164C3.62621 14.6809 3.61405 14.5971 3.63802 14.4573L4.38247 10.1169C4.40854 9.96482 4.35813 9.80966 4.24766 9.70197L1.09417 6.62811C0.992482 6.52899 0.953075 6.45399 0.94145 6.41867C0.971607 6.39695 1.04758 6.35942 1.18817 6.33898L5.54624 5.70566C5.69893 5.68347 5.8309 5.58757 5.89918 5.44922L7.84809 1.50025C7.9109 1.37294 7.97006 1.31228 8.00006 1.29028C8.03006 1.31228 8.08925 1.37294 8.15206 1.50028L10.101 5.44922C10.1693 5.58757 10.3013 5.68347 10.4539 5.70566L14.8119 6.33898C14.9525 6.35939 15.0285 6.39692 15.0586 6.41867C15.0469 6.45402 15.0075 6.52905 14.9059 6.62818Z" fill="#B1B5C3"/>
</g>
<defs>
<clipPath id="clip0_2680_53883">
<rect width="16" height="16" fill="white"/>
</clipPath>
</defs>
</svg>
