<svg width="24" height="24" viewBox="0 0 24 24" fill="none" xmlns="http://www.w3.org/2000/svg">
<path d="M12.2766 12.854C12.2994 12.854 12.3221 12.854 12.3495 12.854C12.3586 12.854 12.3677 12.854 12.3768 12.854C12.3905 12.854 12.4087 12.854 12.4224 12.854C13.7572 12.8312 14.8369 12.362 15.6342 11.4645C17.3881 9.48733 17.0966 6.09787 17.0647 5.77441C16.9508 3.3462 15.8027 2.18449 14.8551 1.64236C14.149 1.2369 13.3244 1.01822 12.4041 1H12.3723C12.3677 1 12.3586 1 12.354 1H12.3267C11.821 1 10.8279 1.082 9.87571 1.62414C8.91901 2.16627 7.75274 3.32798 7.63885 5.77441C7.60696 6.09787 7.31539 9.48733 9.06935 11.4645C9.86205 12.362 10.9418 12.8312 12.2766 12.854ZM8.85523 5.8883C8.85523 5.87464 8.85978 5.86097 8.85978 5.85186C9.01012 2.5854 11.329 2.2346 12.3221 2.2346H12.3404C12.3495 2.2346 12.3631 2.2346 12.3768 2.2346C13.6069 2.26194 15.6979 2.76307 15.8392 5.85186C15.8392 5.86552 15.8392 5.87919 15.8437 5.8883C15.8483 5.92019 16.1672 9.01809 14.7185 10.649C14.1444 11.296 13.3791 11.6149 12.3723 11.624C12.3631 11.624 12.3586 11.624 12.3495 11.624C12.3404 11.624 12.3358 11.624 12.3267 11.624C11.3244 11.6149 10.5545 11.296 9.98505 10.649C8.54088 9.02721 8.85067 5.91564 8.85523 5.8883Z" fill="white" stroke="white" stroke-width="0.4"/>
<path d="M21.7116 18.4778C21.7116 18.4733 21.7116 18.4687 21.7116 18.4642C21.7116 18.4277 21.7071 18.3913 21.7071 18.3503C21.6797 17.4482 21.6205 15.3389 19.6433 14.6647C19.6297 14.6601 19.6114 14.6556 19.5978 14.651C17.5431 14.1271 15.8347 12.9426 15.8165 12.9289C15.5386 12.733 15.1559 12.8014 14.96 13.0793C14.7641 13.3572 14.8325 13.7399 15.1104 13.9358C15.1878 13.9904 17.001 15.2524 19.2697 15.8355C20.3312 16.2136 20.4497 17.348 20.4816 18.3867C20.4816 18.4277 20.4816 18.4642 20.4861 18.5006C20.4907 18.9106 20.4633 19.5439 20.3905 19.9083C19.6524 20.3274 16.7595 21.7762 12.3587 21.7762C7.9761 21.7762 5.06499 20.3229 4.3224 19.9038C4.24951 19.5393 4.21762 18.9061 4.22673 18.496C4.22673 18.4596 4.23129 18.4232 4.23129 18.3822C4.26318 17.3434 4.38163 16.2091 5.44311 15.8309C7.71186 15.2478 9.52504 13.9813 9.60249 13.9312C9.88039 13.7353 9.94873 13.3526 9.75283 13.0747C9.55693 12.7968 9.17425 12.7285 8.89635 12.9244C8.87813 12.9381 7.17884 14.1225 5.1151 14.6464C5.09688 14.651 5.08321 14.6556 5.06954 14.6601C3.09235 15.3389 3.03313 17.4482 3.0058 18.3457C3.0058 18.3867 3.0058 18.4232 3.00124 18.4596C3.00124 18.4642 3.00124 18.4687 3.00124 18.4733C2.99668 18.7102 2.99213 19.9265 3.23358 20.537C3.27914 20.6555 3.36114 20.7557 3.47048 20.824C3.60715 20.9151 6.88272 23.0017 12.3633 23.0017C17.8438 23.0017 21.1194 20.9106 21.256 20.824C21.3608 20.7557 21.4474 20.6555 21.4929 20.537C21.7207 19.9311 21.7162 18.7147 21.7116 18.4778Z" fill="white" stroke="white" stroke-width="0.4"/>
</svg>
